<svg width="25" height="32" viewBox="0 0 25 32" fill="none" xmlns="http://www.w3.org/2000/svg">
<g clip-path="url(#clip0_130_7747)">
<path d="M23.1409 16.4041H16.9143V23.5114C16.9143 24.0666 16.4333 24.5176 15.8395 24.5176H9.25256C8.66038 24.5176 8.17934 24.0666 8.17934 23.5114V17.3359C8.17934 16.7792 8.66038 16.3282 9.25256 16.3282H16.9143V10.175C16.9143 9.21196 16.0824 8.43202 15.0552 8.43202H8.17934V1.2101C8.17934 0.541793 7.60145 0 6.88861 0H1.29072C0.577888 0 0 0.541793 0 1.2101V30.2585C0 31.2201 0.831905 32 1.85908 32H16.0602C16.5571 32 17.0334 31.8139 17.3827 31.482L24.4634 24.7543C24.8063 24.4283 25 23.9892 25 23.5308V18.1471C25 17.1841 24.1681 16.4041 23.1409 16.4041Z" fill="black"/>
</g>
<defs>
<clipPath id="clip0_130_7747">
<rect width="25" height="32" fill="white"/>
</clipPath>
</defs>
</svg>
