<svg width="38" height="27" viewBox="0 0 38 27" fill="none" xmlns="http://www.w3.org/2000/svg">
<path d="M37.9978 7.62981L30.5147 0H28.2181L35.7034 7.62981L23.5944 19.966L22.445 18.7944L33.4024 7.62981L25.9214 0H23.6204L31.1057 7.62981L21.2956 17.625L20.1461 16.4534L28.7243 7.71397L28.8069 7.62981L21.339 0H7.48528L0 7.62981L18.9185 26.9158L19.0011 27L20.1505 25.824L2.29664 7.62981L8.15667 1.65663H20.6676L22.2885 3.31326H8.83024L4.59546 7.62981L21.2999 24.6568L22.4493 23.4852L6.89428 7.62981L9.5038 4.9699H23.9116L25.5325 6.62653H10.173L9.19309 7.62981L23.5987 22.3136L24.7481 21.142L24.7438 21.1376L38 7.62981H37.9978ZM12.1307 8.28316H25.8628L18.9967 15.2818L12.1307 8.28316Z" fill="#0044EB"/>
</svg>
