<svg preserveAspectRatio="none" width="100%" height="100%" overflow="visible" style="display: block;" viewBox="0 0 67 54" fill="none" xmlns="http://www.w3.org/2000/svg">
<g id="Layer_1" clip-path="url(#clip0_0_4)">
<path id="Vector" d="M66.9586 41.397C66.7611 39.1751 65.9476 37.0992 64.7024 35.2582L63.1281 32.9316C61.6598 30.762 60.6648 28.3473 60.2885 25.7569L59.8908 23.0212C59.3163 19.0705 58.1218 15.5021 55.84 12.194C53.4466 8.72343 50.2689 5.8665 46.5881 3.79268C44.9001 2.84151 43.1373 2.05565 41.2907 1.45437C38.1594 0.434335 34.9096 -0.0794717 31.6106 0.00937695C28.8548 0.0837619 26.0575 0.583105 23.5637 1.74571C22.0947 2.43033 20.7248 3.39665 19.8316 4.74866C16.3531 5.41124 13.393 7.48231 11.2691 10.2545C9.8154 12.152 8.74137 14.2816 8.02004 16.5614C7.34721 18.6896 6.95987 20.8695 6.7804 23.0901C6.67023 24.451 6.6529 25.7638 6.67785 27.1261L6.71804 29.3239C6.73882 30.4493 6.54758 31.5334 6.19003 32.5948C5.74656 33.9096 4.99543 35.024 3.99 35.9786L2.33946 37.5455C0.911352 39.047 -0.148819 41.0196 0.0174825 43.1237C0.0881605 44.0184 0.352164 44.8476 0.848989 45.5805C0.961935 45.7471 1.09013 45.8883 1.27721 45.9579C1.47747 46.0316 1.67634 45.9882 1.80453 45.8505C1.93064 45.7148 1.98746 45.4985 1.88699 45.3077C0.923131 43.4729 1.01737 41.7118 2.04913 39.9189C2.30412 39.4754 2.54803 39.0621 2.91875 38.7088L4.60601 37.0992L5.72369 35.9703C6.38058 35.2141 6.84623 34.3952 7.24604 33.4364C7.20793 34.3545 7.08944 35.2299 6.82613 36.0998C6.56074 36.9766 6.09025 37.7322 5.57333 38.4801L4.30944 40.3088C3.67403 41.3674 3.26313 42.5121 3.21462 43.7608C3.16543 45.0474 3.49872 46.3188 4.20342 47.4029C5.17421 48.8968 6.69863 49.9726 8.41431 50.4107C8.8363 50.5181 9.198 50.2199 9.21394 49.8411C9.20563 49.5835 9.09337 49.3851 8.88827 49.2343C8.37689 48.009 8.46559 46.6873 8.99013 45.4269C9.01299 47.593 9.93319 49.5022 11.8443 50.6111C13.1802 51.3866 14.7213 51.6766 16.2416 51.3666C17.0107 51.2096 17.6856 50.8914 18.2607 50.3728C18.3155 50.6441 18.3979 50.9079 18.3314 51.1593C18.2704 51.3894 18.2192 51.6008 18.355 51.8288C18.8019 52.5837 20.5488 52.1022 21.4302 51.5829C23.1188 50.5884 24.2088 48.8741 24.1769 46.8505C27.9693 47.9119 31.6362 47.9525 35.4708 46.8829C36.9149 46.48 38.2682 45.9179 39.5958 45.2485L39.6561 45.1989C39.6713 45.1858 39.706 45.1817 39.7164 45.2127C39.7212 45.2271 39.2653 46.1997 39.1918 46.7761L39.065 47.7659C39.0318 49.2054 39.5265 50.3425 40.4827 51.3928C41.2061 52.1876 43.2905 53.6161 44.0471 52.9432C44.2238 52.7862 44.1892 52.5933 44.2356 52.3715C44.4857 51.1786 45.0027 50.0725 45.6949 49.0724L46.823 47.6357C46.8632 47.5627 46.929 47.6378 46.8555 47.6853L46.0594 50.3149C45.8349 51.0567 45.7108 51.7999 45.6699 52.5788C45.6547 52.8723 45.9381 53.1264 46.1785 53.24C47.6524 53.9364 49.5468 54.0893 51.1697 53.9543C52.3324 53.8579 53.4279 53.592 54.4936 53.1292C57.8065 51.6904 59.5339 48.3272 59.7349 44.7843C59.7155 44.6851 59.7432 44.7677 59.7758 44.829C60.1984 46.6053 60.1097 48.4415 59.4231 50.1255C59.2817 50.4727 59.1154 50.7516 58.8881 51.0312C58.6796 51.2881 58.7066 51.6387 58.9041 51.8419C59.1334 52.0781 59.43 52.0953 59.7127 51.9397C61.4547 50.9809 62.7726 49.4636 63.451 47.5964C64.3671 45.0763 64.1495 42.4487 63.3672 39.9176L62.5086 37.5579L61.4242 34.8876L60.9821 33.5067L60.3135 30.4183C60.3024 30.3667 60.353 30.3811 60.3516 30.3997C60.3495 30.4314 60.3599 30.4535 60.3717 30.4796L60.4624 30.6904C60.8082 31.4949 61.1838 32.2601 61.6716 32.9915L63.0415 35.0454L64.1703 36.759C65.2609 38.5587 65.8312 40.6277 65.7723 42.7408C65.73 44.247 65.2907 45.6624 64.5479 46.9497C64.2548 47.1804 64.2389 47.5682 64.507 47.8196C64.7274 47.9711 65.0475 47.9436 65.2408 47.7197C66.6807 46.0543 67.154 43.5735 66.9607 41.3956L66.9586 41.397ZM53.281 33.1465C52.9158 35.2403 51.426 36.9608 49.3785 37.5772C48.5449 37.8279 47.694 37.8561 46.8736 37.5738C46.5098 37.4484 46.4585 37.0737 45.9859 37.1047C45.5806 37.1309 45.3172 37.5138 45.3256 37.978C44.659 39.1675 43.8538 40.2461 42.908 41.2345C41.2207 42.9983 39.0262 44.3531 36.7278 45.181C35.8214 45.5075 34.9435 45.8064 33.9963 46.004C30.9343 46.6439 27.7406 46.5874 24.7298 45.7375C22.9061 45.2223 21.1862 44.5115 19.5891 43.5032C18.7756 42.9894 18.0522 42.4095 17.3461 41.7662C16.7321 41.2069 16.2228 40.6084 15.742 39.9382C15.0324 38.9492 14.5203 37.9085 14.1517 36.7445C13.5925 34.9785 13.1678 33.2105 12.8435 31.3819L12.1935 26.8575L13.6944 25.7445C14.8183 24.9111 15.7697 23.9503 16.6684 22.8765C18.1215 21.1333 19.0084 19.4624 19.817 17.3548C20.3381 15.9966 20.6194 14.6246 20.8557 13.1521C21.2715 13.9083 21.6824 14.5682 22.1778 15.2307C23.9711 17.6296 26.185 19.6497 28.7349 21.2435C30.4575 22.32 32.2501 23.2457 34.0912 24.1066C37.1283 25.5096 40.1834 26.602 43.5129 27.0566C44.0152 28.2591 44.4116 29.4644 44.7442 30.7111L44.5869 31.3061C44.5509 31.6009 44.6943 31.8682 44.9479 31.9908C45.1897 32.1072 45.4995 32.0686 45.69 31.8461L45.9492 31.342C46.225 30.8047 46.6629 30.4053 47.1251 30.0216C48.0993 29.2137 49.4422 28.6985 50.7068 28.9072C51.8279 29.0925 52.7246 29.8439 53.1168 30.9018C53.3877 31.6326 53.4154 32.3778 53.2817 33.1465H53.281ZM50.0326 27.6427L49.0639 27.7467L52.4661 22.3531C52.6283 22.557 52.798 22.7367 53.0052 22.9041L50.0326 27.6427ZM53.7432 23.3841C54.0515 23.5412 54.3121 23.6486 54.619 23.7265L51.8952 27.9809L51.0013 27.724L53.7432 23.3841ZM56.7262 22.382L56.5384 23.4303L53.1126 28.7164L52.6643 28.3831L55.5753 23.8256C55.8081 23.7382 55.9716 23.5722 56.0333 23.3414C56.0665 23.2168 56.0222 23.0907 55.9605 23.026C55.8704 22.9323 55.7596 22.9399 55.6362 22.9502C54.8962 23.0122 54.1991 22.7402 53.6268 22.2945C52.8098 21.6588 52.9138 21.0761 52.5777 20.9907C52.4322 20.9536 52.2977 20.9839 52.1883 21.0823C52.0469 21.2091 51.9818 21.3544 51.9922 21.5617L47.8215 28.1386L46.8278 28.6944L50.6209 22.6568L51.7254 20.9129L53.9649 19.4342L54.7791 18.9334C54.8262 18.9383 54.874 18.9493 54.9052 18.9782C54.9357 19.0071 54.9246 19.0381 54.9121 19.0726C54.7639 19.4844 55.3189 20.1236 55.9765 20.3337C56.3118 20.4411 56.6604 20.4205 57.0463 20.4322L56.7276 22.3827L56.7262 22.382Z" fill="var(--fill-0, black)"/>
<path id="Vector_2" d="M40.6378 32.5179C40.4084 32.3932 40.0606 32.4353 39.9088 32.6722C39.7252 32.9587 39.4917 33.0214 39.1626 32.9876L30.5066 32.0985C30.0929 32.0558 29.7658 32.2238 29.7153 32.6212C29.664 33.0186 29.9612 33.2762 30.3638 33.3175L34.8935 33.7804C34.6198 34.8418 34.7154 36.045 35.3903 36.8729C35.7201 37.273 36.2086 37.4927 36.7172 37.4907C37.2231 37.4886 37.688 37.2469 38.0276 36.8474C38.611 36.16 38.7849 35.0987 38.7503 34.1799L39.5596 34.2391C40.1631 34.1757 40.6939 33.8203 40.9094 33.2625C41.0251 32.9628 40.8983 32.6605 40.6378 32.5186V32.5179Z" fill="var(--fill-0, black)"/>
<path id="Vector_3" d="M22.468 31.4173C22.4243 31.2417 22.2948 30.9861 22.0425 30.9283L17.2247 29.8146C16.7195 29.6975 16.2449 29.6878 15.7612 29.9206C15.545 29.8084 15.4244 29.6224 15.3448 29.4013C15.236 29.099 14.9061 28.9956 14.6304 29.1031C14.3525 29.2119 14.2104 29.5081 14.2991 29.8194C14.3982 30.1693 14.6394 30.4434 14.8944 30.7196C14.7391 30.9841 14.5735 31.2485 14.5652 31.5571C14.5562 31.9022 14.8327 32.1818 15.148 32.2025C15.4729 32.2238 15.7695 31.9834 15.8 31.6411C15.9469 31.283 16.2629 31.0302 16.6516 30.9792L18.8904 31.4504C18.3479 33.0186 18.6819 35.5863 20.4502 35.5512C20.8743 35.5429 21.2658 35.3335 21.5506 34.9857C22.1617 34.2384 22.2767 33.0482 22.1901 32.075C22.362 31.896 22.5387 31.7031 22.468 31.4173Z" fill="var(--fill-0, black)"/>
<path id="Vector_4" d="M31.2224 28.6024C32.1571 28.4639 33.0427 28.2311 33.9539 27.9894C34.5345 27.8358 35.0799 27.6891 35.6765 27.625C36.7172 27.5135 37.7289 27.8055 38.4932 28.5073C38.7011 28.8386 39.0988 28.9468 39.4162 28.7105C39.6802 28.5225 39.7786 28.0789 39.5 27.7828C38.8119 27.052 37.8474 26.5609 36.8295 26.4115C36.0548 26.2971 35.3113 26.388 34.5671 26.574L32.498 27.0919C31.8051 27.2655 31.1323 27.415 30.4172 27.4597C29.3487 27.5259 29.2559 26.8846 28.9593 26.7579C28.6953 26.6456 28.4063 26.7331 28.2497 26.9418C28.0876 27.1588 28.071 27.4294 28.2179 27.6643C28.8844 28.727 30.0423 28.7766 31.2217 28.6024H31.2224Z" fill="var(--fill-0, black)"/>
<path id="Vector_5" d="M51.1037 30.5818L50.4094 30.586C48.3133 30.858 47.0106 32.6674 46.827 34.7247C46.7951 35.0835 47.0279 35.3611 47.3841 35.3866C47.6716 35.4072 47.9675 35.1847 47.9897 34.8459C48.1006 33.1309 49.1787 31.5681 51.0067 31.6742C51.3032 31.6914 51.5146 31.4056 51.5312 31.159C51.5485 30.8973 51.3829 30.5798 51.1037 30.5818Z" fill="var(--fill-0, black)"/>
<path id="Vector_6" d="M17.7859 25.3418C18.2737 25.1283 19.3076 25.7468 19.8162 26.1415L20.9443 27.0169C21.2367 27.2435 21.624 27.1243 21.8104 26.8667C21.9961 26.6105 21.9587 26.2152 21.6864 26.0134L20.9075 25.4355C20.4779 25.1166 20.0649 24.7991 19.591 24.5498C18.8163 24.142 17.894 23.8514 17.138 24.3163C16.8456 24.4961 16.7597 24.8749 16.9489 25.1545C17.1367 25.4314 17.4644 25.4823 17.7852 25.3418H17.7859Z" fill="var(--fill-0, black)"/>
<path id="Vector_7" d="M28.1305 42.2417L25.3609 41.6514C25.0872 41.5929 24.8315 41.825 24.7761 42.0619C24.7241 42.2837 24.8593 42.6198 25.1295 42.6804L27.904 43.3023C28.2483 43.3795 28.5643 43.2259 28.6385 42.9022C28.7147 42.5702 28.4839 42.3181 28.1299 42.2424L28.1305 42.2417Z" fill="var(--fill-0, black)"/>
<path id="Vector_8" d="M24.7934 36.3604C24.7609 36.0553 24.4983 35.8356 24.174 35.8659C23.5192 35.9272 23.0015 36.4231 22.9918 37.0912C22.9835 37.6181 23.3161 38.1099 23.7901 38.3013C24.1165 38.4336 24.4574 38.3055 24.5641 38.0093C24.783 37.4018 24.0485 37.3398 24.1068 37.074C24.122 37.0037 24.2072 36.9576 24.2966 36.9528C24.623 36.9342 24.8253 36.6518 24.7941 36.3611L24.7934 36.3604Z" fill="var(--fill-0, black)"/>
</g>
<defs>
<clipPath id="clip0_0_4">
<rect width="67" height="54" fill="white"/>
</clipPath>
</defs>
</svg>
