<svg preserveAspectRatio="none" width="100%" height="100%" overflow="visible" style="display: block;" viewBox="0 0 374 367" fill="none" xmlns="http://www.w3.org/2000/svg">
<g id="Layer_1" clip-path="url(#clip0_0_4)">
<g id="Group">
<path id="Vector" d="M349.499 336.995C349.283 335.292 348.955 333.825 348.346 332.196L335.507 298.036L330.299 286.878C328.193 283.055 325.431 279.858 321.97 277.237C321.777 277.09 322.04 276.908 322.074 276.843C327.545 265.765 331.584 254.186 334.045 242.039C335.634 234.212 336.757 222.463 335.279 214.922C333.586 206.269 327.46 200.373 318.629 198.551C320.728 195.817 322.476 193.064 323.841 190.01C330.507 175.117 324.509 157.654 310.003 150.236L304.572 147.46C299.796 145.02 295.768 141.823 292.508 137.514C288.72 132.502 286.239 126.722 285.148 120.533L283.624 111.861C281.066 97.312 276.271 86.3077 266.989 74.8055C253.186 57.6968 232.335 48.8703 210.492 48.3567C201.515 48.1444 192.897 49.3259 184.205 51.3491C178.106 52.77 172.412 54.7353 166.949 57.747C158.219 62.558 150.407 69.6895 146.989 79.045C145.967 79.0565 145.199 79.3037 144.377 79.6666C139.42 81.8481 135.315 85.1726 131.816 89.3233C117.516 106.293 113.735 133.749 122.677 153.97L127.762 163.781C132.526 171.538 133.101 181.095 128.668 189.095L125.293 195.184C119.83 205.045 119.815 218.266 129.413 224.806C132.75 227.077 136.646 227.683 140.62 228.065L129.749 233.946C127.102 235.378 124.687 236.923 122.342 238.83L110.803 196.161C109.511 191.388 106.799 188.601 101.957 187.96L92.9377 186.767L35.8272 179.268C32.6021 178.843 29.701 181.087 29.0529 183.936C28.5784 186.017 28.887 187.79 29.4503 189.821L45.869 249.023C46.8103 252.413 49.6766 254.927 52.7976 256.027L56.9215 256.923L48.716 258.151C42.3738 259.379 36.5486 262.325 32.0774 267.016C29.4001 269.827 27.1819 272.789 25.4189 276.233L17.7265 291.264L3.68418 323.759C2.1835 327.227 1.04932 330.605 0.212178 334.231C-0.466791 337.184 0.420498 340.273 2.75831 342.103C4.64862 343.582 6.84756 344.003 9.19694 344.459C8.0589 347.308 8.87289 350.181 11.0217 352.088C15.3231 355.899 23.436 356.177 29.3808 356.193C30.434 359.05 32.7564 360.996 35.6574 361.977C39.3146 363.212 42.9679 363.857 46.9222 364.143C59.186 365.035 71.3882 364.251 83.4167 362.038L90.7928 365.317C100.526 368.51 111.366 367.734 115.787 357.907C116.709 355.857 117.342 353.818 117.685 351.54L120.86 349.984C130.651 354.602 140.774 357.93 151.48 359.614C165.252 361.78 179.101 361.907 192.889 360.139L202.418 358.274C204.293 361.251 207.811 362.741 211.302 363.147C218.323 363.961 225.379 363.683 232.285 362.154C237.296 361.046 240.316 357.768 242.527 353.193L255.616 326.134L259.466 318.589C261.191 315.859 263.66 313.686 266.731 312.639C268.964 311.879 271.198 311.473 273.605 311.465L293.199 311.408C297.118 311.396 301.196 313.234 302.643 316.91L308.19 331.007L313.336 343.358C315.451 348.432 322.09 350.069 327.514 349.83C332.479 349.609 337.374 349.119 342.123 347.884C347.131 346.578 350.12 342.026 349.484 336.995H349.499ZM303.623 151.263L310.273 154.781C322.344 162.43 326.418 177.631 319.706 190.4C320.732 183.531 319.679 176.928 316.646 170.89C313.769 165.573 309.733 161.275 304.672 158.036L297.315 153.329C294.075 151.256 291.717 148.387 290.147 144.881C289.133 142.476 288.184 140.17 287.833 137.398C291.737 143.588 297.111 148.159 303.623 151.267V151.263ZM232.852 127.718L245.061 100.216L258.826 88.2344C259.574 87.5858 260.651 87.3001 261.507 87.5086C263.525 88.0028 264.019 90.2306 263.845 92.6014L262.63 109.254L255.107 125.591C254.856 125.68 254.644 125.545 254.552 125.444C254.428 125.301 254.351 125.066 254.474 124.784L261.125 110.135C261.569 109.158 261.569 108.536 261.654 107.451L262.684 94.0184L262.734 90.5241C262.749 89.4314 261.588 88.3619 260.516 88.748C259.185 89.2268 258.12 90.2229 257.051 91.1766L245.706 101.285L233.411 129.298L231.69 127.853L232.844 127.714L232.852 127.718ZM248.271 107.332L241.073 123.517L238.121 125.039L246.666 105.474L248.275 107.332H248.271ZM247.893 100.447L254.775 94.3698C255.921 97.0417 258.652 98.2656 261.557 97.8293L260.875 107.011C260.03 107.826 258.992 108.193 257.642 108.266C254.691 108.312 252.071 107.196 250.057 105.281C248.707 103.976 247.986 102.343 247.893 100.447ZM250.312 108.876L253.186 110.254L247.642 122.649L244.159 122.788L250.312 108.876ZM255.628 110.818C256.434 110.961 257.013 110.984 257.908 110.892L252.141 124.004L250.123 123.278L255.624 110.818H255.628ZM134.829 196.682C133.564 198.848 132.318 200.856 131.434 203.219C129.259 209.03 129.513 215.258 132.256 220.806L133.402 222.799C125.158 218.652 123.391 208.586 126.909 200.377L130.092 194.307L133.363 187.631C135.115 183.5 135.562 179.203 135.057 174.546C137.14 178.06 137.958 181.994 138.162 186.037C138.054 189.936 136.897 193.442 134.829 196.686V196.682ZM140.265 146.321L138.035 140.931C142.074 137.881 145.072 134.251 147.872 130.209C153.84 121.591 157.756 111.949 159.114 101.463C169.248 112.116 183.889 118.946 197.773 122.815C207.07 125.355 216.417 126.684 226.035 127.344L231.139 133.02L230.63 134.939C230.56 135.946 231.073 136.827 231.937 137.016C232.875 137.221 233.666 136.738 234.028 135.761C235.402 132.043 238.268 128.95 241.944 127.409C245.571 125.892 249.467 126.452 252.6 128.78C255.412 130.877 257.268 134.004 257.757 137.545C259.208 148.055 250.489 156.897 240.058 156.387C238.114 156.291 236.814 157.125 235.895 158.727C230.325 168.461 223.219 176.249 213.478 181.936C203.814 187.581 192.827 189.913 181.643 188.589C174.51 187.743 167.732 185.172 162.004 180.867C151.564 173.025 145.218 158.287 140.265 146.317V146.321ZM207.217 189.199C214.033 186.527 220.194 182.585 225.838 177.674C226.309 180.735 227.258 183.392 229.11 185.821C225.645 190.292 221.633 194.045 216.807 196.84C213.486 198.925 206.692 201.068 204.975 198.08C204.312 196.925 204.948 195.62 205.643 194.825C206.079 195.477 206.569 195.647 207.182 195.388C209.007 194.612 208.131 191.705 207.217 189.199ZM23.0888 323.582C26.7498 317.74 32.4053 316.91 32.8683 314.249L34.0025 307.747C37.0578 295.832 42.1038 284.557 49.1751 274.48C53.1486 268.815 58.9661 262.684 65.3006 260.07C66.7164 259.487 68.0782 259.321 69.6097 259.611L85.7005 262.657C87.7876 263.051 89.6355 263.873 91.3638 265.163C89.0144 266.931 87.0778 268.897 85.1064 271.171C77.4565 280.001 70.7169 289.507 65.0306 299.739C62.2414 304.759 60.3086 309.944 59.3403 315.543L54.7226 317.354C53.627 315.423 51.6402 314.354 50.398 315.55C49.9042 316.025 49.719 316.832 50.1743 317.408L51.4898 319.076C49.6265 320.342 47.9753 321.647 46.3821 323.346C41.8916 328.25 39.7467 334.895 42.6555 341.157C38.2576 338.524 34.0217 336.161 29.2767 334.54C27.1395 333.81 25.118 333.292 22.7918 333.377C21.1213 329.837 20.9747 326.96 23.0927 323.582H23.0888ZM29.3538 352.05C23.4437 352.455 9.8219 350.999 13.1049 344.791C13.9806 343.134 15.3154 341.756 17.0282 340.922L24.0108 337.52C25.7044 336.694 35.2485 341.204 38.0763 343.281C35.5301 344.478 33.5318 345.791 31.7572 347.625C30.65 348.891 29.8361 350.196 29.3538 352.05ZM60.7291 360.146C53.9857 360.374 35.4067 360.513 33.3466 355.104C32.2626 352.258 35.5301 348.86 38.0608 347.775L46.737 344.049C48.4228 343.683 50.4096 344.609 52.0067 345.146C57.0874 346.849 61.6319 349.235 66.1956 352L77.3523 358.757L60.7291 360.15V360.146ZM209.531 327.524L202.626 346.633C201.785 348.961 201.341 351.22 201.148 353.729C197.997 354.644 194.934 355.146 191.608 355.532C181.501 356.714 171.498 356.826 161.305 355.984C148.686 355.081 136.646 352.034 124.857 346.663C129.621 340.405 131.886 332.37 133.919 324.636C143.548 329.041 153.999 332.47 164.631 332.231C172.115 332.107 179.167 330.037 185.582 326.292L192.576 321.667L201.781 315.018C206.951 311.284 212.332 308.207 218.354 305.701L209.528 327.52L209.531 327.524ZM220.827 300.052L210.874 304.5C205.897 306.724 201.646 309.894 197.206 313.048L185.864 321.107C176.077 328.061 163.361 329.478 151.753 326.45C145.971 324.941 140.485 323.022 134.972 320.477C135.462 319.686 136.099 319.319 136.754 318.771C140.658 315.5 143.158 310.682 143.178 305.569C143.178 304.593 142.522 303.894 141.816 303.809C141.04 303.716 140.215 304.183 140.08 305.114C139.59 308.527 138.398 311.74 135.879 314.446C136.639 309.218 136.754 304.102 135.385 299.075C134.717 296.627 133.645 293.623 131.755 294.314C131.072 294.565 130.601 295.438 130.864 296.283C132.526 301.596 133.066 306.998 132.233 312.774C131.087 320.717 129.027 328.153 126.273 335.489C124.413 340.451 121.674 345.161 116.798 347.339C115.301 347.111 114.229 347.999 113.932 349.455L112.624 354.969C109.299 364.274 98.8093 364.185 90.2682 360.525C84.5934 358.092 79.4085 355.1 74.1542 351.83C68.8112 348.505 63.5415 345.474 57.8127 342.88C54.1593 341.227 50.4752 340.127 46.5402 339.814C43.4772 334.362 46.3396 328.485 50.7452 324.504C56.2155 319.562 62.2915 319.137 66.6315 316.531C69.0774 315.06 71.5001 312.728 69.8528 311.35C68.5064 310.222 66.4348 312.898 63.8038 313.821C64.3516 310.813 65.3238 308.106 66.6354 305.38C68.8343 300.809 71.3573 296.6 74.1696 292.357L84.9907 277.414C87.7529 273.603 90.9741 270.364 94.6043 267.422C96.9691 265.503 99.7274 265.024 102.702 265.533L128.522 269.935L166.035 275.418C176.451 283.661 187.669 287.862 200.558 290.623C208.27 292.249 215.843 293.349 223.751 294.106L220.823 300.048L220.827 300.052ZM160.889 251.703C160.707 251.008 160.059 250.348 159.172 250.556C156.387 251.216 153.752 252.85 152.355 255.352C151.912 256.143 151.746 256.587 150.6 256.537C149.998 256.51 148.679 256.564 148.301 255.757C149.234 252.367 151.892 249.807 155.079 248.444C155.966 248.066 156.398 247.166 156.059 246.348C155.7 245.479 154.701 245.317 153.713 245.656C149.458 247.127 146.464 250.618 144.975 254.919C144.416 254.919 143.656 254.888 143.232 254.479C142.047 253.336 144.867 244.402 153.547 241.417C158.813 239.606 164.457 239.498 169.816 241.162C173.97 246.247 176.347 252.332 176.652 258.9C176.675 259.444 176.493 260.004 176.223 260.248C174.892 261.452 168.581 259.186 165.757 257.776C164.264 257.031 162.733 256.564 161.112 257.097L157.729 258.209C156.931 258.471 155.75 258.383 155.33 257.576C155.006 256.958 155.627 256.205 156.036 255.78C158.25 253.502 161.348 253.514 160.881 251.703H160.889ZM176.802 265.186C177.269 265.225 177.411 265.452 177.52 265.533C177.658 265.638 177.697 265.9 177.527 266.047C177.408 266.147 177.211 266.248 176.868 266.221L130.474 262.599C129.05 262.487 128.179 261.236 127.854 260.016L126.057 253.247C125.999 253.035 126.543 252.838 126.693 252.927C126.886 253.039 127.114 253.193 127.214 253.568L128.881 259.881C129.189 261.047 129.915 261.445 131.107 261.537L176.806 265.186H176.802ZM274.442 269.684C273.617 270.333 272.621 270.499 271.576 270.63L257.507 272.36L246.13 274.476C240.355 276.067 235.193 278.955 231.123 283.341L226.209 289.832L218.809 289.372L200.894 286.488C193.29 284.905 186.115 282.546 179.147 279.186L173.037 275.464L181.659 276.175C185.548 276.495 188.68 272.437 188.24 267.927C188.028 265.742 186.574 264.012 184.51 263.391L179.792 261.966C181.501 254.085 177.493 244.459 172.493 238.382C179.066 233.791 189.44 233.081 197.487 233.548C204.026 233.93 210.264 234.826 216.691 235.895L225.148 236.95C227.107 237.193 228.971 236.857 230.865 236.104C231.212 236.784 231.721 237.181 232.366 237.135C232.813 237.1 233.669 236.749 233.835 236.108L235.544 229.586L240.259 215.972C240.571 215.072 240.193 214.327 239.61 214.045C238.943 213.721 238.013 213.879 237.643 214.648L235.942 218.15C234.217 222.339 232.913 226.528 231.714 230.946C229.789 232.683 227.32 233.61 224.739 233.258L217.482 232.274L199.837 229.911C192.9 229.332 186.13 229.667 179.41 231.351C175.903 232.227 170.741 234.274 168.84 237.143C168.164 237.181 167.57 236.996 167.034 236.645C169.067 231.169 171.879 226.266 175.17 221.439C178.538 216.501 182.18 212.038 186.562 208.03C187.26 207.393 187.314 206.393 186.871 205.786C186.358 205.084 185.277 204.84 184.46 205.454C181.952 207.35 179.877 209.574 177.797 212.03C171.598 219.347 166.71 227.474 162.872 236.355L156.379 236.919C148.231 238.367 141.021 244.1 139.478 252.274L125.069 249.128L123.553 243.305C123.785 242.517 124.29 241.911 124.923 241.409C127.237 239.571 129.641 238.104 132.283 236.71L147.896 228.451C154.234 224.748 159.936 220.582 165.225 215.509L175.726 205.435L183.464 198.968C187.951 195.786 192.97 193.724 198.425 192.898C199.833 192.686 201.106 192.608 202.649 192.871C201.125 194.751 200.442 196.778 201.16 198.96C201.785 200.863 203.397 202.315 205.596 202.817C213.883 204.717 222.362 198.358 228.234 192.682L232.859 187.156C234.939 185.96 238.121 185.905 240.498 186.295C247.172 187.392 253.036 190.427 258.263 194.524C261.638 197.168 264.246 200.145 266.623 203.717C270.037 208.852 273.046 214.099 275.272 219.864L279.357 230.444C281.193 235.2 282.239 240.062 282.929 245.12C284.187 254.348 281.865 263.869 274.45 269.684H274.442ZM314.775 273.29C305.795 270.279 296.779 269.804 287.335 269.858L279.92 269.785C285.734 263.035 287.705 253.753 286.56 244.985C285.908 239.988 284.746 235.359 283.196 230.44C285.873 231.563 289.441 228.845 290.799 226.667L292.937 223.25C294.333 225.158 296.362 226.44 298.611 226.146C302.396 225.66 307.114 221.548 309.899 218.567C313.919 214.265 316.342 208.852 316.319 202.667C319.559 203.176 322.614 204.466 325.276 206.489C330.102 210.161 331.387 215.976 331.418 221.926C331.507 240.552 325.963 258.035 317.958 274.762L314.779 273.287L314.775 273.29Z" fill="var(--fill-0, #020202)"/>
<path id="Vector_2" d="M160.376 149.526C162.27 149.646 163.886 150.372 165.333 151.472C161.309 152.032 160.46 155.986 161.444 159.642C162.158 162.295 163.331 164.75 165.348 166.611C166.509 167.681 167.952 168.573 169.588 168.5C172.377 168.368 174.163 165.808 173.939 163.075C173.673 159.835 172.396 156.928 170.383 154.325C171.077 153.723 171.467 152.792 170.946 152.043C168.959 149.171 166.22 147.113 162.902 146.128C157.193 144.437 151.499 147.692 150.091 153.487L147.136 152.638C146.329 152.406 145.847 153.329 145.812 154.001C145.72 155.889 147.942 156.186 150.01 156.897C149.998 160.244 151.333 163.94 153.52 162.754C155.557 161.654 152.189 158.561 154.002 153.65C154.986 150.978 157.513 149.341 160.376 149.526Z" fill="var(--fill-0, #020202)"/>
<path id="Vector_3" d="M199.887 144.445C198.039 143.213 195.778 142.977 194.035 144.259C190.231 147.055 192.029 153.711 194.625 157.665C195.578 159.113 196.862 160.279 198.637 160.889C201.7 161.947 204.883 159.881 205.307 156.673C205.94 151.931 203.81 147.059 199.883 144.445H199.887Z" fill="var(--fill-0, #020202)"/>
<path id="Vector_4" d="M187.951 147.688C188.04 148.808 188.807 149.603 189.799 149.603C192.36 149.595 190.887 145.31 192.966 142.225C195.254 138.827 199.52 137.526 203.544 138.668C207.151 139.696 210.639 142.649 211.969 145.989C212.359 146.974 213.378 147.449 214.292 147.132C216.757 146.286 214.701 142.379 212.602 139.981C214.3 137.892 215.685 135.251 213.817 134.572C211.969 133.904 211.78 136.352 209.983 137.587C206.349 135.143 202.009 133.989 197.696 134.892C191.658 136.159 187.473 141.587 187.959 147.684L187.951 147.688Z" fill="var(--fill-0, #020202)"/>
<path id="Vector_5" d="M183.36 127.653C183.738 127.853 184.425 127.884 184.872 127.514C190.651 122.73 196.203 127.054 196.7 124.606C196.812 124.062 196.461 123.595 195.879 123.297C192.391 121.525 188.352 121.324 185.007 123.363C183.912 124.031 182.924 124.853 182.735 126.158C182.646 126.792 182.863 127.386 183.356 127.649L183.36 127.653Z" fill="var(--fill-0, #020202)"/>
<path id="Vector_6" d="M148.004 137.753C148.548 137.97 149.038 137.746 149.485 137.267C154.3 132.12 157.675 135.626 158.562 133.44C158.871 132.684 158.528 131.819 157.71 131.433C155.758 130.51 153.621 130.757 151.68 131.684C148.015 133.429 146.279 137.074 148.004 137.757V137.753Z" fill="var(--fill-0, #020202)"/>
<path id="Vector_7" d="M181.867 170.218C182.508 170.218 182.77 169.55 182.805 169.113C182.893 167.916 180.795 167.75 181.424 165.878C181.941 164.337 183.746 164.905 184.147 163.936C184.398 163.326 184.209 162.7 183.785 162.268C183.464 161.943 182.836 161.646 182.191 161.789C179.661 162.345 178.009 164.951 178.654 167.492C179.039 169.017 180.305 170.214 181.871 170.218H181.867Z" fill="var(--fill-0, #020202)"/>
<path id="Vector_8" d="M192.53 172.905C191.11 172.361 190.628 175.511 187.083 175.604C186.477 175.619 186.026 176.145 186.084 176.681C186.126 177.071 186.539 177.635 187.284 177.762C189.799 178.187 192.164 176.569 193.109 174.334C193.379 173.697 193.008 173.09 192.53 172.905Z" fill="var(--fill-0, #020202)"/>
</g>
<path id="Vector_9" d="M62.4999 123.494L58.9777 117.243L54.5798 123.131C52.1957 126.324 47.7439 132.603 45.3212 131.471C44.5419 131.108 43.5273 129.958 43.6508 129.17L44.268 125.104C45.4369 121.737 47.2423 118.679 49.0285 115.637L43.1647 115.683C42.1076 115.691 40.8346 114.95 40.2906 114.15C37.8911 110.644 42.3777 108.656 46.7871 106.231C42.6362 104.289 36.0548 100.289 38.6781 98.1962C39.1564 97.8139 40.4835 97.3351 41.0969 97.5668L50.074 100.934C50.4636 100.073 51.5399 98.8757 52.4156 99.0919C53.3878 99.3352 54.3407 100.289 55.2781 101.111L55.6292 91.277C55.66 90.3581 56.2503 89.4275 56.8945 88.914C57.4732 88.4545 59.3558 88.5897 59.6721 89.4275L63.1904 98.8487C66.0143 95.3775 71.4808 89.6708 73.7491 91.3195C74.1118 91.582 74.5207 92.7829 74.3278 93.196L69.7255 102.996L77.9155 103.077C78.9456 103.088 80.3035 103.579 80.7549 104.331C81.1445 104.98 80.7201 106.876 79.8483 107.227L74.0192 109.556L83.2316 116.05C84.6049 117.019 85.4459 119.096 84.1189 120.309C83.4322 120.934 81.3683 120.695 80.4385 120.444L67.9085 117.108C70.5356 121.112 75.2228 129.205 72.804 131.888C72.2446 132.51 70.443 133.379 69.6792 132.773C66.5428 130.282 64.4866 127.023 62.4999 123.494ZM57.153 113.146C57.6275 112.231 58.6267 111.355 59.4406 111.532C60.2546 111.71 60.9375 112.579 61.2654 113.262L62.5963 116.038C62.9204 115.042 63.1634 114.231 63.4952 113.784C63.7806 113.397 65.073 112.98 65.6285 113.104L75.1379 115.216C71.9553 111.386 68.4293 112.339 67.3529 110.088C66.9517 109.251 67.5574 107.899 68.2017 107.127C67.3684 107.343 65.0576 107.166 64.9766 106.316C64.7142 103.555 66.674 101.868 67.4995 99.2425L63.4412 103.895C62.4459 105.034 60.8912 103.463 60.5633 102.521L58.8928 97.6826C58.5765 100.022 58.9276 102.44 58.4145 104.598C58.0017 106.332 55.0698 106.038 53.8546 105.787L50.7221 105.142C51.3239 106.501 51.1503 107.845 50.0277 108.513L44.2217 111.965C48.9629 112.664 53.6617 108.88 55.3707 110.93C55.8182 111.467 55.8105 112.71 55.3205 113.378L51.5978 118.471L48.2068 125.166L51.7328 121.05C53.8006 118.637 55.5906 116.154 57.153 113.146ZM68.9308 126.483C68.3174 124.147 66.9903 121.95 65.1039 120.17C66.1493 122.429 67.3337 124.405 68.9308 126.483Z" fill="var(--fill-0, black)"/>
<path id="Vector_10" d="M286.05 36.7077L284.453 41.0631L282.142 46.5304C281.791 47.3644 280.804 48.2563 279.978 48.3374C279.265 48.4069 277.687 47.5382 277.579 46.8084C276.853 41.9048 277.378 35.8583 278.917 31.1207C274.948 31.5029 271.128 32.1284 267.383 33.1825L257.048 36.0861C256.222 36.3177 254.903 36.283 254.382 35.8969C253.633 35.3447 253.016 34.1015 253.344 33.3756C253.842 32.2674 254.613 31.9663 255.721 31.5724C259.559 30.2133 263.019 28.3754 266.345 25.9429L259.733 20.6184L254.66 16.0159C254.177 15.5758 253.657 13.985 254.1 13.3672C254.991 12.1162 257.048 12.205 258.483 13.0081C263.444 15.7843 268.227 18.2747 273.887 20.5257L275.476 3.22018C275.615 1.71048 276.576 0.89192 278.011 0.00772225C279.508 -0.108112 280.43 1.25487 280.599 2.86109L282.258 18.4485C286.656 16.1163 290.603 14.5912 295.213 14.151L304.066 13.3093L305.787 14.0275C306.825 14.4599 305.968 17.07 304.363 17.8345L299.715 20.047L304.159 20.3481C305.143 20.4138 306.987 21.6184 306.489 22.7652C305.474 25.1089 302.782 26.0163 300.359 26.7113L302.967 29.5608C303.387 30.0203 302.782 31.7693 302.218 32.0512C301.532 32.3948 300.309 32.53 299.398 32.391L289.646 30.9044L286.039 36.7077H286.05ZM287.138 28.5762L289.584 26.9198L295.672 28.0549C295.429 27.1321 295.105 25.8193 295.591 25.4873L297.612 24.1011L293.982 24.468C293.477 24.5181 292.474 24.2015 292.142 23.8463C291.81 23.4911 291.509 22.3096 291.625 21.7613C291.991 20.0161 293.461 19.2747 295.128 18.0855L289.792 19.0894L281.525 22.7459C280.885 23.0278 279.403 21.9544 279.234 21.2362L278.072 16.2708L277.575 21.7729C277.44 23.2864 277.243 24.3598 275.704 24.9197C274.728 25.2749 273.555 23.8231 272.756 23.5413L266.561 21.3443L269.25 23.5992C269.948 24.1861 270.623 26.0549 270.577 26.9468L268.011 28.9198C272.938 27.9198 277.397 27.1283 282.385 27.0588C283.215 27.831 283.882 29.1669 283.905 30.1168C282.193 32.1786 281.382 34.7385 281.46 37.2251C283.199 34.113 284.191 30.584 287.142 28.5839L287.138 28.5762Z" fill="var(--fill-0, black)"/>
<path id="Vector_11" d="M373.985 116.1C373.649 118.452 371.323 118.131 369.942 118.131C364.961 118.131 360.872 117.212 356.37 114.733L355.579 126.448C355.475 128.004 354.788 129.375 353.504 129.614C351.953 129.904 350.456 129.216 349.839 127.641L347.482 121.618L345.456 116.177L334.462 114.108L324.007 114.177C323.347 114.181 322.773 112.421 322.969 111.795C323.999 108.494 331.379 107.142 336.205 105.66L331.649 99.2271L327.278 90.7403C326.916 90.0376 326.576 88.3889 326.924 87.8252L330.114 86.8599L332.992 89.7441L336.788 93.308L340.792 96.922L343.732 98.7792L345.094 89.694C345.279 88.4661 347.744 87.2653 348.986 87.7286C351.008 88.4816 351.594 93.5975 351.737 97.1652C351.787 98.4394 351.926 99.6055 352.62 100.578C356.702 99.9105 360.702 98.6672 364.73 99.4047L370.59 100.482C371.554 100.66 372.276 101.822 372.306 102.799C372.33 103.555 371.477 104.911 370.655 105.193L363.148 107.791L371.442 113.023C372.403 113.629 374.181 114.776 373.992 116.1H373.985ZM363.333 112.95L359.877 110.293C359.205 109.78 358.48 104.467 361.455 104.165C362.62 104.05 363.765 103.729 364.606 103.189L358.067 103.216C354.619 103.227 351.991 105.633 349.85 104.023C349.268 103.586 348.778 102.486 348.516 101.768C348.114 102.745 347.57 103.795 346.992 104.208C346.502 104.559 344.928 104.575 344.426 104.196L334.797 96.949C336.487 99.9298 338.447 102.571 340.553 104.803C341.865 104.498 343.4 104.613 344.318 105.285C344.677 105.544 345.175 106.741 344.831 106.938L343.655 107.606L332.903 110.251C336.31 110.579 339.037 110.695 342.1 111.444L348.836 113.092L351.328 119.367L352.196 113.061C352.339 112.027 353.118 110.807 353.959 110.339C356.127 109.135 359.333 112.394 363.329 112.961L363.333 112.95Z" fill="var(--fill-0, black)"/>
</g>
<defs>
<clipPath id="clip0_0_4">
<rect width="374" height="367" fill="white"/>
</clipPath>
</defs>
</svg>
