<svg width="132" height="132" viewBox="0 0 132 132" fill="none" xmlns="http://www.w3.org/2000/svg">
<rect width="132" height="132" rx="32" fill="white"/>
<path fill-rule="evenodd" clip-rule="evenodd" d="M57.3374 33.4832H42.3666C39.3781 33.4832 36.5119 34.6701 34.3984 36.7829C32.2848 38.8957 31.0969 41.7614 31.0958 44.7499V92.0916C31.0958 95.0808 32.2832 97.9476 34.3969 100.061C36.5106 102.175 39.3774 103.362 42.3666 103.362H89.7124C92.7016 103.362 95.5684 102.175 97.6821 100.061C99.7958 97.9476 100.983 95.0808 100.983 92.0916V72.2749L107.746 67.6374V92.0957C107.745 96.8781 105.844 101.464 102.463 104.846C99.081 108.228 94.4948 110.128 89.7124 110.129H42.3666C37.5842 110.128 32.998 108.228 29.6163 104.846C26.2346 101.464 24.3344 96.8781 24.3333 92.0957V44.7541C24.3327 42.3855 24.7987 40.0401 25.7048 37.8517C26.6108 35.6633 27.939 33.6749 29.6136 31.9999C31.2882 30.3249 33.2764 28.9962 35.4646 28.0897C37.6527 27.1831 39.9981 26.7166 42.3666 26.7166H61.3041L57.3374 33.4832Z" fill="black"/>
<path fill-rule="evenodd" clip-rule="evenodd" d="M90.25 16C90.8542 16 91.3667 16.4333 91.4959 17.025C92.6792 22.5263 95.4286 27.5678 99.4125 31.5417C103.387 35.5279 108.43 38.2788 113.933 39.4625C114.525 39.5917 114.958 40.1042 114.958 40.7125C114.955 41.0054 114.851 41.2882 114.665 41.5141C114.478 41.7399 114.22 41.8952 113.933 41.9542C108.432 43.1386 103.39 45.8895 99.4167 49.875C95.3785 53.9005 92.6088 59.0213 91.45 64.6042C91.3938 64.8819 91.2439 65.1318 91.0255 65.3123C90.8071 65.4928 90.5334 65.5929 90.25 65.5958C89.9667 65.5929 89.693 65.4928 89.4746 65.3123C89.2562 65.1318 89.1063 64.8819 89.05 64.6042C87.8913 59.0213 85.1216 53.9005 81.0834 49.875C77.0579 45.8368 71.9371 43.0671 66.3542 41.9083C66.0765 41.8521 65.8265 41.7022 65.6461 41.4838C65.4656 41.2654 65.3655 40.9917 65.3625 40.7083C65.3625 40.125 65.7792 39.625 66.3542 39.5083C71.9371 38.3496 77.0579 35.5799 81.0834 31.5417C85.0687 27.5681 87.8195 22.5266 89.0042 17.025C89.0633 16.7374 89.2192 16.4788 89.4459 16.2923C89.6727 16.1057 89.9565 16.0026 90.25 16Z" fill="black"/>
</svg>
