<svg width="60" height="60" viewBox="0 0 60 60" fill="none" xmlns="http://www.w3.org/2000/svg">
<g clip-path="url(#clip0_258_138)">
<path d="M30.001 60.0021C46.5701 60.0021 60.0021 46.5701 60.0021 30.001C60.0021 13.4319 46.5701 0 30.001 0C13.4319 0 0 13.4319 0 30.001C0 46.5701 13.4319 60.0021 30.001 60.0021Z" fill="#FFDD00"/>
<path d="M45.6257 45.6248C54.2544 36.996 54.2544 23.006 45.6257 14.3773C36.9969 5.74851 23.0069 5.74851 14.3781 14.3773C5.74939 23.006 5.74939 36.996 14.3781 45.6248C23.0069 54.2535 36.9969 54.2535 45.6257 45.6248Z" fill="#FFDD00"/>
<path d="M30.0015 53.1495C23.8182 53.1495 18.0044 50.7414 13.6337 46.3688C9.26108 41.9961 6.85303 36.1844 6.85303 30.001C6.85303 23.8177 9.26108 18.0039 13.6337 13.6333C18.0064 9.26062 23.8182 6.85257 30.0015 6.85257C36.1848 6.85257 41.9986 9.26062 46.3692 13.6333C50.7419 18.006 53.1499 23.8177 53.1499 30.001C53.1499 36.1844 50.7419 41.9982 46.3692 46.3688C41.9966 50.7414 36.1848 53.1495 30.0015 53.1495ZM30.0015 8.95679C24.3807 8.95679 19.0965 11.1452 15.1221 15.1196C11.1477 19.094 8.9593 24.3781 8.9593 29.999C8.9593 35.6198 11.1477 40.904 15.1221 44.8784C19.0965 48.8528 24.3807 51.0412 30.0015 51.0412C35.6223 51.0412 40.9065 48.8528 44.8809 44.8784C48.8553 40.904 51.0437 35.6198 51.0437 29.999C51.0437 24.3781 48.8553 19.094 44.8809 15.1196C40.9065 11.1452 35.6223 8.95679 30.0015 8.95679Z" fill="black"/>
<path d="M25.5361 35.7307C18.4187 35.7307 12.6274 29.9394 12.6274 22.8221C12.6274 22.2411 13.0996 21.7689 13.6806 21.7689C14.2615 21.7689 14.7337 22.2411 14.7337 22.8221C14.7337 28.7796 19.5806 33.6264 25.5381 33.6264C31.4956 33.6264 36.3425 28.7796 36.3425 22.8221C36.3425 22.2411 36.8147 21.7689 37.3956 21.7689C37.9766 21.7689 38.4488 22.2411 38.4488 22.8221C38.4488 29.9394 32.6576 35.7307 25.5402 35.7307H25.5361Z" fill="black"/>
<path d="M20.4574 27.2933C21.3384 27.2933 22.0525 24.9707 22.0525 22.1056C22.0525 19.2405 21.3384 16.9179 20.4574 16.9179C19.5765 16.9179 18.8623 19.2405 18.8623 22.1056C18.8623 24.9707 19.5765 27.2933 20.4574 27.2933Z" fill="black"/>
<path d="M28.7758 27.2933C29.6567 27.2933 30.3709 24.9707 30.3709 22.1056C30.3709 19.2405 29.6567 16.9179 28.7758 16.9179C27.8948 16.9179 27.1807 19.2405 27.1807 22.1056C27.1807 24.9707 27.8948 27.2933 28.7758 27.2933Z" fill="black"/>
</g>
<defs>
<clipPath id="clip0_258_138">
<rect width="60" height="60" fill="white"/>
</clipPath>
</defs>
</svg>
