<svg width="60" height="60" viewBox="0 0 60 60" fill="none" xmlns="http://www.w3.org/2000/svg">
<g clip-path="url(#clip0_258_146)">
<path d="M30.0002 58.9655C45.9974 58.9655 58.9657 45.9972 58.9657 30C58.9657 14.0028 45.9974 1.03448 30.0002 1.03448C14.003 1.03448 1.03467 14.0028 1.03467 30C1.03467 45.9972 14.003 58.9655 30.0002 58.9655Z" fill="white"/>
<path d="M43.9041 17.4466L43.9687 16.1736L43.0361 16.9909C43.168 17.3286 43.557 17.4885 43.9041 17.4466Z" fill="black"/>
<path d="M32.5179 24.3295C32.0612 24.2116 32.1657 24.8519 31.7545 25.0252C31.5114 25.1276 31.2693 25.1142 31.0753 24.9714C31.2517 24.7423 31.4079 24.4909 31.4462 24.2074C31.4736 24.0011 31.3138 23.8293 31.1493 23.818C30.9905 23.8071 30.8327 23.894 30.7976 24.0993C30.7624 24.3042 30.5224 24.6585 30.2627 24.5907C29.071 24.2809 27.826 24.7143 27.2705 25.8388C27.1789 26.024 27.3253 26.2267 27.4826 26.2614C27.6957 26.308 27.795 26.2247 27.9083 26.0555C28.2641 25.5238 28.8734 25.1933 29.5381 25.2166C28.8791 26.1693 29.0777 27.5592 29.8495 28.3092C30.1272 28.5792 30.479 28.7193 30.8421 28.6686C31.186 28.6205 31.4891 28.3899 31.6831 28.0433C31.9696 27.5317 31.9479 26.983 31.9122 26.4269C31.8977 26.1999 31.8869 26.0173 31.7772 25.7809C32.2608 25.6438 32.6498 25.2492 32.7502 24.7443C32.7874 24.5571 32.6829 24.3724 32.5184 24.33L32.5179 24.3295Z" fill="black"/>
<path d="M22.1814 28.7038C21.9156 28.1566 21.4692 27.719 20.9152 27.4826C20.1916 27.1738 19.4147 27.2783 18.7956 27.7464C18.4149 27.7821 18.2597 27.3321 17.9504 27.5462C17.8707 27.6016 17.8009 27.7867 17.8418 27.9073C17.909 28.1048 18.0807 28.2269 18.2587 28.3304C18.119 28.6092 17.7818 28.6402 17.5428 28.4623C17.4135 28.3661 17.1994 28.3661 17.112 28.4757C17.0054 28.6097 16.9909 28.7974 17.1507 28.9423C17.4487 29.2133 18.177 29.4197 18.4904 29.0483C18.8939 28.5693 19.2368 28.063 19.9159 28.0221C19.3682 28.9164 19.7152 30.344 20.5149 30.9223C21.028 31.2931 21.6978 31.1452 21.9999 30.5938C22.244 30.148 22.2601 29.67 22.1866 29.1595L22.1804 28.7038H22.1814Z" fill="black"/>
<path d="M25.8485 22.2057C25.9742 22.3154 26.1676 22.2869 26.2949 22.1695C26.958 21.5581 27.8611 21.4138 28.73 21.6967C28.8878 21.748 29.0616 21.5824 29.0807 21.464C29.0999 21.3471 29.0212 21.1686 28.8816 21.1112C27.8269 20.6793 26.6218 20.9333 25.8314 21.7521C25.7083 21.8793 25.7378 22.1085 25.849 22.2052L25.8485 22.2057Z" fill="black"/>
<path d="M28.6914 33.539C28.5932 33.4847 28.3868 33.5028 28.3149 33.5943C27.9854 34.0112 27.597 34.3252 27.0901 34.4954C26.3908 34.7302 25.7959 34.3376 25.768 34.8336C25.7452 35.2345 26.654 35.249 27.1795 35.099C28.242 34.7964 29.1347 33.7836 28.6914 33.539Z" fill="black"/>
<path d="M17.8315 25.2031C17.9831 25.2693 18.1496 25.2135 18.2396 25.0754C18.6431 24.4567 19.3512 24.0642 20.1239 24.1102C20.3856 24.1257 20.5201 23.9819 20.4984 23.7699C20.4415 23.2092 18.5168 23.3762 17.7234 24.7635C17.636 24.9161 17.7224 25.1555 17.831 25.2031H17.8315Z" fill="black"/>
<path d="M24.5294 31.8047L24.0189 31.3366C23.9356 31.2605 24.0225 31.0283 24.1037 30.9471C24.3763 30.6745 24.5677 30.3761 24.5889 29.9943C24.5998 29.7983 24.4436 29.6359 24.2698 29.6478C24.0867 29.6602 24.007 29.7967 23.9801 30.0016C23.9196 30.4567 23.3227 30.6492 23.3558 31.2605C23.3693 31.513 23.5219 31.7628 23.7391 31.9469L24.185 32.325C24.3267 32.4455 24.5558 32.4197 24.6556 32.249C24.7306 32.1202 24.6794 31.9417 24.53 31.8052L24.5294 31.8047Z" fill="black"/>
<path d="M49.2701 51.2297L49.1982 51.1242L49.265 51.2411C49.2707 51.2374 49.2732 51.2338 49.2707 51.2297H49.2701Z" fill="black"/>
<path d="M54.2429 42.509C54.0733 40.5041 52.9757 38.6581 51.9278 36.961C51.1483 35.699 50.4123 34.4638 49.7636 33.1288C47.7842 29.0519 48.245 26.3472 47.2064 22.7007L45.8766 18.029C45.47 16.6003 44.8917 15.2778 44.1992 13.964C42.1488 10.0738 38.9745 7.30345 34.8495 5.78741C32.63 4.97172 30.7064 4.51862 28.3276 4.44776C25.9886 4.37793 24.0547 4.93707 22.039 6.06414C21.56 6.33207 21.1421 6.68327 20.734 7.04121C17.4123 7.41465 14.7066 10.546 13.1331 13.3505C12.4597 14.551 11.8871 15.7557 11.4071 17.055C10.4305 19.7002 9.9014 22.4607 9.79278 25.2848C9.71726 27.2426 9.97588 29.114 10.5386 30.974C11.2659 33.3781 10.5195 35.3503 9.23467 37.3826C8.80174 38.0674 8.39364 38.7197 8.04502 39.4526C6.9826 41.686 6.60864 44.7326 8.76398 46.2874C9.23364 46.9733 9.64536 47.6457 10.4 48.0869C11.0848 48.4872 11.8281 48.7588 12.6826 48.6538C12.1012 50.6043 11.8436 52.2853 13.235 53.8764L12.9252 53.7134C13.0829 53.8159 13.2531 53.9245 13.4331 54.0378C13.4336 54.0367 13.4342 54.0362 13.4347 54.0352L14.2054 54.5105C14.2928 54.5622 14.3812 54.6145 14.4712 54.6672C14.7811 54.6972 14.9626 54.8203 15.274 54.7221C14.2276 53.9798 13.7931 52.7643 14.09 51.4981C14.3145 52.8434 15.1276 54.0279 16.4419 54.5488L17.6026 51.7536C19.1026 48.5653 20.9916 46.1824 24.2554 44.7L25.9576 44.0116L23.8545 45.179C22.1911 46.1022 20.7629 47.3359 19.6535 48.885C18.2181 50.8898 17.1795 53.4269 16.4057 55.711C16.4042 55.7152 16.4026 55.7198 16.4011 55.724C16.4269 55.7307 16.4523 55.7384 16.4776 55.7462C16.7776 55.8347 17.0657 55.9728 17.3207 56.1145C17.3155 56.1197 17.3114 56.1238 17.3067 56.1284C17.4148 56.1755 17.5229 56.2215 17.6316 56.2665L17.6579 56.2495L18.7912 56.6933L19.6028 57.0109C19.5986 57.0134 19.5945 57.016 19.5904 57.0186C19.7579 57.0745 19.9317 57.1309 20.1107 57.1872L20.1123 57.1857L21.1938 57.5064C23.4598 58.1312 26.404 58.6759 29.749 58.6603L30.0728 58.6572C30.5786 58.6495 31.0928 58.6288 31.6152 58.5936L34.0261 58.3288C34.3954 58.2724 34.7673 58.2083 35.1423 58.1359L36.1576 57.899C36.1576 57.899 36.1679 57.9078 36.1773 57.9155C36.3516 57.8752 36.5259 57.8333 36.7007 57.7893L36.7478 57.7536L36.8342 57.7293L36.9112 57.7071L36.9909 57.6838L37.0731 57.66L37.1538 57.6372L37.2366 57.6145L37.3167 57.5922L37.399 57.5695L37.4905 57.5576L37.6198 57.5405C37.8578 57.4717 38.0967 57.3993 38.3367 57.3233C38.3383 57.3171 38.3404 57.3119 38.3414 57.3057L39.139 57.0284L40.3457 56.5717L40.3829 56.5857C40.4285 56.5671 40.474 56.5484 40.52 56.5298C40.52 56.5205 40.519 56.5117 40.519 56.506L41.5959 56.0338C41.6285 56.0193 41.7169 55.9795 41.7386 55.9976C41.9073 55.9195 42.0759 55.8388 42.2445 55.7565L43.7693 54.9559C43.7693 54.9559 43.7704 54.9564 43.7704 54.9569C45.5771 53.9436 47.3942 52.6826 49.1952 51.1247C48.8445 50.2924 48.4855 49.5067 48.0123 48.7391C47.1454 47.3317 45.9852 46.2062 44.569 45.3559L42.5636 44.3131L40.2588 43.2724L40.3736 43.1855L39.6102 42.6636C38.179 41.3607 37.8221 39.4117 38.2685 37.5584C38.4371 36.8576 38.7045 36.2136 39.0179 35.566C39.2848 35.0152 39.5248 34.4741 39.8719 33.961C39.4736 34.9552 38.9936 35.8309 38.6786 36.8276C38.0316 38.8733 38.2498 41.16 39.8776 42.599L40.7274 43.35C43.7879 44.3529 46.5614 45.6336 48.2869 48.4965C49.4838 47.2562 50.0088 45.6926 50.046 44.0069C50.0673 43.934 50.1055 43.7969 50.0823 43.9257C50.33 44.835 50.3797 45.6998 50.181 46.5662C49.9876 47.3364 49.6943 48.0274 49.1724 48.6274C49.1662 48.7164 49.1698 48.8214 49.2123 48.8617C49.2459 48.8938 49.3917 48.9083 49.4393 48.8938C50.5907 48.5441 51.5171 47.7543 52.1419 46.7203C53.3854 44.6628 53 42.2033 51.9381 40.111L50.7148 38.069C48.8869 35.3312 48.4364 33.2209 48.1255 29.9333C48.1519 29.8334 48.1778 29.8334 48.1829 29.9333C48.4855 31.2734 48.9355 32.5065 49.5221 33.734C50.0864 34.9153 50.7624 35.9793 51.4219 37.1074L52.91 39.6522C53.9109 41.5888 54.32 43.589 53.5235 45.6828C54.1297 44.7528 54.3355 43.6257 54.2414 42.5105L54.2429 42.509ZM8.72209 41.7326C8.51467 42.4552 8.36829 43.1555 8.34605 43.9065C8.30726 44.6545 8.44278 45.331 8.71433 46.0795C7.13364 44.6172 7.43157 42.1903 8.20484 40.2812C8.5545 39.419 9.02881 38.6679 9.53829 37.8931C10.6178 36.2747 11.4366 34.7364 11.4904 32.7269C11.8209 33.9429 11.6807 35.2174 11.2033 36.4029C10.8955 37.1674 10.5066 37.844 10.1073 38.566C9.54088 39.5902 9.05364 40.6086 8.72209 41.7331V41.7326ZM10.9421 46.6562C10.1212 45.0947 10.2164 43.0893 10.9902 41.5071C10.5397 43.6614 10.9819 45.7991 12.3009 47.5221C12.4747 47.7983 12.6474 48.0341 12.7198 48.3993C11.9202 48.044 11.3388 47.4119 10.9421 46.6562ZM18.0904 44.7383C17.7242 45.4981 17.3952 46.2403 16.9033 46.9547C17.4035 45.8798 17.8943 44.8293 18.1395 43.6552L18.2983 42.1469C18.3464 40.92 18.1969 39.751 18.096 38.5241C18.3531 39.8121 18.5088 41.1197 18.5709 42.4541C18.6086 43.2729 18.4509 44.0214 18.0904 44.7383ZM39.3526 43.3143C38.1433 44.5872 36.7276 45.5855 35.1371 46.261C33.5828 46.9215 31.9302 47.1683 30.2461 46.8771C28.5966 46.5921 27.139 45.7324 26.765 44.0576C27.5667 43.7126 28.3079 43.3365 28.9907 42.8141C29.1764 42.6822 29.2498 42.4852 29.2674 42.2534C29.2674 41.6048 29.2178 40.9888 29.1179 40.3464C31.6028 39.9403 33.7705 38.5738 35.5488 36.765C35.5757 38.3415 35.6797 39.9388 36.5502 41.3224C37.2552 42.3264 38.2592 42.8343 39.3526 43.3143ZM43.4414 27.7288C42.7581 29.6793 40.7042 31.0516 38.6026 30.7707C38.3129 30.7319 38.2281 30.8731 38.1645 31.095C37.686 32.76 36.8331 34.2512 35.7361 35.5914C33.7917 37.9676 30.9407 39.7479 27.8114 39.8426C25.7766 39.9041 23.7738 39.4598 21.9655 38.5365C19.2433 37.1478 17.9347 35.0622 16.8614 32.2997C16.3379 30.9517 15.8817 29.626 15.5114 28.2274L15.2016 26.8665L17.3874 24.2752C18.5621 22.8822 19.5133 21.3574 20.3326 19.7302C21.1674 18.0724 21.7628 16.1322 21.8812 14.2536C23.9104 18.3041 28.3819 20.7388 32.6145 22.0329C34.1631 22.5067 35.6766 22.8729 37.2774 23.2334L37.7921 24.5788L37.6348 24.9429C37.5852 25.0572 37.6659 25.2672 37.7843 25.3071C37.94 25.3593 38.089 25.3009 38.1743 25.1503C38.6129 24.3776 39.2859 23.7662 40.1238 23.4895C41.3181 23.0953 42.5295 23.5464 43.1786 24.6212C43.7419 25.5543 43.8066 26.6855 43.4414 27.7283V27.7288ZM41.8974 19.7183L40.4885 22.7302L40.1502 22.7891L41.6295 19.604C41.6709 19.515 41.7619 19.4643 41.8442 19.4891C41.9073 19.5083 41.9326 19.6433 41.8974 19.7183ZM42.5967 19.9102L42.8383 20.025L41.5142 22.8145L41.2726 22.6997L42.5967 19.9102ZM44.2917 16.2347L43.9405 19.7348L42.3624 22.9847C42.2833 23.0152 42.1276 22.9443 42.0976 22.8626L43.6121 19.7457C42.7167 19.7772 41.9347 19.4053 41.3978 18.6864L39.3179 23.1403C39.1747 23.2428 39.019 23.3348 38.8643 23.4052L41.1733 18.42L43.7109 15.9491C43.8024 15.8602 44.0155 15.8353 44.12 15.8752C44.2131 15.9109 44.3052 16.1002 44.2917 16.2352V16.2347Z" fill="black"/>
<path d="M14.6001 54.794C14.6782 54.7981 14.673 54.7976 14.6001 54.794Z" fill="black"/>
<path d="M30 60C25.9505 60 22.0216 59.2066 18.3222 57.6419C14.7497 56.131 11.5417 53.9679 8.7869 51.2131C6.03207 48.4583 3.86897 45.2498 2.3581 41.6778C0.793448 37.9785 0 34.0495 0 30C0 25.9505 0.793448 22.0216 2.3581 18.3222C3.86897 14.7497 6.03207 11.5417 8.7869 8.7869C11.5417 6.03207 14.7497 3.86897 18.3222 2.3581C22.0216 0.793448 25.9505 0 30 0C34.0495 0 37.9785 0.793448 41.6778 2.3581C45.2503 3.86897 48.4583 6.03207 51.2131 8.7869C53.9679 11.5417 56.131 14.7497 57.6419 18.3222C59.2066 22.0216 60 25.9505 60 30C60 34.0495 59.2066 37.9785 57.6419 41.6778C56.131 45.2503 53.9679 48.4583 51.2131 51.2131C48.4583 53.9679 45.2498 56.131 41.6778 57.6419C37.9785 59.2066 34.0495 60 30 60ZM30 2.06897C26.2288 2.06897 22.5714 2.80707 19.1281 4.26362C15.8022 5.67052 12.8152 7.68466 10.2497 10.2497C7.68414 12.8147 5.67 15.8022 4.26362 19.1281C2.80759 22.5709 2.06897 26.2288 2.06897 30C2.06897 33.7712 2.80707 37.4286 4.26362 40.8719C5.67052 44.1978 7.68466 47.1848 10.2497 49.7503C12.8147 52.3159 15.8022 54.33 19.1281 55.7364C22.5709 57.1924 26.2288 57.931 30 57.931C33.7712 57.931 37.4286 57.1929 40.8719 55.7364C44.1978 54.3295 47.1848 52.3159 49.7503 49.7503C52.3159 47.1848 54.33 44.1978 55.7364 40.8719C57.1924 37.4291 57.931 33.7712 57.931 30C57.931 26.2288 57.1929 22.5714 55.7364 19.1281C54.3295 15.8022 52.3153 12.8152 49.7503 10.2497C47.1853 7.68414 44.1978 5.67 40.8719 4.26362C37.4291 2.80759 33.7712 2.06897 30 2.06897Z" fill="#0175E6"/>
</g>
<defs>
<clipPath id="clip0_258_146">
<rect width="60" height="60" fill="white"/>
</clipPath>
</defs>
</svg>
