<svg width="60" height="60" viewBox="0 0 60 60" fill="none" xmlns="http://www.w3.org/2000/svg">
<g clip-path="url(#clip0_258_121)">
<path d="M29.9995 58.6177C28.8549 58.6177 27.7491 58.3786 26.7401 57.9377C25.3537 57.3308 23.8525 57.0337 22.3389 57.0627C22.2864 57.0627 22.2325 57.0641 22.18 57.0641C19.8979 57.0641 17.83 56.1393 16.3482 54.6258C15.2797 53.5351 14.0288 52.6311 12.605 52.081C11.1785 51.5295 9.90684 50.5771 8.97104 49.3137C8.5384 48.7304 8.19145 48.1028 7.93435 47.449C7.37591 46.0336 6.52858 44.7522 5.43244 43.6962C4.64041 42.9332 3.99904 42.0043 3.56224 40.9496C3.13236 39.9115 2.92916 38.8195 2.9416 37.7372C2.96095 36.1988 2.68174 34.67 2.06525 33.2615C1.62292 32.251 1.38379 31.1438 1.38379 29.9993C1.38379 28.8548 1.62292 27.7476 2.06525 26.7372C2.68174 25.3273 2.96095 23.7998 2.9416 22.26C2.92778 21.1777 3.13236 20.0857 3.56224 19.0476C3.99904 17.993 4.64179 17.0627 5.43383 16.2997C6.52996 15.245 7.37729 13.9623 7.93573 12.5482C8.19421 11.8944 8.53978 11.2682 8.97243 10.6849C9.90822 9.42152 11.1799 8.46776 12.6078 7.91762C14.0315 7.36747 15.2825 6.46347 16.351 5.37425C17.8327 3.86067 19.9006 2.93593 22.1827 2.93593C22.2366 2.93593 22.2906 2.93593 22.3431 2.93731C23.8553 2.96634 25.3564 2.66777 26.7428 2.06234C27.7519 1.6214 28.8591 1.38227 30.0022 1.38227C31.1453 1.38227 32.2525 1.6214 33.2616 2.06234C34.648 2.66915 36.1491 2.96634 37.6613 2.93731C37.7153 2.93731 37.7678 2.93593 37.8217 2.93593C40.1038 2.93593 42.1717 3.86067 43.6535 5.37425C44.722 6.46486 45.9729 7.36886 47.3966 7.91762C48.8245 8.46914 50.0948 9.42152 51.0306 10.6849C51.4633 11.2682 51.8102 11.8944 52.0673 12.5482C52.6258 13.9623 53.4731 15.245 54.5692 16.3011C55.3613 17.0641 56.0026 17.993 56.4408 19.0476C56.8707 20.0857 57.0739 21.1777 57.0614 22.26C57.0421 23.7985 57.3213 25.3273 57.9378 26.7358C58.3801 27.7462 58.6193 28.8534 58.6193 29.9979C58.6193 31.1424 58.3801 32.251 57.9378 33.2615C57.3213 34.6714 57.0421 36.1988 57.0614 37.7372C57.0753 38.8195 56.8707 39.9115 56.4408 40.9496C56.004 42.0043 55.3613 42.9332 54.5692 43.6962C53.4731 44.7508 52.6258 46.0336 52.0673 47.449C51.8088 48.1028 51.4633 48.729 51.0306 49.3123C50.0948 50.5757 48.8231 51.5295 47.3953 52.0796C45.9715 52.6298 44.7206 53.5338 43.6521 54.623C42.1703 56.1366 40.1024 57.0613 37.8203 57.0613C37.7664 57.0613 37.7125 57.0613 37.6586 57.0599C36.1464 57.0309 34.6452 57.3295 33.2588 57.9349C32.2498 58.3758 31.1426 58.615 29.9995 58.615V58.6177Z" fill="#FF5500"/>
<path d="M29.9995 58.6177C28.8549 58.6177 27.7491 58.3786 26.7401 57.9377C25.3537 57.3308 23.8525 57.0337 22.3389 57.0627C22.2864 57.0627 22.2325 57.0641 22.18 57.0641C19.8979 57.0641 17.83 56.1393 16.3482 54.6258C15.2797 53.5351 14.0288 52.6311 12.605 52.081C11.1785 51.5295 9.90684 50.5771 8.97104 49.3137C8.5384 48.7304 8.19145 48.1028 7.93435 47.449C7.37591 46.0336 6.52858 44.7522 5.43244 43.6962C4.64041 42.9332 3.99904 42.0043 3.56224 40.9496C3.13236 39.9115 2.92916 38.8195 2.9416 37.7372C2.96095 36.1988 2.68174 34.67 2.06525 33.2615C1.62292 32.251 1.38379 31.1438 1.38379 29.9993C1.38379 28.8548 1.62292 27.7476 2.06525 26.7372C2.68174 25.3273 2.96095 23.7998 2.9416 22.26C2.92778 21.1777 3.13236 20.0857 3.56224 19.0476C3.99904 17.993 4.64179 17.0627 5.43383 16.2997C6.52996 15.245 7.37729 13.9623 7.93573 12.5482C8.19421 11.8944 8.53978 11.2682 8.97243 10.6849C9.90822 9.42152 11.1799 8.46776 12.6078 7.91762C14.0315 7.36747 15.2825 6.46347 16.351 5.37425C17.8327 3.86067 19.9006 2.93593 22.1827 2.93593C22.2366 2.93593 22.2906 2.93593 22.3431 2.93731C23.8553 2.96634 25.3564 2.66777 26.7428 2.06234C27.7519 1.6214 28.8591 1.38227 30.0022 1.38227C31.1453 1.38227 32.2525 1.6214 33.2616 2.06234C34.648 2.66915 36.1491 2.96634 37.6613 2.93731C37.7153 2.93731 37.7678 2.93593 37.8217 2.93593C40.1038 2.93593 42.1717 3.86067 43.6535 5.37425C44.722 6.46486 45.9729 7.36886 47.3966 7.91762C48.8245 8.46914 50.0948 9.42152 51.0306 10.6849C51.4633 11.2682 51.8102 11.8944 52.0673 12.5482C52.6258 13.9623 53.4731 15.245 54.5692 16.3011C55.3613 17.0641 56.0026 17.993 56.4408 19.0476C56.8707 20.0857 57.0739 21.1777 57.0614 22.26C57.0421 23.7985 57.3213 25.3273 57.9378 26.7358C58.3801 27.7462 58.6193 28.8534 58.6193 29.9979C58.6193 31.1424 58.3801 32.251 57.9378 33.2615C57.3213 34.6714 57.0421 36.1988 57.0614 37.7372C57.0753 38.8195 56.8707 39.9115 56.4408 40.9496C56.004 42.0043 55.3613 42.9332 54.5692 43.6962C53.4731 44.7508 52.6258 46.0336 52.0673 47.449C51.8088 48.1028 51.4633 48.729 51.0306 49.3123C50.0948 50.5757 48.8231 51.5295 47.3953 52.0796C45.9715 52.6298 44.7206 53.5338 43.6521 54.623C42.1703 56.1366 40.1024 57.0613 37.8203 57.0613C37.7664 57.0613 37.7125 57.0613 37.6586 57.0599C36.1464 57.0309 34.6452 57.3295 33.2588 57.9349C32.2498 58.3758 31.1426 58.615 29.9995 58.615V58.6177Z" fill="#FF5500" stroke="#DC4101" stroke-width="2.76453" stroke-miterlimit="10"/>
<path d="M51.0675 22.5448L37.1508 19.5452L29.9976 7.23754L22.8444 19.5452L8.92773 22.5448L18.4239 33.1509L16.9753 47.3122L29.9962 41.5592L43.0172 47.3122L41.5686 33.1509L51.0647 22.5448H51.0675ZM33.0897 23.5566C33.7435 23.5566 34.2743 24.1814 34.2743 24.9527C34.2743 25.724 33.7435 26.3487 33.0897 26.3487C32.4359 26.3487 31.9051 25.724 31.9051 24.9527C31.9051 24.1814 32.4359 23.5566 33.0897 23.5566ZM26.9096 23.5566C27.5634 23.5566 28.0942 24.1814 28.0942 24.9527C28.0942 25.724 27.5634 26.3487 26.9096 26.3487C26.2558 26.3487 25.725 25.724 25.725 24.9527C25.725 24.1814 26.2558 23.5566 26.9096 23.5566ZM29.999 34.6575C25.6241 34.6575 22.0648 31.0982 22.0648 26.7233C22.0648 26.1801 22.5043 25.7405 23.0476 25.7405C23.5908 25.7405 24.0304 26.1801 24.0304 26.7233C24.0304 30.0145 26.7078 32.6933 30.0004 32.6933C33.2929 32.6933 35.9704 30.0159 35.9704 26.7233C35.9704 26.1801 36.4099 25.7405 36.9532 25.7405C37.4964 25.7405 37.936 26.1801 37.936 26.7233C37.936 31.0982 34.3766 34.6575 30.0018 34.6575H29.999Z" fill="white"/>
<path d="M36.9519 25.7405C36.4086 25.7405 35.9691 26.1801 35.9691 26.7233C35.9691 30.0145 33.2916 32.6933 29.9991 32.6933C26.7065 32.6933 24.0291 30.0159 24.0291 26.7233C24.0291 26.1801 23.5895 25.7405 23.0463 25.7405C22.503 25.7405 22.0635 26.1801 22.0635 26.7233C22.0635 31.0982 25.6228 34.6575 29.9977 34.6575C34.3726 34.6575 37.9319 31.0982 37.9319 26.7233C37.9319 26.1801 37.4923 25.7405 36.9491 25.7405H36.9519Z" fill="#DC4101"/>
<path d="M26.9097 26.3501C27.5635 26.3501 28.0943 25.7253 28.0943 24.954C28.0943 24.1827 27.5635 23.5579 26.9097 23.5579C26.2559 23.5579 25.7251 24.1827 25.7251 24.954C25.7251 25.7253 26.2559 26.3501 26.9097 26.3501Z" fill="#DC4101"/>
<path d="M33.0899 26.3501C33.7437 26.3501 34.2745 25.7253 34.2745 24.954C34.2745 24.1827 33.7437 23.5579 33.0899 23.5579C32.4361 23.5579 31.9053 24.1827 31.9053 24.954C31.9053 25.7253 32.4361 26.3501 33.0899 26.3501Z" fill="#DC4101"/>
</g>
<defs>
<clipPath id="clip0_258_121">
<rect width="60" height="60" fill="white"/>
</clipPath>
</defs>
</svg>
