<svg width="39" height="44" viewBox="0 0 39 44" fill="none" xmlns="http://www.w3.org/2000/svg">
<g clip-path="url(#clip0_121_1972)">
<path d="M38.3595 11.5112V15.5453C38.3595 23.1584 35.5506 30.5413 30.35 36.1006C27.1805 39.4853 23.4881 42.1753 19.203 43.8327C19.1955 43.8308 19.1879 43.827 19.1785 43.8251V36.4404C19.1785 36.4404 19.1898 36.4442 19.1936 36.4442C22.0195 35.3531 24.4527 33.5786 26.5424 31.3473C29.9724 27.6833 31.8243 22.8149 31.8243 17.7954V15.1583L38.3595 11.5112Z" fill="#10B6ED"/>
<path d="M26.0724 18.4789V19.9286C26.0724 22.6639 25.0625 25.3162 23.1936 27.3153C22.0535 28.531 20.7264 29.4975 19.1879 30.094C19.1841 30.094 19.1822 30.094 19.1785 30.0902V22.2165L25.978 18.4222L26.0724 18.4789Z" fill="#CECDC7"/>
<path d="M38.3595 11.5112V15.5453C38.3595 23.1584 35.5506 30.5413 30.35 36.1006C27.1805 39.4853 23.4881 42.1753 19.203 43.8327C19.1955 43.8308 19.1879 43.827 19.1785 43.8251V36.4404C19.1785 36.4404 19.1898 36.4442 19.1936 36.4442C22.0195 35.3531 24.4527 33.5786 26.5424 31.3473C29.9724 27.6833 31.8243 22.8149 31.8243 17.7954V15.1583L38.3595 11.5112Z" fill="#1E6ADE"/>
<path d="M31.8247 15.1583V15.1376L19.1789 7.54708L6.53502 15.1376V15.1583L-0.000244141 11.5113L19.1789 0L38.36 11.5113L31.8247 15.1583Z" fill="#00FCE4"/>
<path d="M31.8243 15.1376V17.7955C31.8243 22.815 29.9724 27.6834 26.5424 31.3474C24.4527 33.5787 22.0195 35.3532 19.1936 36.4443C19.1898 36.4443 19.1841 36.4405 19.1785 36.4405V30.0902C19.1785 30.0902 19.1841 30.0921 19.1879 30.094C20.7264 29.4975 22.0535 28.531 23.1936 27.3153C25.0625 25.3162 26.0724 22.6639 26.0724 19.9286V18.4789L25.978 18.4222L19.1785 14.341V7.54712L31.8243 15.1376Z" fill="#10B6ED"/>
<path d="M12.2873 18.4789V19.9286C12.2873 22.6639 13.2972 25.3162 15.166 27.3153C16.3043 28.531 17.6314 29.4975 19.1718 30.094C19.1737 30.094 19.1774 30.094 19.1793 30.0902V36.4405C19.1793 36.4405 19.1699 36.4443 19.1642 36.4443C16.7196 35.5004 14.5695 34.045 12.6799 32.2233C12.3854 31.9421 12.0966 31.6476 11.8153 31.3474C11.5209 31.0322 11.2377 30.7075 10.9659 30.3753C8.08144 26.8452 6.5354 22.3827 6.5354 17.7955V15.1376L19.1793 7.54712V14.341L14.5487 17.1216L12.3817 18.4222L12.2873 18.4789Z" fill="#1E6ADE"/>
<path d="M19.1789 36.4404V43.8251C19.1789 43.8251 19.1638 43.8308 19.1563 43.8327C14.8712 42.1753 11.1788 39.4853 8.00933 36.1006C2.80868 30.5413 -0.000244141 23.1584 -0.000244141 15.5453V11.5112L6.53502 15.1583V17.7954C6.53502 22.3826 8.08106 26.8451 10.9655 30.3752C11.2373 30.7074 11.5205 31.0321 11.815 31.3473C12.0962 31.6475 12.3851 31.942 12.6795 32.2232C14.5691 34.0449 16.7192 35.5003 19.1638 36.4442C19.1695 36.4442 19.1733 36.4404 19.1789 36.4404Z" fill="#10B6ED"/>
<path d="M19.1789 22.2165V30.0902C19.1789 30.0902 19.1732 30.0921 19.1714 30.094C17.631 29.4975 16.3039 28.531 15.1656 27.3153C13.2968 25.3162 12.2869 22.6639 12.2869 19.9286V18.4789L12.3813 18.4222L19.1789 22.2165Z" fill="#E7E7E7"/>
<path d="M26.0501 18.4996L19.1788 22.2165L12.2698 18.4996L14.5482 17.1215L19.1788 14.3409L26.0501 18.4996Z" fill="white"/>
</g>
<defs>
<clipPath id="clip0_121_1972">
<rect width="38.3603" height="43.8327" fill="white"/>
</clipPath>
</defs>
</svg>
