<svg preserveAspectRatio="none" width="100%" height="100%" overflow="visible" style="display: block;" viewBox="0 0 49.6887 16.0015" fill="none" xmlns="http://www.w3.org/2000/svg">
<g id="Group">
<path id="Vector" d="M0.201675 15.7573V14.5824L6.37412 7.80246C6.85844 7.27125 7.23676 6.80218 7.5091 6.39527C7.78143 5.98983 7.97133 5.60806 8.08174 5.25442C8.19215 4.89929 8.24661 4.52344 8.24661 4.12393C8.24661 3.34116 7.94189 2.69453 7.33098 2.18552C6.72153 1.6765 5.94575 1.42051 5.00509 1.42051C4.28524 1.42051 3.61691 1.56108 2.99863 1.84075C2.38183 2.12189 1.68995 2.60871 0.925938 3.30269L0 2.1944C0.808174 1.45603 1.62371 0.905577 2.4466 0.54305C3.2695 0.180523 4.12919 0 5.02569 0C5.92219 0 6.77453 0.173125 7.49438 0.520855C8.21422 0.868584 8.78098 1.34505 9.19169 1.95025C9.6024 2.55544 9.80849 3.2509 9.80849 4.03366C9.80849 4.55156 9.74225 5.02802 9.60976 5.46305C9.47728 5.89957 9.24174 6.36419 8.90463 6.85841C8.56753 7.35263 8.08174 7.94747 7.45021 8.64145L2.18162 14.3797L10.1397 14.3575V15.7529H0.197259L0.201675 15.7573Z" fill="var(--fill-0, white)"/>
<path id="Vector_2" d="M18.4305 16.0015C17.2543 16.0015 16.215 15.6611 15.3111 14.982C14.4073 14.3028 13.6977 13.3602 13.184 12.1572C12.6688 10.9527 12.4126 9.56922 12.4126 8.00222C12.4126 6.43522 12.6702 5.03246 13.184 3.83686C13.6992 2.63979 14.4073 1.70314 15.3111 1.02247C16.215 0.34329 17.2543 0.0029594 18.4305 0.0029594C19.6067 0.0029594 20.646 0.34329 21.5498 1.02247C22.4537 1.70166 23.1632 2.63979 23.677 3.83686C24.1907 5.03394 24.4484 6.4219 24.4484 8.00222C24.4484 9.58254 24.1907 10.9527 23.677 12.1572C23.1618 13.3617 22.4537 14.3028 21.5498 14.982C20.646 15.6611 19.6067 16.0015 18.4305 16.0015ZM18.4305 14.5617C19.327 14.5617 20.1028 14.2924 20.7564 13.7538C21.41 13.2152 21.9208 12.4546 22.2888 11.4721C22.6568 10.4896 22.8394 9.33395 22.8394 8.0037C22.8394 6.67345 22.6554 5.5178 22.2888 4.53528C21.9208 3.55276 21.41 2.79219 20.7564 2.25358C20.1028 1.71497 19.327 1.44419 18.4305 1.44419C17.534 1.44419 16.7773 1.71349 16.1164 2.25358C15.4554 2.79219 14.9402 3.55424 14.5736 4.53528C14.2056 5.5178 14.0231 6.67345 14.0231 8.0037C14.0231 9.33395 14.2071 10.4896 14.5736 11.4721C14.9416 12.4546 15.4554 13.2152 16.1164 13.7538C16.7773 14.2939 17.5487 14.5617 18.4305 14.5617Z" fill="var(--fill-0, white)"/>
<path id="Vector_3" d="M26.2782 15.7573V14.5824L32.4506 7.80246C32.9349 7.27125 33.3133 6.80218 33.5856 6.39527C33.8579 5.98983 34.0478 5.60806 34.1582 5.25442C34.2686 4.89929 34.3231 4.52344 34.3231 4.12393C34.3231 3.34116 34.0184 2.69453 33.4075 2.18552C32.798 1.6765 32.0222 1.42051 31.0816 1.42051C30.3617 1.42051 29.6934 1.56108 29.0751 1.84075C28.4583 2.12189 27.7664 2.60871 27.0024 3.30269L26.0765 2.1944C26.8847 1.45603 27.7002 0.905577 28.5231 0.54305C29.346 0.180523 30.2057 0 31.1022 0C31.9987 0 32.851 0.173125 33.5709 0.520855C34.2907 0.868584 34.8575 1.34505 35.2682 1.95025C35.6789 2.55544 35.885 3.2509 35.885 4.03366C35.885 4.55156 35.8187 5.02802 35.6863 5.46305C35.5538 5.89957 35.3182 6.36419 34.9811 6.85841C34.644 7.35263 34.1582 7.94747 33.5267 8.64145L28.2581 14.3797L36.2162 14.3575V15.7529H26.2738L26.2782 15.7573Z" fill="var(--fill-0, white)"/>
<path id="Vector_4" d="M45.9864 15.7573V11.6142H37.6544V10.3505L45.8539 0.24711H47.5512V10.2173H49.6887V11.6127H47.5512V15.7558H45.9864V15.7573ZM39.5063 10.2173H45.9864V2.17516L39.5063 10.2188V10.2173Z" fill="var(--fill-0, white)"/>
</g>
</svg>
