<svg preserveAspectRatio="none" width="100%" height="100%" overflow="visible" style="display: block;" viewBox="0 0 530.845 216.546" fill="none" xmlns="http://www.w3.org/2000/svg">
<g id="Group 9">
<path id="Vector 12" d="M0.432233 94.046L6.82878 105.046L15.0529 114.546L20.5357 100.046L28.7598 97.546L41.5529 142.046C44.7512 136.879 52.1529 125.346 56.1736 120.546C60.1943 115.746 63.0271 111.879 63.9409 110.546C67.7483 104.546 76.8253 90.446 82.6736 82.046C89.984 71.546 87.2426 31.546 89.984 43.046C92.7253 54.546 95.9236 84.5457 96.8374 77.0457C97.5684 71.0457 101.406 46.5457 103.234 35.0457L110.087 29.0457C111.915 29.0457 115.844 29.0457 116.941 29.0457C118.037 29.0457 121.358 22.7124 122.881 19.5457L151.208 48.5457C155.625 44.5457 165.006 36.9457 167.199 38.5457C169.941 40.5457 173.139 48.5457 178.622 48.5457C184.105 48.5457 193.243 44.5457 195.527 48.5457C197.812 52.5457 199.639 53.5457 204.665 53.0457C209.691 52.5457 216.087 48.5457 217.458 48.5457C218.555 48.5457 223.398 48.5457 225.682 48.5457L233.449 43.046H238.932C241.369 48.0459 247.522 57.5457 252.639 55.5457C259.036 53.0457 266.803 51.0462 268.631 43.046C270.093 36.6458 277.464 13.0457 280.967 2.04575C282.337 0.879079 285.627 -0.754254 287.82 2.04575C290.013 4.84575 297.567 8.54566 301.07 10.0456C302.898 7.54562 306.736 2.94562 307.467 4.54562C308.381 6.54562 314.32 38.5456 318.889 39.0456C323.458 39.5456 329.855 27.0456 330.312 32.5456C330.677 36.9456 332.901 93.0458 333.967 120.546L342.191 136.046H363.208L376.001 119.046L390.622 141.046L398.389 123.046L403.872 129.546C406.004 127.212 410.543 122.846 411.639 124.046C412.736 125.246 423.975 136.212 429.458 141.546L439.053 141.046C443.47 157.879 453.399 191.046 457.786 189.046C463.268 186.546 463.268 181.046 466.01 181.046C468.751 181.046 471.493 182.546 472.406 181.046C473.137 179.846 477.585 169.212 479.717 164.046C481.697 163.046 486.022 161.446 487.484 163.046C489.312 165.046 492.967 168.046 493.424 167.546C493.881 167.046 499.363 150.046 500.277 151.046C501.191 152.046 506.674 153.546 507.587 157.046C508.501 160.546 517.182 194.546 519.924 189.546C522.665 184.546 524.949 160.046 529.062 164.046L530.432 166.046" stroke="#E5340C"/>
<path id="Vector 13" d="M6.82878 105.092L0.432233 94.0919V216.546H530.432V166.092L529.062 164.092C524.949 160.092 522.665 184.592 519.924 189.592C517.182 194.592 508.501 160.592 507.587 157.092C506.674 153.592 501.191 152.092 500.277 151.092C499.363 150.092 493.881 167.092 493.424 167.592C492.967 168.092 489.312 165.092 487.484 163.092C486.022 161.492 481.697 163.092 479.717 164.092C477.585 169.258 473.137 179.892 472.406 181.092C471.493 182.592 468.751 181.092 466.01 181.092C463.268 181.092 463.268 186.592 457.786 189.092C453.399 191.092 443.47 157.925 439.053 141.092L429.458 141.592C423.975 136.258 412.736 125.292 411.639 124.092C410.543 122.892 406.004 127.258 403.872 129.592L398.389 123.092L390.622 141.092L376.001 119.092L363.208 136.092H342.191L333.967 120.592C332.901 93.0917 330.677 36.9915 330.312 32.5915C329.855 27.0915 323.458 39.5915 318.889 39.0915C314.32 38.5915 308.381 6.59152 307.467 4.59152C306.736 2.99152 302.898 7.59152 301.07 10.0915C297.567 8.59156 290.013 4.89164 287.82 2.09164C285.627 -0.708355 282.337 0.924978 280.967 2.09164C277.464 13.0916 270.093 36.6917 268.631 43.0919C266.803 51.0921 259.036 53.0916 252.639 55.5916C247.522 57.5916 241.369 48.0918 238.932 43.0919H233.449L225.682 48.5916H217.458C216.087 48.5916 209.691 52.5916 204.665 53.0916C199.639 53.5916 197.812 52.5916 195.527 48.5916C193.243 44.5916 184.105 48.5916 178.622 48.5916C173.139 48.5916 169.941 40.5916 167.199 38.5916C165.006 36.9916 155.625 44.5916 151.208 48.5916L122.881 19.5916C121.358 22.7583 118.037 29.0916 116.941 29.0916H110.087L103.234 35.0916C101.406 46.5916 97.5684 71.0916 96.8374 77.0916C95.9236 84.5916 92.7253 54.5919 89.984 43.0919C87.2426 31.5919 89.984 71.5919 82.6736 82.0919C76.8253 90.4919 67.7483 104.592 63.9409 110.592C63.0271 111.925 60.1943 115.792 56.1736 120.592C52.1529 125.392 44.7512 136.925 41.5529 142.092L28.7598 97.5919L20.5357 100.092L15.0529 114.592L6.82878 105.092Z" fill="url(#paint0_linear_0_12)"/>
</g>
<defs>
<linearGradient id="paint0_linear_0_12" x1="265.432" y1="0.54562" x2="265.432" y2="216.546" gradientUnits="userSpaceOnUse">
<stop stop-color="#E5340C" stop-opacity="0.2"/>
<stop offset="1" stop-color="#E5340C" stop-opacity="0"/>
</linearGradient>
</defs>
</svg>
