<svg preserveAspectRatio="none" width="100%" height="100%" overflow="visible" style="display: block;" viewBox="0 0 24 30.4" fill="none" xmlns="http://www.w3.org/2000/svg">
<g id="Layer_1" clip-path="url(#clip0_0_17)">
<path id="Vector" d="M22.2153 15.5839H16.2378V22.3358C16.2378 22.8633 15.776 23.2917 15.2059 23.2917H8.88245C8.31396 23.2917 7.85216 22.8633 7.85216 22.3358V16.4691C7.85216 15.9402 8.31396 15.5118 8.88245 15.5118H16.2378V9.66624C16.2378 8.75136 15.4391 8.01042 14.453 8.01042H7.85216V1.1496C7.85216 0.514703 7.29739 0 6.61307 0H1.23909C0.554772 0 0 0.514703 0 1.1496V28.7456C0 29.6591 0.798628 30.4 1.78472 30.4H15.4178C15.8948 30.4 16.3521 30.2232 16.6874 29.9079L23.4849 23.5166C23.8141 23.2069 24 22.7897 24 22.3542V17.2397C24 16.3249 23.2014 15.5839 22.2153 15.5839Z" fill="white"/>
</g>
<defs>
<clipPath id="clip0_0_17">
<rect width="24" height="30.4" fill="white"/>
</clipPath>
</defs>
</svg>
