<svg preserveAspectRatio="none" width="100%" height="100%" overflow="visible" style="display: block;" viewBox="0 0 21.6055 21.526" fill="none" xmlns="http://www.w3.org/2000/svg">
<path id="Vector" d="M10.8025 0C4.83651 0 0 4.83651 0 10.8025C0 15.8685 3.48792 20.1195 8.19307 21.287V14.1038H5.96559V10.8025H8.19307V9.38005C8.19307 5.7033 9.85709 3.9991 13.4669 3.9991C14.1513 3.9991 15.3322 4.13348 15.8153 4.26743V7.25973C15.5604 7.23294 15.1175 7.21955 14.5674 7.21955C12.7962 7.21955 12.1118 7.8906 12.1118 9.63499V10.8025H15.6403L15.0341 14.1038H12.1118V21.526C17.4608 20.88 21.6055 16.3256 21.6055 10.8025C21.6051 4.83651 16.7686 0 10.8025 0Z" fill="white"/>
</svg>
