<svg preserveAspectRatio="none" width="100%" height="100%" overflow="visible" style="display: block;" viewBox="0 0 21.6051 21.6051" fill="none" xmlns="http://www.w3.org/2000/svg">
<path id="Vector" fill-rule="evenodd" clip-rule="evenodd" d="M21.6051 10.8025C21.6051 16.7686 16.7686 21.6051 10.8025 21.6051C4.83646 21.6051 0 16.7686 0 10.8025C0 4.83646 4.83646 0 10.8025 0C16.7686 0 21.6051 4.83646 21.6051 10.8025ZM11.1896 7.9749C10.1389 8.41193 8.03901 9.31646 4.88985 10.6885C4.37847 10.8918 4.11059 11.0908 4.08621 11.2853C4.04499 11.6141 4.45668 11.7435 5.0173 11.9198C5.09356 11.9438 5.17257 11.9686 5.25357 11.995C5.80513 12.1742 6.54708 12.384 6.93278 12.3923C7.28266 12.3999 7.67315 12.2556 8.10427 11.9596C11.0466 9.97344 12.5655 8.96953 12.6608 8.94789C12.7281 8.93262 12.8213 8.91342 12.8845 8.96956C12.9477 9.0257 12.9415 9.13203 12.9348 9.16055C12.894 9.33441 11.278 10.8368 10.4417 11.6143C10.1809 11.8567 9.99601 12.0286 9.9582 12.0679C9.87352 12.1559 9.78721 12.2391 9.70426 12.319C9.19184 12.813 8.80758 13.1834 9.72553 13.7883C10.1667 14.079 10.5197 14.3194 10.8718 14.5592C11.2564 14.8211 11.64 15.0824 12.1363 15.4077C12.2627 15.4906 12.3835 15.5767 12.5011 15.6605C12.9487 15.9796 13.3508 16.2663 13.8476 16.2206C14.1362 16.194 14.4344 15.9226 14.5858 15.1131C14.9437 13.1999 15.6471 9.05473 15.8097 7.3466C15.8239 7.19694 15.806 7.00541 15.7916 6.92134C15.7772 6.83726 15.7472 6.71747 15.6379 6.62879C15.5085 6.52377 15.3087 6.50162 15.2193 6.5032C14.813 6.51036 14.1896 6.72711 11.1896 7.9749Z" fill="white"/>
</svg>
