<svg preserveAspectRatio="none" width="100%" height="100%" overflow="visible" style="display: block;" viewBox="0 0 15 19" fill="none" xmlns="http://www.w3.org/2000/svg">
<g id="Layer_1" clip-path="url(#clip0_0_16)">
<path id="Vector" d="M13.8845 9.73994H10.1486V13.9599C10.1486 14.2895 9.85997 14.5573 9.50371 14.5573H5.55153C5.19623 14.5573 4.9076 14.2895 4.9076 13.9599V10.2932C4.9076 9.96265 5.19623 9.69487 5.55153 9.69487H10.1486V6.0414C10.1486 5.4696 9.64946 5.00651 9.03315 5.00651H4.9076V0.718499C4.9076 0.321689 4.56087 0 4.13317 0H0.774433C0.346733 0 0 0.321689 0 0.718499V17.966C0 18.5369 0.499143 19 1.11545 19H9.63612C9.93427 19 10.22 18.8895 10.4296 18.6924L14.678 14.6978C14.8838 14.5043 15 14.2436 15 13.9714V10.7748C15 10.203 14.5009 9.73994 13.8845 9.73994Z" fill="white"/>
</g>
<defs>
<clipPath id="clip0_0_16">
<rect width="15" height="19" fill="white"/>
</clipPath>
</defs>
</svg>
