<svg preserveAspectRatio="none" width="100%" height="100%" overflow="visible" style="display: block;" viewBox="0 0 21.6051 15.1953" fill="none" xmlns="http://www.w3.org/2000/svg">
<path id="Vector" d="M21.3899 3.27874C21.3899 3.27874 21.1789 1.78917 20.529 1.13511C19.7062 0.274283 18.7863 0.270063 18.3643 0.219426C15.343 -1.20728e-07 10.8068 0 10.8068 0H10.7983C10.7983 0 6.26209 -1.20728e-07 3.24076 0.219426C2.81879 0.270063 1.89888 0.274283 1.07603 1.13511C0.426194 1.78917 0.219426 3.27874 0.219426 3.27874C0.219426 3.27874 0 5.02993 0 6.7769V8.41416C0 10.1611 0.215207 11.9123 0.215207 11.9123C0.215207 11.9123 0.426194 13.4019 1.07181 14.0559C1.89466 14.9168 2.97492 14.8872 3.45597 14.9801C5.18606 15.1446 10.8025 15.1953 10.8025 15.1953C10.8025 15.1953 15.343 15.1868 18.3643 14.9716C18.7863 14.921 19.7062 14.9168 20.529 14.0559C21.1789 13.4019 21.3899 11.9123 21.3899 11.9123C21.3899 11.9123 21.6051 10.1653 21.6051 8.41416V6.7769C21.6051 5.02993 21.3899 3.27874 21.3899 3.27874ZM8.57029 10.4017V4.32945L14.4062 7.3761L8.57029 10.4017Z" fill="white"/>
</svg>
