<svg width="109" height="109" viewBox="0 0 109 109" fill="none" xmlns="http://www.w3.org/2000/svg">
<rect width="109" height="109" fill="#F5F5F5"/>
<g id="Home">
<rect width="1440" height="8722" transform="translate(-415.75 -3851.75)" fill="white"/>
<g id="Frame 89">
<g id="Group 8">
<g id="Frame 87">
<g id="Group 5">
<g id="Frame 77">
<g clip-path="url(#clip0_304_11872)">
<rect x="0.25" y="0.25" width="108" height="108" fill="white"/>
<g id="Group 2">
<path id="Vector 1" d="M20.196 19.3164L108.512 71.1944" stroke="#F8DFDA" stroke-width="0.617595" stroke-dasharray="3.09 3.09"/>
<path id="Vector 4" d="M7.84424 29.1978L96.1604 81.0758" stroke="#F8DFDA" stroke-width="0.617595" stroke-dasharray="3.09 3.09"/>
<path id="Vector 5" d="M-4.50757 37.844L83.8086 89.722" stroke="#F8DFDA" stroke-width="0.617595" stroke-dasharray="3.09 3.09"/>
<path id="Vector 6" d="M-18.0947 45.2554L70.2214 97.1334" stroke="#F8DFDA" stroke-width="0.617595" stroke-dasharray="3.09 3.09"/>
<path id="Vector 7" d="M-29.8291 55.137L58.487 107.015" stroke="#F8DFDA" stroke-width="0.617595" stroke-dasharray="3.09 3.09"/>
<path id="Vector 2" d="M30.0779 9.43457L118.394 61.3126" stroke="#F8DFDA" stroke-width="0.617595" stroke-dasharray="3.09 3.09"/>
<path id="Vector 3" d="M46.7529 1.40601L135.069 53.284" stroke="#F8DFDA" stroke-width="0.617595" stroke-dasharray="3.09 3.09"/>
<line id="Line 8" x1="-26.9013" y1="66.6068" x2="71.9139" y2="6.70004" stroke="#F8DFDA" stroke-width="0.617595" stroke-dasharray="3.09 3.09"/>
<line id="Line 9" x1="-9.6087" y1="73.4005" x2="89.2066" y2="13.4937" stroke="#F8DFDA" stroke-width="0.617595" stroke-dasharray="3.09 3.09"/>
<line id="Line 10" x1="-0.344657" y1="83.2821" x2="98.4706" y2="23.3753" stroke="#F8DFDA" stroke-width="0.617595" stroke-dasharray="3.09 3.09"/>
<line id="Line 11" x1="14.4779" y1="93.7813" x2="113.293" y2="33.8746" stroke="#F8DFDA" stroke-width="0.617595" stroke-dasharray="3.09 3.09"/>
<line id="Line 12" x1="26.2117" y1="101.192" x2="125.027" y2="41.2855" stroke="#F8DFDA" stroke-width="0.617595" stroke-dasharray="3.09 3.09"/>
<line id="Line 13" x1="39.7991" y1="107.986" x2="138.614" y2="48.0792" stroke="#F8DFDA" stroke-width="0.617595" stroke-dasharray="3.09 3.09"/>
</g>
<rect id="Rectangle 12" x="0.25" y="0.25" width="108" height="37" fill="url(#paint0_linear_304_11872)"/>
<rect id="Rectangle 14" x="107.25" y="0.25" width="107" height="37" transform="rotate(90 107.25 0.25)" fill="url(#paint1_linear_304_11872)"/>
<rect id="Rectangle 15" width="107" height="37" transform="matrix(4.37114e-08 1 1 -4.37114e-08 0.25 0.25)" fill="url(#paint2_linear_304_11872)"/>
<rect id="Rectangle 13" x="108.25" y="108.25" width="108" height="37" transform="rotate(-180 108.25 108.25)" fill="url(#paint3_linear_304_11872)"/>
</g>
<rect x="0.375" y="0.375" width="107.75" height="107.75" stroke="#FF7817" stroke-width="0.25"/>
</g>
<path id="Vector 8" d="M3.25 0.25H0.25V3.25" stroke="#E5340C" stroke-width="0.5"/>
<path id="Vector 9" d="M105.25 0.25H108.25V3.25" stroke="#E5340C" stroke-width="0.5"/>
<path id="Vector 10" d="M108.25 105.25L108.25 108.25L105.25 108.25" stroke="#E5340C" stroke-width="0.5"/>
<path id="Vector 11" d="M0.25 105.25L0.25 108.25L3.25 108.25" stroke="#E5340C" stroke-width="0.5"/>
<g id="object" clip-path="url(#clip1_304_11872)">
<g id="Group">
<g id="Group_2">
<g id="Axo Extrusion">
<g id="Group_3">
<path id="Axo panel" d="M42.1812 60.6477C42.1812 62.2787 41.0889 63.9043 38.9045 65.1519C34.5302 67.6362 27.4472 67.6362 23.0729 65.1519C20.8884 63.9097 19.7962 62.2787 19.7962 60.6477V65.4273C19.7962 67.0584 20.8884 68.684 23.0729 69.9315C27.4472 72.4159 34.5302 72.4159 38.9045 69.9315C41.0889 68.6894 42.1812 67.0584 42.1812 65.4273V60.6477Z" fill="#F9A390"/>
<path id="Vector" d="M30.986 72.3295C33.9514 72.3295 36.9167 71.6868 39.1721 70.4014C41.4603 69.0998 42.7273 67.3338 42.7273 65.4327V60.6531C42.7273 60.3561 42.4815 60.113 42.1812 60.113C41.8808 60.113 41.6351 60.3561 41.6351 60.6531C41.6351 62.1545 40.5702 63.5857 38.6315 64.6874C34.4155 67.0854 27.5619 67.0854 23.346 64.6874C21.4073 63.5857 20.3424 62.1545 20.3424 60.6531C20.3424 60.3561 20.0966 60.113 19.7963 60.113C19.4959 60.113 19.2502 60.3561 19.2502 60.6531V65.4327C19.2502 67.3338 20.5117 69.0998 22.8053 70.4014C25.0607 71.6868 28.0261 72.3295 30.9915 72.3295H30.986ZM41.6351 63.5911V65.4327C41.6351 66.9341 40.5702 68.3653 38.6315 69.4671C34.4155 71.865 27.5619 71.865 23.346 69.4671C21.4073 68.3653 20.3424 66.9341 20.3424 65.4327V63.5911C20.9376 64.3418 21.7622 65.0277 22.8053 65.6164C27.3216 68.1817 34.6668 68.1817 39.1831 65.6164C40.2207 65.0277 41.0507 64.3364 41.646 63.5911H41.6351Z" fill="#E5340C"/>
</g>
<g id="Group_4">
<path id="Axo base" d="M42.1812 60.6477C42.1812 59.0167 41.0889 57.3911 38.9045 56.1435C34.5302 53.6592 27.4472 53.6592 23.0729 56.1435C20.8884 57.3857 19.7962 59.0167 19.7962 60.6477C19.7962 62.2787 20.8884 63.9044 23.0729 65.1519C27.4472 67.6363 34.5302 67.6363 38.9045 65.1519C41.0889 63.9098 42.1812 62.2787 42.1812 60.6477Z" fill="white"/>
<path id="Vector_2" d="M30.986 67.5445C33.9514 67.5445 36.9167 66.9018 39.1721 65.6165C41.4603 64.3149 42.7273 62.5489 42.7273 60.6478C42.7273 58.7467 41.4658 56.9807 39.1721 55.6791C34.6558 53.1138 27.3107 53.1138 22.7944 55.6791C20.5062 56.9807 19.2392 58.7467 19.2392 60.6478C19.2392 62.5489 20.5007 64.3149 22.7944 65.6165C25.0498 66.9018 28.0152 67.5445 30.9805 67.5445H30.986ZM30.986 54.8204C33.7548 54.8204 36.5235 55.4199 38.6315 56.6189C40.5702 57.7206 41.6351 59.1518 41.6351 60.6532C41.6351 62.1546 40.5702 63.5858 38.6315 64.6875C34.4155 67.0855 27.5619 67.0855 23.346 64.6875C21.4073 63.5858 20.3424 62.1546 20.3424 60.6532C20.3424 59.1518 21.4073 57.7206 23.346 56.6189C25.4539 55.4199 28.2227 54.8204 30.9915 54.8204H30.986Z" fill="#E5340C"/>
</g>
</g>
<g id="Axo Extrusion_2">
<g id="Group_5">
<path id="Axo panel_2" d="M42.1812 55.8354C42.1812 57.4665 41.0889 59.0921 38.9045 60.3396C34.5302 62.824 27.4472 62.824 23.0729 60.3396C20.8884 59.0975 19.7962 57.4665 19.7962 55.8354V60.6151C19.7962 62.2461 20.8884 63.8717 23.0729 65.1193C27.4472 67.6036 34.5302 67.6036 38.9045 65.1193C41.0889 63.8771 42.1812 62.2461 42.1812 60.6151V55.8354Z" fill="#F9A390"/>
<path id="Vector_3" d="M30.986 67.5172C33.9514 67.5172 36.9167 66.8745 39.1721 65.5892C41.4603 64.2876 42.7273 62.5215 42.7273 60.6205V55.8409C42.7273 55.5438 42.4815 55.3008 42.1812 55.3008C41.8808 55.3008 41.6351 55.5438 41.6351 55.8409C41.6351 57.3423 40.5702 58.7734 38.6315 59.8752C34.4155 62.2731 27.5619 62.2731 23.346 59.8752C21.4073 58.7734 20.3424 57.3423 20.3424 55.8409C20.3424 55.5438 20.0966 55.3008 19.7963 55.3008C19.4959 55.3008 19.2502 55.5438 19.2502 55.8409V60.6205C19.2502 62.5215 20.5117 64.2876 22.8053 65.5892C25.0607 66.8745 28.0261 67.5172 30.9915 67.5172H30.986ZM41.6351 58.7788V60.6205C41.6351 62.1219 40.5702 63.5531 38.6315 64.6548C34.4155 67.0527 27.5619 67.0527 23.346 64.6548C21.4073 63.5531 20.3424 62.1219 20.3424 60.6205V58.7788C20.9376 59.5295 21.7622 60.2154 22.8053 60.8095C27.3216 63.3749 34.6668 63.3749 39.1831 60.8095C40.2207 60.2208 41.0507 59.5295 41.646 58.7788H41.6351Z" fill="#E5340C"/>
</g>
<g id="Group_6">
<path id="Axo base_2" d="M42.1812 55.8355C42.1812 54.2044 41.0889 52.5788 38.9045 51.3313C34.5302 48.8469 27.4472 48.8469 23.0729 51.3313C20.8884 52.5734 19.7962 54.2044 19.7962 55.8355C19.7962 57.4665 20.8884 59.0921 23.0729 60.3397C27.4472 62.824 34.5302 62.824 38.9045 60.3397C41.0889 59.0975 42.1812 57.4665 42.1812 55.8355Z" fill="white"/>
<path id="Vector_4" d="M30.986 62.7323C33.9514 62.7323 36.9167 62.0896 39.1721 60.8042C41.4658 59.5026 42.7273 57.7366 42.7273 55.8355C42.7273 53.9345 41.4658 52.1685 39.1721 50.8669C34.6558 48.3015 27.3107 48.3015 22.7944 50.8669C20.5007 52.1685 19.2392 53.9345 19.2392 55.8355C19.2392 57.7366 20.5007 59.5026 22.7944 60.8042C25.0498 62.0896 28.0152 62.7323 30.9805 62.7323H30.986ZM30.986 50.0028C33.7548 50.0028 36.5235 50.6022 38.6315 51.8012C40.5702 52.9029 41.6351 54.3341 41.6351 55.8355C41.6351 57.3369 40.5702 58.7681 38.6315 59.8699C34.4155 62.2678 27.5619 62.2678 23.346 59.8699C21.4073 58.7681 20.3424 57.3369 20.3424 55.8355C20.3424 54.3341 21.4073 52.9029 23.346 51.8012C25.4539 50.6022 28.2227 50.0028 30.9915 50.0028H30.986Z" fill="#E5340C"/>
</g>
</g>
<g id="Axo Extrusion_3">
<g id="Group_7">
<path id="Axo panel_3" d="M42.1812 51.0234C42.1812 52.6545 41.0889 54.2801 38.9045 55.5276C34.5302 58.012 27.4472 58.012 23.0729 55.5276C20.8884 54.2855 19.7962 52.6545 19.7962 51.0234V55.8031C19.7962 57.4341 20.8884 59.0597 23.0729 60.3073C27.4472 62.7916 34.5302 62.7916 38.9045 60.3073C41.0889 59.0651 42.1812 57.4341 42.1812 55.8031V51.0234Z" fill="#F9A390"/>
<path id="Vector_5" d="M30.986 62.6998C33.9514 62.6998 36.9167 62.0571 39.1721 60.7718C41.4603 59.4702 42.7273 57.7042 42.7273 55.8031V51.0235C42.7273 50.7264 42.4815 50.4834 42.1812 50.4834C41.8808 50.4834 41.6351 50.7264 41.6351 51.0235C41.6351 52.5249 40.5702 53.9561 38.6315 55.0578C34.4155 57.4557 27.5619 57.4557 23.346 55.0578C21.4073 53.9561 20.3424 52.5249 20.3424 51.0235C20.3424 50.7264 20.0966 50.4834 19.7963 50.4834C19.4959 50.4834 19.2502 50.7264 19.2502 51.0235V55.8031C19.2502 57.7042 20.5117 59.4702 22.8053 60.7718C25.0607 62.0571 28.0261 62.6998 30.9915 62.6998H30.986ZM41.6351 53.9669V55.8085C41.6351 57.3099 40.5702 58.7411 38.6315 59.8428C34.4155 62.2408 27.5619 62.2408 23.346 59.8428C21.4073 58.7411 20.3424 57.3099 20.3424 55.8085V53.9669C20.9376 54.7176 21.7622 55.4035 22.8053 55.9921C27.3216 58.5575 34.6668 58.5629 39.1831 55.9921C40.2207 55.4035 41.0507 54.7122 41.646 53.9669H41.6351Z" fill="#E5340C"/>
</g>
<g id="Group_8">
<path id="Axo base_3" d="M42.1812 51.0235C42.1812 49.3924 41.0889 47.7668 38.9045 46.5193C34.5302 44.0349 27.4472 44.0349 23.0729 46.5193C20.8884 47.7614 19.7962 49.3924 19.7962 51.0235C19.7962 52.6545 20.8884 54.2801 23.0729 55.5277C27.4472 58.012 34.5302 58.012 38.9045 55.5277C41.0889 54.2855 42.1812 52.6545 42.1812 51.0235Z" fill="white"/>
<path id="Vector_6" d="M30.986 57.9202C33.9514 57.9202 36.9167 57.2776 39.1721 55.9922C41.4603 54.6906 42.7273 52.9246 42.7273 51.0235C42.7273 49.1225 41.4658 47.3564 39.1721 46.0549C34.6558 43.4895 27.3107 43.4895 22.7944 46.0549C20.5062 47.3564 19.2392 49.1225 19.2392 51.0235C19.2392 52.9246 20.5007 54.6906 22.7944 55.9922C25.0498 57.2776 28.0152 57.9202 30.9805 57.9202H30.986ZM30.986 45.1908C33.7548 45.1908 36.5235 45.7902 38.6315 46.9892C40.5702 48.0909 41.6351 49.5221 41.6351 51.0235C41.6351 52.5249 40.5702 53.9561 38.6315 55.0579C34.4155 57.4558 27.5619 57.4558 23.346 55.0579C21.4073 53.9561 20.3424 52.5249 20.3424 51.0235C20.3424 49.5221 21.4073 48.0909 23.346 46.9892C25.4539 45.7902 28.2227 45.1908 30.9915 45.1908H30.986Z" fill="#E5340C"/>
</g>
</g>
<g id="Axo Extrusion_4">
<g id="Group_9">
<path id="Axo panel_4" d="M42.1812 46.2114C42.1812 47.8424 41.0889 49.4681 38.9045 50.7156C34.5302 53.2 27.4472 53.2 23.0729 50.7156C20.8884 49.4735 19.7962 47.8424 19.7962 46.2114V50.9911C19.7962 52.6221 20.8884 54.2477 23.0729 55.4953C27.4472 57.9796 34.5302 57.9796 38.9045 55.4953C41.0889 54.2531 42.1812 52.6221 42.1812 50.9911V46.2114Z" fill="#F9A390"/>
<path id="Vector_7" d="M30.986 57.8878C33.9514 57.8878 36.9167 57.2451 39.1721 55.9598C41.4603 54.6582 42.7273 52.8921 42.7273 50.9911V46.2115C42.7273 45.9144 42.4815 45.6714 42.1812 45.6714C41.8808 45.6714 41.6351 45.9144 41.6351 46.2115C41.6351 47.7129 40.5702 49.1441 38.6315 50.2458C34.4155 52.6437 27.5619 52.6437 23.346 50.2458C21.4073 49.1441 20.3424 47.7129 20.3424 46.2115C20.3424 45.9144 20.0966 45.6714 19.7963 45.6714C19.4959 45.6714 19.2502 45.9144 19.2502 46.2115V50.9911C19.2502 52.8921 20.5117 54.6582 22.8053 55.9598C25.0607 57.2451 28.0261 57.8878 30.9915 57.8878H30.986ZM41.6351 49.1495V50.9911C41.6351 52.4925 40.5702 53.9237 38.6315 55.0254C34.4155 57.4234 27.5619 57.4234 23.346 55.0254C21.4073 53.9237 20.3424 52.4925 20.3424 50.9911V49.1495C20.9376 49.9002 21.7622 50.586 22.8053 51.1747C27.3216 53.7401 34.6668 53.7401 39.1831 51.1747C40.2207 50.586 41.0507 49.8948 41.646 49.1495H41.6351Z" fill="#E5340C"/>
</g>
<g id="Group_10">
<path id="Axo base_4" d="M42.1812 46.2114C42.1812 44.5804 41.0889 42.9548 38.9045 41.7072C34.5302 39.2229 27.4472 39.2229 23.0729 41.7072C20.8884 42.9494 19.7962 44.5804 19.7962 46.2114C19.7962 47.8425 20.8884 49.4681 23.0729 50.7156C27.4472 53.2 34.5302 53.2 38.9045 50.7156C41.0889 49.4735 42.1812 47.8425 42.1812 46.2114Z" fill="white"/>
<path id="Vector_8" d="M30.986 53.1082C33.9514 53.1082 36.9167 52.4655 39.1721 51.1802C41.4603 49.8786 42.7273 48.1126 42.7273 46.2115C42.7273 44.3105 41.4658 42.5444 39.1721 41.2429C34.6558 38.6775 27.3107 38.6775 22.7944 41.2429C20.5062 42.5444 19.2392 44.3105 19.2392 46.2115C19.2392 48.1126 20.5007 49.8786 22.7944 51.1802C25.0498 52.4655 28.0152 53.1082 30.9805 53.1082H30.986ZM30.986 40.3787C33.7548 40.3787 36.5235 40.9782 38.6315 42.1772C40.5702 43.2789 41.6351 44.7101 41.6351 46.2115C41.6351 47.7129 40.5702 49.1441 38.6315 50.2459C34.4155 52.6438 27.5619 52.6438 23.346 50.2459C21.4073 49.1441 20.3424 47.7129 20.3424 46.2115C20.3424 44.7101 21.4073 43.2789 23.346 42.1772C25.4539 40.9782 28.2227 40.3787 30.9915 40.3787H30.986Z" fill="#E5340C"/>
</g>
</g>
<g id="Axo Extrusion_5">
<g id="Group_11">
<path id="Axo panel_5" d="M42.1812 41.394C42.1812 43.0251 41.0889 44.6507 38.9045 45.8982C34.5302 48.3826 27.4472 48.3826 23.0729 45.8982C20.8884 44.6561 19.7962 43.0251 19.7962 41.394V46.1737C19.7962 47.8047 20.8884 49.4303 23.0729 50.6779C27.4472 53.1622 34.5302 53.1622 38.9045 50.6779C41.0889 49.4357 42.1812 47.8047 42.1812 46.1737V41.394Z" fill="#F9A390"/>
<path id="Vector_9" d="M30.986 53.0758C33.9514 53.0758 36.9167 52.4331 39.1721 51.1477C41.4658 49.8462 42.7273 48.0801 42.7273 46.1791V41.3994C42.7273 41.1024 42.4815 40.8594 42.1812 40.8594C41.8808 40.8594 41.6351 41.1024 41.6351 41.3994C41.6351 42.9008 40.5702 44.332 38.6315 45.4338C34.4155 47.8317 27.5619 47.8317 23.346 45.4338C21.4073 44.332 20.3424 42.9008 20.3424 41.3994C20.3424 41.1024 20.0966 40.8594 19.7963 40.8594C19.4959 40.8594 19.2502 41.1024 19.2502 41.3994V46.1791C19.2502 48.0801 20.5117 49.8462 22.8053 51.1531C25.0607 52.4385 28.0261 53.0812 30.9915 53.0812L30.986 53.0758ZM41.6351 44.3374V46.1791C41.6351 47.6805 40.5702 49.1117 38.6315 50.2134C34.4155 52.6113 27.5619 52.6113 23.346 50.2134C21.4073 49.1117 20.3424 47.6805 20.3424 46.1791V44.3374C20.9376 45.0881 21.7622 45.774 22.8053 46.3681C27.3216 48.9335 34.6668 48.9335 39.1831 46.3681C40.2207 45.7794 41.0507 45.0881 41.646 44.3428L41.6351 44.3374Z" fill="#E5340C"/>
</g>
<g id="Group_12">
<path id="Axo base_5" d="M42.1812 41.3941C42.1812 39.763 41.0889 38.1374 38.9045 36.8899C34.5302 34.4055 27.4472 34.4055 23.0729 36.8899C20.8884 38.132 19.7962 39.763 19.7962 41.3941C19.7962 43.0251 20.8884 44.6507 23.0729 45.8983C27.4472 48.3826 34.5302 48.3826 38.9045 45.8983C41.0889 44.6561 42.1812 43.0251 42.1812 41.3941Z" fill="white"/>
<path id="Vector_10" d="M30.986 48.2909C33.9514 48.2909 36.9167 47.6482 39.1721 46.3628C41.4603 45.0612 42.7273 43.2952 42.7273 41.3941C42.7273 39.4931 41.4658 37.727 39.1721 36.4255C34.6558 33.8601 27.3107 33.8601 22.7944 36.4255C20.5062 37.727 19.2392 39.4931 19.2392 41.3941C19.2392 43.2952 20.5007 45.0612 22.7944 46.3628C25.0498 47.6482 28.0152 48.2909 30.9805 48.2909H30.986ZM30.986 35.5668C33.7548 35.5668 36.5235 36.1662 38.6315 37.3652C40.5702 38.4669 41.6351 39.8981 41.6351 41.3995C41.6351 42.9009 40.5702 44.3321 38.6315 45.4339C34.4155 47.8318 27.5619 47.8318 23.346 45.4339C21.4073 44.3321 20.3424 42.9009 20.3424 41.3995C20.3424 39.8981 21.4073 38.4669 23.346 37.3652C25.4539 36.1662 28.2227 35.5668 30.9915 35.5668H30.986Z" fill="#E5340C"/>
</g>
</g>
</g>
<g id="Group_13">
<g id="Axo Extrusion_6">
<g id="Group_14">
<path id="Axo panel_6" d="M62.2507 72.1135C62.2507 73.7445 61.1585 75.3702 58.9741 76.6177C54.5998 79.1021 47.5168 79.1021 43.1424 76.6177C40.958 75.3756 39.8658 73.7445 39.8658 72.1135V76.8932C39.8658 78.5242 40.958 80.1498 43.1424 81.3974C47.5168 83.8817 54.5998 83.8817 58.9741 81.3974C61.1585 80.1552 62.2507 78.5242 62.2507 76.8932V72.1135Z" fill="#F9A390"/>
<path id="Vector_11" d="M51.0554 83.7899C54.0208 83.7899 56.9861 83.1472 59.2416 81.8619C61.5298 80.5603 62.7913 78.7942 62.7913 76.8932V72.1136C62.7913 71.8165 62.5455 71.5735 62.2452 71.5735C61.9448 71.5735 61.699 71.8165 61.699 72.1136C61.699 73.615 60.6341 75.0462 58.6955 76.1479C54.4795 78.5458 47.6259 78.5458 43.4099 76.1479C41.4712 75.0462 40.4063 73.615 40.4063 72.1136C40.4063 71.8165 40.1606 71.5735 39.8602 71.5735C39.5599 71.5735 39.3141 71.8165 39.3141 72.1136V76.8932C39.3141 78.7942 40.5756 80.5603 42.8693 81.8619C45.1247 83.1472 48.0901 83.7899 51.0554 83.7899ZM61.7045 75.0516V76.8932C61.7045 78.3946 60.6396 79.8258 58.7009 80.9275C54.485 83.3255 47.6313 83.3255 43.4154 80.9275C41.4767 79.8258 40.4118 78.3946 40.4118 76.8932V75.0516C41.007 75.8023 41.8317 76.4881 42.8747 77.0768C47.391 79.6422 54.7362 79.6476 59.2525 77.0768C60.2901 76.4881 61.1202 75.7969 61.71 75.0516H61.7045Z" fill="#E5340C"/>
</g>
<g id="Group_15">
<path id="Axo base_6" d="M62.2507 72.1135C62.2507 70.4825 61.1585 68.8569 58.9741 67.6093C54.5998 65.125 47.5168 65.125 43.1424 67.6093C40.958 68.8515 39.8658 70.4825 39.8658 72.1135C39.8658 73.7446 40.958 75.3702 43.1424 76.6177C47.5168 79.1021 54.5998 79.1021 58.9741 76.6177C61.1585 75.3756 62.2507 73.7446 62.2507 72.1135Z" fill="white"/>
<path id="Vector_12" d="M51.0554 79.0049C54.0208 79.0049 56.9861 78.3622 59.2416 77.0768C61.5298 75.7752 62.7913 74.0092 62.7913 72.1081C62.7913 70.2071 61.5298 68.4411 59.2416 67.1395C54.7253 64.5687 47.3801 64.5687 42.8638 67.1395C40.5756 68.4411 39.3087 70.2071 39.3087 72.1081C39.3087 74.0092 40.5702 75.7752 42.8638 77.0768C45.1192 78.3622 48.0846 79.0049 51.05 79.0049H51.0554ZM51.0554 66.2808C53.8242 66.2808 56.5929 66.8802 58.7009 68.0792C60.6396 69.181 61.7045 70.6121 61.7045 72.1135C61.7045 73.6149 60.6396 75.0461 58.7009 76.1479C54.485 78.5458 47.6313 78.5458 43.4154 76.1479C41.4767 75.0461 40.4118 73.6149 40.4118 72.1135C40.4118 70.6121 41.4767 69.181 43.4154 68.0792C45.5234 66.8802 48.2921 66.2808 51.0609 66.2808H51.0554Z" fill="#E5340C"/>
</g>
</g>
<g id="Axo Extrusion_7">
<g id="Group_16">
<path id="Axo panel_7" d="M62.2507 67.2959C62.2507 68.9269 61.1585 70.5525 58.9741 71.8001C54.5998 74.2844 47.5168 74.2844 43.1424 71.8001C40.958 70.5579 39.8658 68.9269 39.8658 67.2959V72.0755C39.8658 73.7066 40.958 75.3322 43.1424 76.5797C47.5168 79.0641 54.5998 79.0641 58.9741 76.5797C61.1585 75.3376 62.2507 73.7066 62.2507 72.0755V67.2959Z" fill="#F9A390"/>
<path id="Vector_13" d="M51.0554 78.9777C54.0208 78.9777 56.9861 78.335 59.2416 77.0496C61.5298 75.748 62.7913 73.982 62.7913 72.0809V67.3013C62.7913 67.0043 62.5455 66.7612 62.2452 66.7612C61.9448 66.7612 61.699 67.0043 61.699 67.3013C61.699 68.8027 60.6341 70.2339 58.6955 71.3356C54.4795 73.7336 47.6204 73.7336 43.4099 71.3356C41.4712 70.2339 40.4063 68.8027 40.4063 67.3013C40.4063 67.0043 40.1606 66.7612 39.8602 66.7612C39.5599 66.7612 39.3141 67.0043 39.3141 67.3013V72.0809C39.3141 73.982 40.5756 75.748 42.8693 77.0496C45.1247 78.335 48.0901 78.9777 51.0554 78.9777ZM61.7045 70.2393V72.0809C61.7045 73.5823 60.6396 75.0135 58.7009 76.1153C54.485 78.5132 47.6313 78.5132 43.4154 76.1153C41.4767 75.0135 40.4118 73.5823 40.4118 72.0809V70.2393C41.007 70.99 41.8317 71.6759 42.8747 72.27C47.391 74.8353 54.7362 74.8353 59.2525 72.27C60.2901 71.6813 61.1202 70.99 61.71 70.2393H61.7045Z" fill="#E5340C"/>
</g>
<g id="Group_17">
<path id="Axo base_7" d="M62.2507 67.2959C62.2507 65.6649 61.1585 64.0393 58.9741 62.7917C54.5998 60.3074 47.5168 60.3074 43.1424 62.7917C40.958 64.0339 39.8658 65.6649 39.8658 67.2959C39.8658 68.9269 40.958 70.5526 43.1424 71.8001C47.5168 74.2844 54.5998 74.2844 58.9741 71.8001C61.1585 70.558 62.2507 68.9269 62.2507 67.2959Z" fill="white"/>
<path id="Vector_14" d="M51.0554 74.1927C54.0208 74.1927 56.9861 73.55 59.2416 72.2647C61.5298 70.9631 62.7913 69.197 62.7913 67.296C62.7913 65.3949 61.5298 63.6289 59.2416 62.3273C54.7253 59.762 47.3801 59.762 42.8638 62.3273C40.5702 63.6289 39.3087 65.3949 39.3087 67.296C39.3087 69.197 40.5702 70.9631 42.8638 72.2647C45.1192 73.55 48.0846 74.1927 51.05 74.1927H51.0554ZM51.0554 61.4632C53.8242 61.4632 56.5929 62.0627 58.7009 63.2617C60.6396 64.3634 61.7045 65.7946 61.7045 67.296C61.7045 68.7974 60.6396 70.2286 58.7009 71.3303C54.485 73.7283 47.6259 73.7283 43.4154 71.3303C41.4767 70.2286 40.4118 68.7974 40.4118 67.296C40.4118 65.7946 41.4767 64.3634 43.4154 63.2617C45.5234 62.0627 48.2921 61.4632 51.0609 61.4632H51.0554Z" fill="#E5340C"/>
</g>
</g>
</g>
<g id="Axo Extrusion_8">
<g id="Group_18">
<path id="Axo panel_8" d="M82.3145 83.5737C82.3145 85.2047 81.2222 86.8304 79.0378 88.0779C74.6635 90.5623 67.5805 90.5623 63.2062 88.0779C61.0217 86.8358 59.9295 85.2047 59.9295 83.5737V88.3534C59.9295 89.9844 61.0217 91.61 63.2062 92.8576C67.5805 95.3419 74.6635 95.3419 79.0378 92.8576C81.2222 91.6154 82.3145 89.9844 82.3145 88.3534V83.5737Z" fill="#F9A390"/>
<path id="Vector_15" d="M71.1193 95.2501C74.0847 95.2501 77.05 94.6074 79.3054 93.3221C81.5936 92.0205 82.8606 90.2545 82.8606 88.3534V83.5738C82.8606 83.2767 82.6148 83.0337 82.3145 83.0337C82.0141 83.0337 81.7684 83.2767 81.7684 83.5738C81.7684 85.0752 80.7035 86.5064 78.7648 87.6081C74.5488 90.006 67.6952 90.006 63.4793 87.6081C61.5406 86.5064 60.4757 85.0752 60.4757 83.5738C60.4757 83.2767 60.2299 83.0337 59.9296 83.0337C59.6292 83.0337 59.3835 83.2767 59.3835 83.5738V88.3534C59.3835 90.2545 60.645 92.0205 62.9332 93.3221C65.1886 94.6074 68.1539 95.2501 71.1193 95.2501ZM81.7684 86.5118V88.3534C81.7684 89.8548 80.7035 91.286 78.7648 92.3877C74.5488 94.7857 67.6952 94.7857 63.4793 92.3877C61.5406 91.286 60.4757 89.8548 60.4757 88.3534V86.5118C61.0709 87.2625 61.8955 87.9483 62.9332 88.537C67.4495 91.1024 74.7946 91.1024 79.3109 88.537C80.3485 87.9483 81.1786 87.2571 81.7738 86.5118H81.7684Z" fill="#E5340C"/>
</g>
<g id="Group_19">
<path id="Axo base_8" d="M82.3145 83.5738C82.3145 81.9427 81.2222 80.3171 79.0378 79.0695C74.6635 76.5852 67.5805 76.5852 63.2062 79.0695C61.0217 80.3117 59.9295 81.9427 59.9295 83.5738C59.9295 85.2048 61.0217 86.8304 63.2062 88.0779C67.5805 90.5623 74.6635 90.5623 79.0378 88.0779C81.2222 86.8358 82.3145 85.2048 82.3145 83.5738Z" fill="white"/>
<path id="Vector_16" d="M71.1193 90.4705C74.0847 90.4705 77.05 89.8279 79.3054 88.5425C81.5936 87.2409 82.8606 85.4749 82.8606 83.5738C82.8606 81.6728 81.5991 79.9067 79.3054 78.6052C74.7891 76.0398 67.444 76.0398 62.9277 78.6052C60.6395 79.9067 59.378 81.6728 59.378 83.5738C59.378 85.4749 60.6395 87.2409 62.9277 88.5425C65.1831 89.8279 68.1485 90.4705 71.1138 90.4705H71.1193ZM71.1193 77.741C73.8881 77.741 76.6568 78.3405 78.7648 79.5395C80.7035 80.6412 81.7684 82.0724 81.7684 83.5738C81.7684 85.0752 80.7035 86.5064 78.7648 87.6082C74.5488 90.0061 67.6952 90.0061 63.4793 87.6082C61.5406 86.5064 60.4757 85.0752 60.4757 83.5738C60.4757 82.0724 61.5406 80.6412 63.4793 79.5395C65.5872 78.3405 68.356 77.741 71.1248 77.741H71.1193Z" fill="#E5340C"/>
</g>
</g>
</g>
<g id="Group_20">
<path id="Vector_17" d="M55.7298 29.7824L58.4549 14.79L68.5306 24.9164L63.217 24.3385C64.8717 32.6502 68.0718 40.6595 72.6264 47.8424C76.46 53.8859 81.7081 59.6322 88.7092 61.3442L84.5916 63.6936C77.5905 61.9815 72.3424 56.2352 68.5087 50.1918C63.8832 42.9008 60.6557 34.7511 59.0229 26.299L55.7298 29.7878V29.7824Z" fill="#F9A390"/>
<path id="Vector_18" d="M84.5862 64.2282C84.679 64.2282 84.7773 64.2012 84.8592 64.158L88.9769 61.8087C89.168 61.7007 89.2772 61.4846 89.2445 61.2632C89.2117 61.0472 89.0533 60.8689 88.8349 60.8149C83.0735 59.4053 77.7762 54.9444 73.0852 47.5508C68.6781 40.6054 65.5871 33.0066 63.8996 24.9542L68.4706 25.451C68.6999 25.478 68.9184 25.3538 69.0221 25.1486C69.1204 24.9434 69.0822 24.6949 68.9184 24.5329L58.8427 14.412C58.7007 14.2661 58.4877 14.2175 58.2911 14.2769C58.0945 14.3363 57.9525 14.4984 57.9143 14.6982L55.1892 29.6906C55.1455 29.9282 55.2657 30.1605 55.4841 30.2685C55.7026 30.3765 55.9647 30.3279 56.1285 30.1551L58.6898 27.4385C60.4046 35.6476 63.5447 43.3922 68.0391 50.478C72.8831 58.1146 78.4043 62.7376 84.4497 64.2174C84.4933 64.2282 84.537 64.2336 84.5807 64.2336L84.5862 64.2282ZM87.3167 61.5062L84.5097 63.1102C78.8302 61.6466 73.604 57.2019 68.973 49.9001C64.3638 42.6307 61.1964 34.6539 59.5636 26.1963C59.5253 25.9965 59.3779 25.8345 59.1758 25.7805C58.9792 25.7265 58.7662 25.7805 58.6243 25.9317L56.5982 28.0812L58.8099 15.9188L67.0671 24.2197L63.2771 23.8038C63.1023 23.7876 62.933 23.847 62.8129 23.9766C62.6927 24.1008 62.6436 24.2791 62.6818 24.4465C64.3638 32.8932 67.5531 40.8647 72.1622 48.1286C76.6676 55.236 81.7628 59.7294 87.3167 61.5116V61.5062Z" fill="#E5340C"/>
</g>
<g id="Group_21">
<path id="Vector_19" d="M23.8536 23.6689C23.9465 23.6689 24.0393 23.6473 24.1267 23.5987C24.3888 23.4475 24.4762 23.118 24.3287 22.8588L21.9477 18.7758C21.7948 18.5166 21.4617 18.4302 21.1995 18.576C20.9374 18.7272 20.85 19.0567 20.9975 19.3159L23.3785 23.3988C23.4823 23.5717 23.6625 23.6689 23.8536 23.6689Z" fill="#E5340C"/>
<path id="Vector_20" d="M30.9859 21.8057C31.2862 21.8057 31.532 21.5627 31.532 21.2656V16.5508C31.532 16.2538 31.2862 16.0107 30.9859 16.0107C30.6855 16.0107 30.4398 16.2538 30.4398 16.5508V21.2656C30.4398 21.5627 30.6855 21.8057 30.9859 21.8057Z" fill="#E5340C"/>
<path id="Vector_21" d="M38.1235 23.6691C38.3146 23.6691 38.4948 23.5719 38.5986 23.399L40.9796 19.3161C41.1325 19.0569 41.0397 18.7274 40.7776 18.5762C40.5154 18.425 40.1823 18.5168 40.0294 18.776L37.6484 22.859C37.4955 23.1182 37.5883 23.4477 37.8504 23.5989C37.9378 23.6475 38.0306 23.6691 38.1235 23.6691Z" fill="#E5340C"/>
</g>
</g>
</g>
</g>
</g>
</g>
</g>
<defs>
<linearGradient id="paint0_linear_304_11872" x1="54.25" y1="0.25" x2="54.25" y2="37.25" gradientUnits="userSpaceOnUse">
<stop stop-color="white"/>
<stop offset="1" stop-color="white" stop-opacity="0.2"/>
</linearGradient>
<linearGradient id="paint1_linear_304_11872" x1="160.75" y1="0.25" x2="160.75" y2="37.25" gradientUnits="userSpaceOnUse">
<stop stop-color="white"/>
<stop offset="1" stop-color="white" stop-opacity="0.2"/>
</linearGradient>
<linearGradient id="paint2_linear_304_11872" x1="53.5" y1="0" x2="53.5" y2="37" gradientUnits="userSpaceOnUse">
<stop stop-color="white"/>
<stop offset="1" stop-color="white" stop-opacity="0.2"/>
</linearGradient>
<linearGradient id="paint3_linear_304_11872" x1="162.25" y1="108.25" x2="162.25" y2="145.25" gradientUnits="userSpaceOnUse">
<stop stop-color="white"/>
<stop offset="1" stop-color="white" stop-opacity="0.2"/>
</linearGradient>
<clipPath id="clip0_304_11872">
<rect x="0.25" y="0.25" width="108" height="108" fill="white"/>
</clipPath>
<clipPath id="clip1_304_11872">
<rect width="70" height="81" fill="white" transform="matrix(-1 0 0 1 89.25 14.25)"/>
</clipPath>
</defs>
</svg>
