<svg width="109" height="109" viewBox="0 0 109 109" fill="none" xmlns="http://www.w3.org/2000/svg">
<rect width="109" height="109" fill="#F5F5F5"/>
<g id="Home">
<rect width="1440" height="8722" transform="translate(-97.75 -3851.75)" fill="white"/>
<g id="Frame 89">
<g id="Group 8">
<g id="Frame 88">
<g id="Group 4">
<g id="Frame 77">
<g clip-path="url(#clip0_304_11872)">
<rect x="0.25" y="0.25" width="108" height="108" fill="white"/>
<g id="Group 2">
<path id="Vector 1" d="M20.196 19.3164L108.512 71.1944" stroke="#F8DFDA" stroke-width="0.617595" stroke-dasharray="3.09 3.09"/>
<path id="Vector 4" d="M7.84424 29.1978L96.1604 81.0758" stroke="#F8DFDA" stroke-width="0.617595" stroke-dasharray="3.09 3.09"/>
<path id="Vector 5" d="M-4.50757 37.844L83.8086 89.722" stroke="#F8DFDA" stroke-width="0.617595" stroke-dasharray="3.09 3.09"/>
<path id="Vector 6" d="M-18.0947 45.2554L70.2214 97.1334" stroke="#F8DFDA" stroke-width="0.617595" stroke-dasharray="3.09 3.09"/>
<path id="Vector 7" d="M-29.8291 55.137L58.487 107.015" stroke="#F8DFDA" stroke-width="0.617595" stroke-dasharray="3.09 3.09"/>
<path id="Vector 2" d="M30.0779 9.43457L118.394 61.3126" stroke="#F8DFDA" stroke-width="0.617595" stroke-dasharray="3.09 3.09"/>
<path id="Vector 3" d="M46.7529 1.40601L135.069 53.284" stroke="#F8DFDA" stroke-width="0.617595" stroke-dasharray="3.09 3.09"/>
<line id="Line 8" x1="-26.9013" y1="66.6068" x2="71.9139" y2="6.70004" stroke="#F8DFDA" stroke-width="0.617595" stroke-dasharray="3.09 3.09"/>
<line id="Line 9" x1="-9.6087" y1="73.4005" x2="89.2066" y2="13.4937" stroke="#F8DFDA" stroke-width="0.617595" stroke-dasharray="3.09 3.09"/>
<line id="Line 10" x1="-0.344779" y1="83.2821" x2="98.4705" y2="23.3753" stroke="#F8DFDA" stroke-width="0.617595" stroke-dasharray="3.09 3.09"/>
<line id="Line 11" x1="14.4777" y1="93.7813" x2="113.293" y2="33.8746" stroke="#F8DFDA" stroke-width="0.617595" stroke-dasharray="3.09 3.09"/>
<line id="Line 12" x1="26.2117" y1="101.192" x2="125.027" y2="41.2855" stroke="#F8DFDA" stroke-width="0.617595" stroke-dasharray="3.09 3.09"/>
<line id="Line 13" x1="39.7993" y1="107.986" x2="138.615" y2="48.0792" stroke="#F8DFDA" stroke-width="0.617595" stroke-dasharray="3.09 3.09"/>
</g>
<rect id="Rectangle 12" x="0.25" y="0.25" width="108" height="37" fill="url(#paint0_linear_304_11872)"/>
<rect id="Rectangle 14" x="107.25" y="0.25" width="107" height="37" transform="rotate(90 107.25 0.25)" fill="url(#paint1_linear_304_11872)"/>
<rect id="Rectangle 15" width="107" height="37" transform="matrix(4.37114e-08 1 1 -4.37114e-08 0.25 0.25)" fill="url(#paint2_linear_304_11872)"/>
<rect id="Rectangle 13" x="108.25" y="108.25" width="108" height="37" transform="rotate(-180 108.25 108.25)" fill="url(#paint3_linear_304_11872)"/>
<g id="Group 3">
<g id="Axo Extrusion">
<g id="Group">
<path id="Axo panel" d="M8.84082 45.6611C8.84082 46.1931 9.24864 46.725 10.0761 47.1978L62.779 77.5831C63.6656 78.0914 65.2082 78.3515 66.7567 78.3515C68.3052 78.3515 69.8478 78.0973 70.7285 77.589L97.603 62.0506C98.4186 61.5778 98.8264 61.0518 98.8264 60.5258V64.5862C98.8264 65.1122 98.4186 65.6382 97.603 66.1111L70.7285 81.6495C69.8478 82.1578 68.2993 82.4119 66.7567 82.4119C65.2082 82.4119 63.6656 82.1578 62.779 81.6436L10.0761 51.2583C9.24864 50.7854 8.84082 50.2535 8.84082 49.7216V45.6611Z" fill="#F9A390"/>
<path id="Vector" d="M66.7628 83.0027C64.9779 83.0027 63.4234 82.6953 62.4896 82.1575L9.78079 51.7722C8.51597 51.0452 8.25 50.2532 8.25 49.7213V45.6609C8.25 45.3358 8.51597 45.0698 8.84104 45.0698C9.16611 45.0698 9.43208 45.3358 9.43208 45.6609C9.43208 45.9682 9.77488 46.3406 10.3718 46.6834L63.0747 77.0686C63.8076 77.4942 65.2202 77.7542 66.7569 77.7542C68.2936 77.7542 69.7003 77.4942 70.4272 77.0686L97.3018 61.5302C97.8928 61.1874 98.2297 60.821 98.2297 60.5196C98.2297 60.1945 98.4957 59.9285 98.8207 59.9285C99.1458 59.9285 99.4118 60.1945 99.4118 60.5196V64.58C99.4118 65.106 99.1458 65.8862 97.8928 66.6132L71.0183 82.1516C70.0903 82.6894 68.5359 82.9968 66.7569 82.9968L66.7628 83.0027ZM9.43208 47.4931V49.7213C9.43208 50.0286 9.77488 50.401 10.3718 50.7438L63.0747 81.1291C63.8076 81.5546 65.2202 81.8147 66.7569 81.8147C68.2936 81.8147 69.7003 81.5546 70.4272 81.1291L97.3018 65.5907C97.8928 65.2479 98.2297 64.8814 98.2297 64.58V62.34C98.1233 62.4109 98.011 62.4818 97.8928 62.5527L71.0183 78.0911C70.0903 78.629 68.5359 78.9363 66.7569 78.9363C64.972 78.9363 63.4116 78.629 62.4837 78.0911L9.78079 47.7118C9.65667 47.6408 9.53846 47.564 9.43208 47.4931Z" fill="#E5340C"/>
</g>
<g id="Group_2">
<path id="Axo base" d="M8.84082 45.6609C8.84082 45.1349 9.24864 44.6089 10.0643 44.136L36.9388 28.5976C37.8194 28.0894 39.368 27.8352 40.9106 27.8352C42.4591 27.8352 44.0017 28.0894 44.8883 28.6036L97.5912 58.9888C98.4186 59.4617 98.8264 59.9936 98.8264 60.5255C98.8264 61.0575 98.4186 61.5776 97.603 62.0504L70.7285 77.5888C69.8478 78.0971 68.2993 78.3513 66.7567 78.3513C65.2082 78.3513 63.6656 78.0971 62.779 77.5829L10.0761 47.1976C9.24864 46.7248 8.84082 46.1929 8.84082 45.6609Z" fill="white"/>
<path id="Vector_2" d="M66.7628 78.9422C64.9779 78.9422 63.4175 78.6349 62.4896 78.097L9.78079 47.7118C8.51597 46.9848 8.25 46.1928 8.25 45.6608C8.25 45.1289 8.51597 44.3547 9.76897 43.6277L36.6435 28.0893C37.5714 27.5514 39.1258 27.25 40.9049 27.25C42.6898 27.25 44.2442 27.5573 45.1781 28.0952L97.881 58.4805C99.1458 59.2075 99.4118 59.9994 99.4118 60.5314C99.4118 61.0633 99.1458 61.8376 97.8928 62.5645L71.0183 78.103C70.0903 78.6408 68.5359 78.9481 66.7569 78.9481L66.7628 78.9422ZM40.9049 28.4321C39.3682 28.4321 37.9615 28.6921 37.2345 29.1177L10.36 44.6502C9.76897 44.993 9.43208 45.3594 9.43208 45.6608C9.43208 45.9623 9.77488 46.3405 10.3718 46.6833L63.0747 77.0686C63.8076 77.4942 65.2202 77.7542 66.7569 77.7542C68.2936 77.7542 69.7003 77.4942 70.4272 77.0686L97.3018 61.5302C97.8928 61.1874 98.2297 60.821 98.2297 60.5196C98.2297 60.2181 97.8869 59.8399 97.2899 59.4971L44.593 29.1177C43.8601 28.6921 42.4475 28.4321 40.9108 28.4321H40.9049Z" fill="#E5340C"/>
</g>
<path id="Vector_3" d="M24.0129 40.7612C23.812 40.7612 23.611 40.6548 23.5046 40.4656C23.3392 40.1819 23.4337 39.8214 23.7174 39.6559L31.0699 35.3532C31.3536 35.1877 31.7142 35.2822 31.8797 35.5659C32.0452 35.8496 31.9506 36.2102 31.6669 36.3757L24.3144 40.6784C24.2198 40.7316 24.1193 40.7612 24.0189 40.7612H24.0129Z" fill="#E5340C"/>
</g>
<g id="Group_3">
<path id="Vector_4" d="M74.0029 68.824C72.2239 68.824 70.4449 68.4339 69.0914 67.6537C68.8077 67.4882 68.7131 67.1277 68.8727 66.844C69.0382 66.5603 69.3987 66.4657 69.6824 66.6253C72.0702 68.0024 75.9474 68.0024 78.3293 66.6253C79.3755 66.0225 79.9547 65.26 79.9547 64.468C79.9547 63.6819 79.3814 62.9195 78.3411 62.3166C78.0574 62.1511 77.9629 61.7906 78.1225 61.5069C78.2879 61.2232 78.6485 61.1287 78.9322 61.2882C80.3566 62.1098 81.1427 63.2387 81.1368 64.468C81.1368 65.6974 80.3507 66.8263 78.9204 67.6478C77.5669 68.4339 75.7819 68.824 74.0029 68.824Z" fill="#E5340C"/>
<path id="Vector_5" d="M69.5288 69.3027C69.2451 69.3027 68.9909 69.0959 68.9436 68.8063L68.6836 67.1868C68.6599 67.0213 68.7013 66.8499 68.8077 66.7199C68.9141 66.5899 69.0677 66.5071 69.2332 66.5012L72.0407 66.3534C72.3657 66.3416 72.6435 66.5839 72.6613 66.9149C72.679 67.24 72.4308 67.5178 72.0998 67.5355L69.9484 67.6478L70.1021 68.6171C70.1553 68.9363 69.9366 69.2436 69.6115 69.2968C69.582 69.2968 69.5465 69.3027 69.5169 69.3027H69.5288Z" fill="#E5340C"/>
</g>
<g id="Group_4">
<path id="Vector_6" d="M35.4673 48.6756C35.3668 48.6756 35.2663 48.652 35.1717 48.5988C33.7473 47.7772 32.9672 46.6483 32.9672 45.4249C32.9672 44.2014 33.7532 43.0726 35.1717 42.251C37.926 40.6611 42.2346 40.6611 44.9889 42.251C45.2726 42.4165 45.3671 42.777 45.2076 43.0607C45.0421 43.3444 44.6815 43.439 44.3978 43.2794C42.016 41.9082 38.1447 41.9082 35.7628 43.2794C34.7225 43.8823 34.1492 44.6447 34.1492 45.4308C34.1492 46.2169 34.7225 46.9793 35.7628 47.5822C36.0465 47.7477 36.141 48.1082 35.9815 48.3919C35.8692 48.581 35.6741 48.6874 35.4673 48.6874V48.6756Z" fill="#E5340C"/>
<path id="Vector_7" d="M41.9096 43.5038C41.5963 43.5038 41.3363 43.2615 41.3185 42.9423C41.3008 42.6173 41.549 42.3395 41.8741 42.3218L44.0255 42.2095L43.8718 41.2401C43.8186 40.921 44.0373 40.6137 44.3624 40.5605C44.6815 40.5073 44.9889 40.7259 45.0421 41.051L45.3021 42.6705C45.3258 42.836 45.2844 43.0074 45.178 43.1374C45.0716 43.2674 44.9179 43.3502 44.7525 43.3561L41.945 43.5038C41.945 43.5038 41.9214 43.5038 41.9155 43.5038H41.9096Z" fill="#E5340C"/>
</g>
<g id="Group_5">
<g id="Axo Extrusion_2">
<g id="Group_6">
<path id="Axo panel_2" d="M49.6284 41.5002C49.6284 42.8183 50.4972 44.1304 52.2408 45.1351C55.722 47.1447 61.3664 47.1447 64.8417 45.1351C66.5794 44.1304 67.4541 42.8123 67.4541 41.5002V45.3656C67.4541 46.6837 66.5853 47.9958 64.8417 49.0005C61.3605 51.0101 55.7161 51.0101 52.2408 49.0005C50.5032 47.9958 49.6284 46.6777 49.6284 45.3656V41.5002Z" fill="#F9A390"/>
<path id="Vector_8" d="M58.5414 51.0869C56.1536 51.0869 53.7658 50.5608 51.9454 49.5147C50.0718 48.4331 49.0375 46.9614 49.0375 45.3656V41.5002C49.0375 41.1751 49.3034 40.9092 49.6285 40.9092C49.9536 40.9092 50.2196 41.1751 50.2196 41.5002C50.2196 42.6527 51.0411 43.7639 52.5364 44.6268C55.8462 46.5418 61.2365 46.5359 64.5522 44.6268C66.0476 43.7639 66.8691 42.6587 66.8691 41.5002C66.8691 41.1751 67.1351 40.9092 67.4601 40.9092C67.7852 40.9092 68.0512 41.1751 68.0512 41.5002V45.3656C68.0512 46.9614 67.0169 48.4331 65.1433 49.5147C63.3229 50.5667 60.9351 51.0869 58.5473 51.0869H58.5414ZM50.2196 44.3017V45.3656C50.2196 46.5181 51.0411 47.6293 52.5364 48.4922C55.8462 50.4072 61.2365 50.4013 64.5522 48.4922C66.0476 47.6293 66.8691 46.5181 66.8691 45.3656V44.3077C66.414 44.7982 65.8407 45.2533 65.1433 45.6552C61.5084 47.7534 55.5862 47.7534 51.9513 45.6552C51.2598 45.2533 50.6806 44.8041 50.2255 44.3077L50.2196 44.3017Z" fill="#E5340C"/>
</g>
<g id="Group_7">
<path id="Axo base_2" d="M49.6284 41.4999C49.6284 40.1819 50.4972 38.8698 52.2408 37.8651C55.722 35.8555 61.3664 35.8555 64.8417 37.8651C66.5794 38.8698 67.4541 40.1878 67.4541 41.4999C67.4541 42.8121 66.5853 44.1301 64.8417 45.1348C61.3605 47.1444 55.7161 47.1444 52.2408 45.1348C50.5032 44.1301 49.6284 42.8121 49.6284 41.4999Z" fill="white"/>
<path id="Vector_9" d="M58.5414 47.2274C56.1536 47.2274 53.7658 46.7014 51.9454 45.6553C50.0718 44.5737 49.0375 43.102 49.0375 41.5062C49.0375 39.9104 50.0718 38.4387 51.9454 37.3571C55.5862 35.2589 61.5025 35.2589 65.1374 37.3571C67.011 38.4387 68.0453 39.9104 68.0453 41.5062C68.0453 43.102 67.011 44.5737 65.1374 45.6553C63.317 46.7073 60.9292 47.2274 58.5414 47.2274ZM58.5414 36.9434C56.3663 36.9434 54.1913 37.4221 52.5364 38.3796C51.0411 39.2425 50.2196 40.3477 50.2196 41.5062C50.2196 42.6646 51.0411 43.7699 52.5364 44.6328C55.8462 46.5477 61.2365 46.5418 64.5522 44.6328C66.0476 43.7699 66.8691 42.6646 66.8691 41.5062C66.8691 40.3477 66.0476 39.2425 64.5522 38.3796C62.8973 37.4221 60.7223 36.9434 58.5473 36.9434H58.5414Z" fill="#E5340C"/>
</g>
</g>
<g id="Axo Extrusion_3">
<g id="Group_8">
<path id="Axo panel_3" d="M38.3337 52.4167C38.3337 53.7348 39.2026 55.0469 40.9461 56.0516C44.4273 58.0612 50.0718 58.0612 53.5471 56.0516C55.2847 55.0469 56.1595 53.7289 56.1595 52.4167V56.2821C56.1595 57.6002 55.2906 58.9123 53.5471 59.917C50.0659 61.9266 44.4214 61.9266 40.9461 59.917C39.2085 58.9123 38.3337 57.5942 38.3337 56.2821V52.4167Z" fill="#F9A390"/>
<path id="Vector_10" d="M47.2467 62.0031C44.8589 62.0031 42.4711 61.4771 40.6507 60.431C38.7771 59.3494 37.7428 57.8777 37.7428 56.2819V52.4165C37.7428 52.0914 38.0088 51.8254 38.3338 51.8254C38.6589 51.8254 38.9249 52.0914 38.9249 52.4165C38.9249 53.569 39.7464 54.6802 41.2417 55.5431C44.5516 57.4521 49.9418 57.4521 53.2576 55.5431C54.7529 54.6802 55.5744 53.569 55.5744 52.4165C55.5744 52.0914 55.8404 51.8254 56.1655 51.8254C56.4905 51.8254 56.7565 52.0914 56.7565 52.4165V56.2819C56.7565 57.8777 55.7222 59.3494 53.8486 60.431C52.0282 61.483 49.6404 62.0031 47.2526 62.0031H47.2467ZM38.9249 55.218V56.276C38.9249 57.4285 39.7464 58.5396 41.2417 59.4026C44.5516 61.3116 49.9418 61.3175 53.2576 59.4026C54.7529 58.5396 55.5744 57.4344 55.5744 56.276V55.218C55.1193 55.7086 54.546 56.1637 53.8486 56.5656C50.2137 58.6638 44.2915 58.6638 40.6566 56.5656C39.9651 56.1637 39.3859 55.7145 38.9308 55.218H38.9249Z" fill="#E5340C"/>
</g>
<g id="Group_9">
<path id="Axo base_3" d="M38.3337 52.4164C38.3337 51.0984 39.2026 49.7863 40.9461 48.7816C44.4273 46.772 50.0718 46.772 53.5471 48.7816C55.2847 49.7863 56.1595 51.1043 56.1595 52.4164C56.1595 53.7286 55.2906 55.0466 53.5471 56.0513C50.0659 58.0609 44.4214 58.0609 40.9461 56.0513C39.2085 55.0466 38.3337 53.7286 38.3337 52.4164Z" fill="white"/>
<path id="Vector_11" d="M47.2467 58.1378C44.8589 58.1378 42.4711 57.6118 40.6507 56.5657C38.7771 55.4841 37.7428 54.0124 37.7428 52.4166C37.7428 50.8208 38.7771 49.3491 40.6507 48.2675C44.2856 46.1693 50.2078 46.1693 53.8427 48.2675C55.7163 49.3491 56.7506 50.8208 56.7506 52.4166C56.7506 54.0124 55.7163 55.4841 53.8427 56.5657C52.0223 57.6177 49.6345 58.1378 47.2467 58.1378ZM47.2467 47.8538C45.0717 47.8538 42.8967 48.3325 41.2417 49.29C39.7464 50.1529 38.9249 51.2581 38.9249 52.4166C38.9249 53.575 39.7464 54.6803 41.2417 55.5432C44.5516 57.4522 49.9418 57.4522 53.2576 55.5432C54.7529 54.6803 55.5744 53.5691 55.5744 52.4166C55.5744 51.2641 54.7529 50.1529 53.2576 49.29C51.6026 48.3325 49.4276 47.8538 47.2526 47.8538H47.2467Z" fill="#E5340C"/>
</g>
</g>
<g id="Group_10">
<g id="Axo Extrusion_4">
<g id="Group_11">
<path id="Axo panel_4" d="M57.1582 52.4934C57.1582 53.8114 58.027 55.1235 59.7706 56.1283C63.2518 58.1378 68.8962 58.1378 72.3715 56.1283C74.1092 55.1235 74.9839 53.8055 74.9839 52.4934V56.3588C74.9839 57.6768 74.1151 58.9889 72.3715 59.9937C68.8903 62.0032 63.2459 62.0032 59.7706 59.9937C58.0329 58.9889 57.1582 57.6709 57.1582 56.3588V52.4934Z" fill="#F9A390"/>
<path id="Vector_12" d="M66.0713 62.08C63.6835 62.08 61.2957 61.554 59.4753 60.5079C57.6017 59.4263 56.5674 57.9546 56.5674 56.3588V52.4934C56.5674 52.1683 56.8334 51.9023 57.1584 51.9023C57.4835 51.9023 57.7495 52.1683 57.7495 52.4934C57.7495 53.6459 58.571 54.7571 60.0663 55.62C63.3761 57.529 68.7664 57.529 72.0821 55.62C73.5775 54.7571 74.399 53.6459 74.399 52.4934C74.399 52.1683 74.665 51.9023 74.9901 51.9023C75.3151 51.9023 75.5811 52.1683 75.5811 52.4934V56.3588C75.5811 57.9546 74.5468 59.4263 72.6732 60.5079C70.8528 61.5599 68.465 62.08 66.0772 62.08H66.0713ZM57.7495 55.2949V56.3588C57.7495 57.5113 58.571 58.6225 60.0663 59.4854C63.3761 61.3944 68.7664 61.3944 72.0821 59.4854C73.5775 58.6225 74.399 57.5113 74.399 56.3588V55.2949C73.9439 55.7855 73.3706 56.2406 72.6732 56.6425C69.0383 58.7407 63.1161 58.7407 59.4812 56.6425C58.7897 56.2406 58.2105 55.7914 57.7554 55.2949H57.7495Z" fill="#E5340C"/>
</g>
<g id="Group_12">
<path id="Axo base_4" d="M57.1582 52.4933C57.1582 51.1753 58.027 49.8632 59.7706 48.8585C63.2518 46.8489 68.8962 46.8489 72.3715 48.8585C74.1092 49.8632 74.9839 51.1812 74.9839 52.4933C74.9839 53.8055 74.1151 55.1235 72.3715 56.1282C68.8903 58.1378 63.2459 58.1378 59.7706 56.1282C58.0329 55.1235 57.1582 53.8055 57.1582 52.4933Z" fill="#F9A390"/>
<path id="Vector_13" d="M66.0713 58.2147C63.6835 58.2147 61.2957 57.6887 59.4753 56.6426C57.6017 55.561 56.5674 54.0893 56.5674 52.4935C56.5674 50.8977 57.6017 49.426 59.4753 48.3444C63.1161 46.2462 69.0324 46.2462 72.6673 48.3444C74.5409 49.426 75.5752 50.8977 75.5752 52.4935C75.5752 54.0893 74.5409 55.561 72.6673 56.6426C70.8469 57.6946 68.4591 58.2147 66.0713 58.2147ZM66.0713 47.9307C63.8963 47.9307 61.7212 48.4094 60.0663 49.3669C58.571 50.2298 57.7495 51.341 57.7495 52.4935C57.7495 53.646 58.571 54.7572 60.0663 55.6201C63.3761 57.5291 68.7664 57.5291 72.0821 55.6201C73.5775 54.7572 74.399 53.646 74.399 52.4935C74.399 51.341 73.5775 50.2298 72.0821 49.3669C70.4272 48.4094 68.2522 47.9307 66.0772 47.9307H66.0713Z" fill="#E5340C"/>
</g>
</g>
<g id="Axo Extrusion_5">
<g id="Group_13">
<path id="Axo panel_5" d="M57.1582 48.6516C57.1582 49.9696 58.027 51.2817 59.7706 52.2865C63.2518 54.296 68.8962 54.296 72.3715 52.2865C74.1092 51.2817 74.9839 49.9637 74.9839 48.6516V52.517C74.9839 53.835 74.1151 55.1471 72.3715 56.1519C68.8903 58.1614 63.2459 58.1614 59.7706 56.1519C58.0329 55.1471 57.1582 53.8291 57.1582 52.517V48.6516Z" fill="#F9A390"/>
<path id="Vector_14" d="M66.0713 58.2382C63.6835 58.2382 61.2957 57.7122 59.4753 56.6661C57.6017 55.5845 56.5674 54.1128 56.5674 52.517V48.6516C56.5674 48.3265 56.8334 48.0605 57.1584 48.0605C57.4835 48.0605 57.7495 48.3265 57.7495 48.6516C57.7495 49.8041 58.571 50.9153 60.0663 51.7782C63.3761 53.6872 68.7664 53.6931 72.0821 51.7782C73.5775 50.9153 74.399 49.81 74.399 48.6516C74.399 48.3265 74.665 48.0605 74.9901 48.0605C75.3151 48.0605 75.5811 48.3265 75.5811 48.6516V52.517C75.5811 54.1128 74.5468 55.5845 72.6732 56.6661C70.8528 57.7181 68.465 58.2382 66.0772 58.2382H66.0713ZM57.7495 51.4531V52.517C57.7495 53.6695 58.571 54.7807 60.0663 55.6436C63.3761 57.5526 68.7664 57.5526 72.0821 55.6436C73.5775 54.7807 74.399 53.6754 74.399 52.517V51.459C73.9439 51.9496 73.3706 52.4047 72.6732 52.8066C69.0383 54.9048 63.1161 54.9048 59.4812 52.8066C58.7897 52.4047 58.2105 51.9555 57.7554 51.459L57.7495 51.4531Z" fill="#E5340C"/>
</g>
<g id="Group_14">
<path id="Axo base_5" d="M57.1582 48.6518C57.1582 47.3338 58.027 46.0217 59.7706 45.0169C63.2518 43.0074 68.8962 43.0074 72.3715 45.0169C74.1092 46.0217 74.9839 47.3397 74.9839 48.6518C74.9839 49.9639 74.1151 51.2819 72.3715 52.2867C68.8903 54.2962 63.2459 54.2962 59.7706 52.2867C58.0329 51.2819 57.1582 49.9639 57.1582 48.6518Z" fill="white"/>
<path id="Vector_15" d="M66.0713 54.3727C63.6835 54.3727 61.2957 53.8467 59.4753 52.7947C57.6017 51.7131 56.5674 50.2414 56.5674 48.6456C56.5674 47.0498 57.6017 45.5781 59.4753 44.4965C63.1102 42.3983 69.0324 42.3983 72.6673 44.4965C74.5409 45.5781 75.5752 47.0498 75.5752 48.6456C75.5752 50.2414 74.5409 51.7131 72.6673 52.7947C70.8469 53.8467 68.4591 54.3727 66.0713 54.3727ZM66.0713 44.0946C63.8963 44.0946 61.7212 44.5733 60.0663 45.5308C58.571 46.3937 57.7495 47.5049 57.7495 48.6574C57.7495 49.8099 58.571 50.9211 60.0663 51.784C63.3761 53.6931 68.7664 53.699 72.0821 51.784C73.5775 50.9211 74.399 49.8158 74.399 48.6574C74.399 47.499 73.5775 46.3937 72.0821 45.5308C70.4272 44.5733 68.2522 44.0946 66.0772 44.0946H66.0713Z" fill="#E5340C"/>
</g>
</g>
</g>
</g>
</g>
</g>
<rect x="0.375" y="0.375" width="107.75" height="107.75" stroke="#FF7817" stroke-width="0.25"/>
</g>
<path id="Vector 8" d="M3.25 0.25H0.25V3.25" stroke="#E5340C" stroke-width="0.5"/>
<path id="Vector 9" d="M105.25 0.25H108.25V3.25" stroke="#E5340C" stroke-width="0.5"/>
<path id="Vector 10" d="M108.25 105.25L108.25 108.25L105.25 108.25" stroke="#E5340C" stroke-width="0.5"/>
<path id="Vector 11" d="M0.25 105.25L0.25 108.25L3.25 108.25" stroke="#E5340C" stroke-width="0.5"/>
</g>
</g>
</g>
</g>
</g>
<defs>
<linearGradient id="paint0_linear_304_11872" x1="54.25" y1="0.25" x2="54.25" y2="37.25" gradientUnits="userSpaceOnUse">
<stop stop-color="white"/>
<stop offset="1" stop-color="white" stop-opacity="0.2"/>
</linearGradient>
<linearGradient id="paint1_linear_304_11872" x1="160.75" y1="0.25" x2="160.75" y2="37.25" gradientUnits="userSpaceOnUse">
<stop stop-color="white"/>
<stop offset="1" stop-color="white" stop-opacity="0.2"/>
</linearGradient>
<linearGradient id="paint2_linear_304_11872" x1="53.5" y1="0" x2="53.5" y2="37" gradientUnits="userSpaceOnUse">
<stop stop-color="white"/>
<stop offset="1" stop-color="white" stop-opacity="0.2"/>
</linearGradient>
<linearGradient id="paint3_linear_304_11872" x1="162.25" y1="108.25" x2="162.25" y2="145.25" gradientUnits="userSpaceOnUse">
<stop stop-color="white"/>
<stop offset="1" stop-color="white" stop-opacity="0.2"/>
</linearGradient>
<clipPath id="clip0_304_11872">
<rect x="0.25" y="0.25" width="108" height="108" fill="white"/>
</clipPath>
</defs>
</svg>
