<svg width="109" height="109" viewBox="0 0 109 109" fill="none" xmlns="http://www.w3.org/2000/svg">
<rect width="109" height="109" fill="#F5F5F5"/>
<g id="Home">
<rect width="1440" height="8722" transform="translate(-729.75 -3851.75)" fill="white"/>
<g id="Frame 89">
<g id="Group 8">
<g id="Frame 86">
<g id="Group 6">
<g id="Frame 77">
<g clip-path="url(#clip0_304_11872)">
<rect x="0.25" y="0.25" width="108" height="108" fill="white"/>
<g id="Group 2">
<path id="Vector 1" d="M20.196 19.3164L108.512 71.1944" stroke="#F8DFDA" stroke-width="0.617595" stroke-dasharray="3.09 3.09"/>
<path id="Vector 4" d="M7.84424 29.1978L96.1604 81.0758" stroke="#F8DFDA" stroke-width="0.617595" stroke-dasharray="3.09 3.09"/>
<path id="Vector 5" d="M-4.50781 37.844L83.8083 89.722" stroke="#F8DFDA" stroke-width="0.617595" stroke-dasharray="3.09 3.09"/>
<path id="Vector 6" d="M-18.095 45.2554L70.2212 97.1334" stroke="#F8DFDA" stroke-width="0.617595" stroke-dasharray="3.09 3.09"/>
<path id="Vector 7" d="M-29.8293 55.137L58.4868 107.015" stroke="#F8DFDA" stroke-width="0.617595" stroke-dasharray="3.09 3.09"/>
<path id="Vector 2" d="M30.0776 9.43457L118.394 61.3126" stroke="#F8DFDA" stroke-width="0.617595" stroke-dasharray="3.09 3.09"/>
<path id="Vector 3" d="M46.7527 1.40601L135.069 53.284" stroke="#F8DFDA" stroke-width="0.617595" stroke-dasharray="3.09 3.09"/>
<line id="Line 8" x1="-26.9015" y1="66.6068" x2="71.9137" y2="6.70004" stroke="#F8DFDA" stroke-width="0.617595" stroke-dasharray="3.09 3.09"/>
<line id="Line 9" x1="-9.60882" y1="73.4005" x2="89.2064" y2="13.4937" stroke="#F8DFDA" stroke-width="0.617595" stroke-dasharray="3.09 3.09"/>
<line id="Line 10" x1="-0.344901" y1="83.2821" x2="98.4703" y2="23.3753" stroke="#F8DFDA" stroke-width="0.617595" stroke-dasharray="3.09 3.09"/>
<line id="Line 11" x1="14.4776" y1="93.7813" x2="113.293" y2="33.8746" stroke="#F8DFDA" stroke-width="0.617595" stroke-dasharray="3.09 3.09"/>
<line id="Line 12" x1="26.2117" y1="101.192" x2="125.027" y2="41.2855" stroke="#F8DFDA" stroke-width="0.617595" stroke-dasharray="3.09 3.09"/>
<line id="Line 13" x1="39.7991" y1="107.986" x2="138.614" y2="48.0792" stroke="#F8DFDA" stroke-width="0.617595" stroke-dasharray="3.09 3.09"/>
</g>
<rect id="Rectangle 12" x="0.25" y="0.25" width="108" height="37" fill="url(#paint0_linear_304_11872)"/>
<rect id="Rectangle 14" x="107.25" y="0.25" width="107" height="37" transform="rotate(90 107.25 0.25)" fill="url(#paint1_linear_304_11872)"/>
<rect id="Rectangle 15" width="107" height="37" transform="matrix(4.37114e-08 1 1 -4.37114e-08 0.25 0.25)" fill="url(#paint2_linear_304_11872)"/>
<rect id="Rectangle 13" x="108.25" y="108.25" width="108" height="37" transform="rotate(-180 108.25 108.25)" fill="url(#paint3_linear_304_11872)"/>
</g>
<rect x="0.375" y="0.375" width="107.75" height="107.75" stroke="#FF7817" stroke-width="0.25"/>
</g>
<path id="Vector 8" d="M3.25 0.25H0.25V3.25" stroke="#E5340C" stroke-width="0.5"/>
<path id="Vector 9" d="M105.25 0.25H108.25V3.25" stroke="#E5340C" stroke-width="0.5"/>
<path id="Vector 10" d="M108.25 105.25L108.25 108.25L105.25 108.25" stroke="#E5340C" stroke-width="0.5"/>
<path id="Vector 11" d="M0.25 105.25L0.25 108.25L3.25 108.25" stroke="#E5340C" stroke-width="0.5"/>
<g id="object" clip-path="url(#clip1_304_11872)">
<g id="Group">
<g id="Group_2">
<g id="Axo Extrusion">
<g id="Axo Extrusion_2">
<g id="Group_3">
<path id="Axo base" d="M61.7731 17.0663C62.25 17.3384 62.6295 17.785 62.809 18.3651L72.0756 48.2945L20.9064 77.731L11.9936 48.9567C11.291 46.6876 12.2551 44.2337 14.3218 43.0479L59.4859 17.0663C60.2295 16.6402 61.0961 16.6813 61.7731 17.0663Z" fill="white"/>
<path id="Vector" d="M20.9065 78.2442C20.845 78.2442 20.7783 78.234 20.7168 78.2083C20.5732 78.1518 20.4604 78.0338 20.4142 77.8849L11.5065 49.1055C10.727 46.59 11.7835 43.9154 14.0706 42.6011L59.2296 16.6196C60.0911 16.1216 61.1629 16.1268 62.0245 16.6196C62.6347 16.9738 63.086 17.5385 63.2963 18.211L72.5629 48.1404C72.6347 48.3714 72.5373 48.6178 72.327 48.7359L21.1629 78.1775C21.086 78.2237 20.9937 78.2442 20.9065 78.2442ZM60.6245 17.2716C60.3219 17.2716 60.0142 17.3537 59.7373 17.5129L14.5783 43.4893C12.7117 44.5622 11.8501 46.7491 12.486 48.8026L21.2091 76.966L71.4706 48.0531L62.3168 18.5191C62.1835 18.093 61.9014 17.7336 61.5117 17.5129C61.2347 17.3537 60.927 17.2716 60.6194 17.2716H60.6245Z" fill="#E5340C"/>
</g>
</g>
</g>
<g id="Group_4">
<path id="Vector_2" d="M69.0653 47.124L22.3833 73.9782L14.4294 48.2893L61.1012 21.4197L69.0653 47.124Z" fill="white"/>
<path id="Vector_3" d="M22.3834 74.4917C22.3218 74.4917 22.2552 74.4814 22.1936 74.4557C22.0501 74.3993 21.9372 74.2812 21.8911 74.1323L13.9372 48.4434C13.8654 48.2124 13.9629 47.966 14.1731 47.8479L60.8449 20.9731C60.9783 20.8961 61.1424 20.8807 61.286 20.9423C61.4295 20.9988 61.5424 21.1169 61.5885 21.2657L69.5475 46.97C69.6193 47.2011 69.5219 47.4475 69.3116 47.5655L22.6398 74.4198C22.5629 74.466 22.4706 74.4865 22.3834 74.4865V74.4917ZM15.0398 48.5307L22.686 73.2134L68.4552 46.8828L60.8039 22.1847L15.0398 48.5307Z" fill="#E5340C"/>
</g>
</g>
<g id="Axo Extrusion_3">
<g id="Group_5">
<path id="Axo base_2" d="M20.9065 77.7309L72.0757 48.2944L94.8603 61.4007C96.1116 62.1194 96.7373 63.3823 96.7373 64.6401C96.7373 65.8978 96.1116 67.1556 94.8603 67.8794L53.6603 91.5765C50.9732 93.1217 47.6655 93.1217 44.9783 91.5765L20.9065 77.7309Z" fill="white"/>
<path id="Vector_4" d="M49.3166 93.2501C47.7269 93.2501 46.1371 92.8445 44.7218 92.0283L20.65 78.1827C20.491 78.0903 20.3936 77.9209 20.3936 77.7361C20.3936 77.5513 20.491 77.3819 20.65 77.2895L71.8192 47.853C71.9782 47.7606 72.173 47.7606 72.332 47.853L95.1166 60.9593C96.4551 61.7293 97.25 63.1051 97.25 64.6452C97.25 66.1853 96.45 67.5612 95.1166 68.3261L53.9166 92.0283C52.5012 92.8445 50.9115 93.2501 49.3218 93.2501H49.3166ZM21.932 77.731L45.2346 91.135C47.7525 92.5827 50.8859 92.5827 53.4038 91.135L94.6038 67.4328C95.6192 66.8476 96.2243 65.8055 96.2243 64.6401C96.2243 63.4748 95.6192 62.4275 94.6038 61.8423L72.0756 48.8849L21.932 77.731Z" fill="#E5340C"/>
</g>
</g>
<g id="Group_6">
<path id="Vector_5" d="M69.7784 72.4895L61.3682 77.3306L66.9784 80.5596L75.3938 75.7186L69.7784 72.4895Z" fill="white"/>
<path id="Vector_6" d="M66.9783 81.0731C66.8911 81.0731 66.8039 81.0525 66.7219 81.0063L61.1065 77.7773C60.9475 77.6848 60.8501 77.5154 60.8501 77.3306C60.8501 77.1458 60.9475 76.9764 61.1065 76.884L69.5219 72.0429C69.6809 71.9505 69.8757 71.9505 70.0347 72.0429L75.6501 75.272C75.8091 75.3644 75.9065 75.5338 75.9065 75.7186C75.9065 75.9035 75.8091 76.0729 75.6501 76.1653L67.2347 81.0063C67.1578 81.0525 67.0655 81.0731 66.9783 81.0731ZM62.3937 77.3306L66.9783 79.9693L74.3629 75.7238L69.7783 73.0851L62.3937 77.3358V77.3306Z" fill="#E5340C"/>
</g>
<g id="Group_7">
<path id="Vector_7" d="M28.0192 79.3892C27.8397 79.3892 27.6704 79.2968 27.573 79.1325C27.4294 78.8861 27.5166 78.5729 27.7628 78.4292L29.1986 77.6027C29.4448 77.4589 29.7576 77.5462 29.9012 77.7926C30.0397 78.039 29.9576 78.3522 29.7115 78.4959L28.2756 79.3224C28.1935 79.3686 28.1063 79.3892 28.0192 79.3892ZM31.6807 77.2844C31.5012 77.2844 31.332 77.192 31.2345 77.0277C31.091 76.7813 31.1781 76.4681 31.4243 76.3244L33.6499 75.0461C33.8961 74.9023 34.2089 74.9896 34.3525 75.236C34.4961 75.4825 34.4089 75.7956 34.1628 75.9394L31.9371 77.2176C31.8551 77.2638 31.7679 77.2844 31.6807 77.2844ZM36.1269 74.7227C35.9474 74.7227 35.7781 74.6303 35.6807 74.466C35.5371 74.2196 35.6243 73.9064 35.8704 73.7627L38.0961 72.4844C38.3422 72.3406 38.6551 72.4279 38.7986 72.6743C38.9422 72.9208 38.8551 73.2339 38.6089 73.3776L36.3833 74.6559C36.3012 74.7021 36.214 74.7227 36.1269 74.7227ZM40.573 72.1661C40.3935 72.1661 40.2243 72.0737 40.1269 71.9094C39.9833 71.663 40.0704 71.3498 40.3166 71.2061L42.5422 69.9278C42.7884 69.7841 43.1012 69.8713 43.2448 70.1178C43.3884 70.3642 43.3012 70.6773 43.0551 70.8211L40.8294 72.0994C40.7474 72.1456 40.6602 72.1661 40.573 72.1661ZM45.0192 69.6095C44.8397 69.6095 44.6704 69.5171 44.573 69.3528C44.4294 69.1064 44.5166 68.7933 44.7628 68.6495L46.9884 67.3713C47.2345 67.2275 47.5474 67.3148 47.691 67.5612C47.8345 67.8076 47.7474 68.1208 47.5012 68.2645L45.2756 69.5428C45.1935 69.589 45.1063 69.6095 45.0192 69.6095ZM49.4653 67.053C49.2858 67.053 49.1166 66.9606 49.0192 66.7963C48.8756 66.5499 48.9627 66.2367 49.2089 66.093L51.4345 64.8147C51.6807 64.6709 51.9935 64.7582 52.1371 65.0046C52.2807 65.251 52.1935 65.5642 51.9474 65.7079L49.7217 66.9862C49.6397 67.0324 49.5525 67.053 49.4653 67.053ZM53.9166 64.4964C53.7371 64.4964 53.5679 64.404 53.4704 64.2397C53.3269 63.9933 53.414 63.6801 53.6602 63.5364L55.8858 62.2581C56.132 62.1144 56.4448 62.2016 56.5884 62.4481C56.732 62.6945 56.6448 63.0076 56.3986 63.1514L54.173 64.4297C54.091 64.4759 54.0038 64.4964 53.9166 64.4964ZM58.3628 61.9347C58.1833 61.9347 58.014 61.8423 57.9166 61.678C57.773 61.4316 57.8602 61.1184 58.1063 60.9747L60.332 59.6964C60.5781 59.5527 60.891 59.6399 61.0345 59.8864C61.1781 60.1328 61.091 60.4459 60.8448 60.5897L58.6192 61.8679C58.5371 61.9142 58.4499 61.9347 58.3628 61.9347ZM62.8089 59.3781C62.6294 59.3781 62.4602 59.2857 62.3628 59.1214C62.2192 58.875 62.3063 58.5619 62.5525 58.4181L64.7781 57.1398C65.0243 56.9961 65.3371 57.0834 65.4807 57.3298C65.6192 57.5762 65.5371 57.8894 65.291 58.0331L63.0653 59.3114C62.9833 59.3576 62.8961 59.3781 62.8089 59.3781ZM67.2551 56.8215C67.0756 56.8215 66.9063 56.7291 66.8089 56.5649C66.6653 56.3184 66.7525 56.0053 66.9986 55.8616L69.2243 54.5833C69.4704 54.4395 69.7833 54.5268 69.9269 54.7732C70.0704 55.0196 69.9833 55.3328 69.7371 55.4765L67.5115 56.7548C67.4294 56.801 67.3422 56.8215 67.2551 56.8215ZM71.7012 54.265C71.5217 54.265 71.3525 54.1726 71.2551 54.0083C71.1115 53.7619 71.1987 53.4487 71.4448 53.305L73.6704 52.0267C73.9166 51.883 74.2294 51.9702 74.373 52.2166C74.5166 52.4631 74.4294 52.7762 74.1833 52.92L71.9576 54.1982C71.8756 54.2444 71.7884 54.265 71.7012 54.265Z" fill="#E5340C"/>
<path id="Vector_8" d="M31.3269 81.2888C31.1475 81.2888 30.9782 81.1964 30.8808 81.0321C30.7423 80.7857 30.8244 80.4725 31.0705 80.3288L32.5064 79.5022C32.7526 79.3636 33.0654 79.4458 33.209 79.6922C33.3526 79.9386 33.2654 80.2518 33.0192 80.3955L31.5834 81.222C31.5013 81.2682 31.4141 81.2888 31.3269 81.2888ZM34.9885 79.184C34.809 79.184 34.6398 79.0915 34.5423 78.9273C34.3987 78.6808 34.4859 78.3677 34.7321 78.224L36.9577 76.9457C37.2039 76.8071 37.5167 76.8892 37.6603 77.1356C37.8039 77.382 37.7167 77.6952 37.4705 77.8389L35.2449 79.1172C35.1628 79.1634 35.0757 79.184 34.9885 79.184ZM39.4346 76.6274C39.2551 76.6274 39.0859 76.535 38.9885 76.3707C38.8449 76.1243 38.9321 75.8111 39.1782 75.6674L41.4039 74.3891C41.65 74.2505 41.9628 74.3326 42.1064 74.579C42.25 74.8255 42.1628 75.1386 41.9167 75.2824L39.691 76.5606C39.609 76.6068 39.5218 76.6274 39.4346 76.6274ZM43.8808 74.0708C43.7013 74.0708 43.5321 73.9784 43.4346 73.8141C43.291 73.5677 43.3782 73.2546 43.6244 73.1108L45.85 71.8325C46.0962 71.6939 46.409 71.7761 46.5526 72.0225C46.6962 72.2689 46.609 72.582 46.3628 72.7258L44.1372 74.0041C44.0551 74.0503 43.968 74.0708 43.8808 74.0708ZM48.3269 71.5091C48.1475 71.5091 47.9782 71.4167 47.8808 71.2524C47.7372 71.006 47.8244 70.6929 48.0705 70.5491L50.2962 69.2708C50.5423 69.1322 50.8551 69.2144 50.9987 69.4608C51.1423 69.7072 51.0551 70.0203 50.809 70.1641L48.5834 71.4424C48.5013 71.4886 48.4141 71.5091 48.3269 71.5091ZM52.7782 68.9525C52.5987 68.9525 52.4295 68.8601 52.3321 68.6959C52.1885 68.4494 52.2757 68.1363 52.5218 67.9925L54.7475 66.7143C54.9936 66.5756 55.3064 66.6578 55.45 66.9042C55.5936 67.1506 55.5064 67.4638 55.2603 67.6075L53.0346 68.8858C52.9526 68.932 52.8654 68.9525 52.7782 68.9525ZM57.2244 66.396C57.0449 66.396 56.8757 66.3036 56.7782 66.1393C56.6346 65.8929 56.7218 65.5797 56.968 65.436L59.1936 64.1577C59.4398 64.0191 59.7526 64.1012 59.8962 64.3476C60.0398 64.594 59.9526 64.9072 59.7064 65.0509L57.4808 66.3292C57.3987 66.3754 57.3116 66.396 57.2244 66.396ZM61.6705 63.8394C61.491 63.8394 61.3218 63.747 61.2244 63.5827C61.0808 63.3363 61.168 63.0231 61.4141 62.8794L63.6398 61.6011C63.8859 61.4625 64.1987 61.5446 64.3423 61.7911C64.4859 62.0375 64.3987 62.3506 64.1526 62.4944L61.9269 63.7727C61.8449 63.8189 61.7577 63.8394 61.6705 63.8394ZM66.1167 61.2828C65.9372 61.2828 65.768 61.1904 65.6705 61.0261C65.5269 60.7797 65.6141 60.4666 65.8603 60.3228L68.0859 59.0445C68.3321 58.9008 68.6449 58.9881 68.7885 59.2345C68.9321 59.4809 68.8449 59.7941 68.5987 59.9378L66.3731 61.2161C66.291 61.2623 66.2039 61.2828 66.1167 61.2828ZM70.5628 58.7211C70.3834 58.7211 70.2141 58.6287 70.1167 58.4644C69.9731 58.218 70.0603 57.9049 70.3064 57.7611L72.5321 56.4828C72.7782 56.3391 73.091 56.4264 73.2346 56.6728C73.3782 56.9192 73.291 57.2324 73.0449 57.3761L70.8193 58.6544C70.7372 58.7006 70.65 58.7211 70.5628 58.7211ZM75.009 56.1646C74.8295 56.1646 74.6603 56.0721 74.5628 55.9079C74.4193 55.6615 74.5064 55.3483 74.7526 55.2046L76.9782 53.9263C77.2244 53.7877 77.5372 53.8698 77.6808 54.1162C77.8192 54.3626 77.7372 54.6758 77.491 54.8195L75.2705 56.0978C75.1885 56.144 75.1013 56.1646 75.0141 56.1646H75.009Z" fill="#E5340C"/>
<path id="Vector_9" d="M34.6346 83.1933C34.4551 83.1933 34.2858 83.1009 34.1884 82.9366C34.0499 82.6902 34.132 82.377 34.3781 82.2333L35.814 81.4068C36.0602 81.263 36.373 81.3503 36.5166 81.5967C36.6602 81.8431 36.573 82.1563 36.3269 82.3L34.891 83.1266C34.8089 83.1728 34.7217 83.1933 34.6346 83.1933ZM38.2961 81.0885C38.1166 81.0885 37.9474 80.9961 37.8499 80.8318C37.7064 80.5854 37.7935 80.2722 38.0397 80.1285L40.2653 78.8502C40.5115 78.7065 40.8243 78.7937 40.9679 79.0402C41.1115 79.2866 41.0243 79.5997 40.7781 79.7435L38.5525 81.0218C38.4705 81.068 38.3833 81.0885 38.2961 81.0885ZM42.7423 78.5268C42.5628 78.5268 42.3935 78.4344 42.2961 78.2701C42.1525 78.0237 42.2397 77.7105 42.4858 77.5668L44.7115 76.2885C44.9576 76.1448 45.2705 76.232 45.414 76.4785C45.5576 76.7249 45.4705 77.038 45.2243 77.1818L42.9987 78.4601C42.9166 78.5063 42.8294 78.5268 42.7423 78.5268ZM47.1884 75.9702C47.0089 75.9702 46.8397 75.8778 46.7423 75.7135C46.5987 75.4671 46.6858 75.154 46.932 75.0102L49.1576 73.7319C49.4038 73.5882 49.7166 73.6755 49.8602 73.9219C50.0038 74.1683 49.9166 74.4815 49.6705 74.6252L47.4448 75.9035C47.3628 75.9497 47.2756 75.9702 47.1884 75.9702ZM51.6397 73.4136C51.4602 73.4136 51.291 73.3212 51.1935 73.157C51.0499 72.9105 51.1371 72.5974 51.3833 72.4537L53.6089 71.1754C53.8551 71.0316 54.1679 71.1189 54.3115 71.3653C54.4551 71.6117 54.3679 71.9249 54.1217 72.0686L51.8961 73.3469C51.814 73.3931 51.7269 73.4136 51.6397 73.4136ZM56.0858 70.8571C55.9064 70.8571 55.7371 70.7647 55.6397 70.6004C55.4961 70.354 55.5833 70.0408 55.8294 69.8971L58.0551 68.6188C58.3012 68.4802 58.614 68.5623 58.7576 68.8087C58.9012 69.0552 58.814 69.3683 58.5679 69.5121L56.3423 70.7903C56.2602 70.8365 56.173 70.8571 56.0858 70.8571ZM60.532 68.3005C60.3525 68.3005 60.1833 68.2081 60.0858 68.0438C59.9423 67.7974 60.0294 67.4843 60.2756 67.3405L62.5012 66.0622C62.7474 65.9185 63.0602 66.0058 63.2038 66.2522C63.3474 66.4986 63.2602 66.8117 63.014 66.9555L60.7884 68.2338C60.7064 68.28 60.6192 68.3005 60.532 68.3005ZM64.9781 65.7388C64.7987 65.7388 64.6294 65.6464 64.532 65.4821C64.3884 65.2357 64.4756 64.9225 64.7217 64.7788L66.9474 63.5005C67.1935 63.3568 67.5064 63.4441 67.6499 63.6905C67.7935 63.9369 67.7064 64.25 67.4602 64.3938L65.2346 65.6721C65.1525 65.7183 65.0653 65.7388 64.9781 65.7388ZM69.4243 63.1822C69.2448 63.1822 69.0756 63.0898 68.9781 62.9255C68.8346 62.6791 68.9217 62.366 69.1679 62.2222L71.3935 60.9439C71.6397 60.8053 71.9525 60.8875 72.0961 61.1339C72.2397 61.3803 72.1525 61.6935 71.9064 61.8372L69.6807 63.1155C69.5987 63.1617 69.5115 63.1822 69.4243 63.1822ZM73.8705 60.6257C73.691 60.6257 73.5217 60.5333 73.4243 60.369C73.2807 60.1226 73.3679 59.8094 73.614 59.6657L75.8397 58.3874C76.0858 58.2488 76.3987 58.3309 76.5423 58.5773C76.6858 58.8237 76.5987 59.1369 76.3525 59.2806L74.1269 60.5589C74.0448 60.6051 73.9576 60.6257 73.8705 60.6257ZM78.3166 58.0691C78.1371 58.0691 77.9679 57.9767 77.8705 57.8124C77.732 57.566 77.814 57.2528 78.0602 57.1091L80.2858 55.8308C80.532 55.6922 80.8448 55.7743 80.9884 56.0208C81.1269 56.2672 81.0448 56.5803 80.7987 56.7241L78.573 58.0024C78.491 58.0486 78.4038 58.0691 78.3166 58.0691Z" fill="#E5340C"/>
<path id="Vector_10" d="M37.9473 85.0927C37.7678 85.0927 37.5986 85.0003 37.5011 84.836C37.3627 84.5896 37.4447 84.2765 37.6909 84.1327L39.1268 83.3062C39.3729 83.1624 39.6858 83.2497 39.8294 83.4961C39.9678 83.7426 39.8858 84.0557 39.6396 84.1995L38.2037 85.026C38.1217 85.0722 38.0345 85.0927 37.9473 85.0927ZM41.6037 82.9879C41.4242 82.9879 41.255 82.8955 41.1576 82.7312C41.014 82.4848 41.1011 82.1717 41.3473 82.0279L43.5729 80.7496C43.8191 80.6059 44.1319 80.6932 44.2755 80.9396C44.4191 81.186 44.3319 81.4991 44.0858 81.6429L41.8601 82.9212C41.7781 82.9674 41.6909 82.9879 41.6037 82.9879ZM46.0499 80.4313C45.8704 80.4313 45.7011 80.3389 45.6037 80.1746C45.4601 79.9282 45.5473 79.6151 45.7935 79.4713L48.0191 78.1931C48.2652 78.0493 48.5781 78.1366 48.7217 78.383C48.8653 78.6294 48.7781 78.9426 48.5319 79.0863L46.3063 80.3646C46.2242 80.4108 46.137 80.4313 46.0499 80.4313ZM50.496 77.8748C50.3165 77.8748 50.1473 77.7824 50.0499 77.6181C49.9063 77.3717 49.9935 77.0585 50.2396 76.9148L52.4653 75.6365C52.7114 75.4979 53.0242 75.58 53.1678 75.8264C53.3114 76.0728 53.2242 76.386 52.9781 76.5297L50.7524 77.808C50.6704 77.8542 50.5832 77.8748 50.496 77.8748ZM54.9473 75.3131C54.7678 75.3131 54.5986 75.2207 54.5011 75.0564C54.3576 74.81 54.4447 74.4968 54.6909 74.3531L56.9165 73.0748C57.1627 72.931 57.4755 73.0183 57.6191 73.2647C57.7627 73.5111 57.6755 73.8243 57.4294 73.968L55.2037 75.2463C55.1217 75.2925 55.0345 75.3131 54.9473 75.3131ZM59.3935 72.7565C59.214 72.7565 59.0447 72.6641 58.9473 72.4998C58.8037 72.2534 58.8909 71.9402 59.137 71.7965L61.3627 70.5182C61.6088 70.3745 61.9217 70.4617 62.0653 70.7082C62.2088 70.9546 62.1217 71.2677 61.8755 71.4115L59.6499 72.6898C59.5678 72.736 59.4806 72.7565 59.3935 72.7565ZM63.8396 70.1999C63.6601 70.1999 63.4909 70.1075 63.3935 69.9432C63.2499 69.6968 63.337 69.3837 63.5832 69.2399L65.8088 67.9616C66.055 67.8179 66.3678 67.9052 66.5114 68.1516C66.655 68.398 66.5678 68.7112 66.3217 68.8549L64.096 70.1332C64.014 70.1794 63.9268 70.1999 63.8396 70.1999ZM68.2858 67.6433C68.1063 67.6433 67.937 67.5509 67.8396 67.3867C67.696 67.1402 67.7832 66.8271 68.0294 66.6834L70.255 65.4051C70.5011 65.2613 70.814 65.3486 70.9576 65.595C71.1012 65.8414 71.014 66.1546 70.7678 66.2983L68.5422 67.5766C68.4601 67.6228 68.3729 67.6433 68.2858 67.6433ZM72.7319 65.0868C72.5524 65.0868 72.3832 64.9944 72.2858 64.8301C72.1422 64.5837 72.2294 64.2705 72.4755 64.1268L74.7012 62.8485C74.9473 62.7048 75.2601 62.792 75.4037 63.0384C75.5422 63.2849 75.4601 63.598 75.214 63.7418L72.9883 65.02C72.9063 65.0662 72.8191 65.0868 72.7319 65.0868ZM77.1781 62.5251C76.9986 62.5251 76.8294 62.4327 76.7319 62.2684C76.5883 62.022 76.6755 61.7088 76.9217 61.5651L79.1473 60.2868C79.3935 60.1482 79.7063 60.2303 79.8499 60.4767C79.9883 60.7232 79.9063 61.0363 79.6601 61.1801L77.4345 62.4583C77.3524 62.5045 77.2653 62.5251 77.1781 62.5251ZM81.6242 59.9685C81.4447 59.9685 81.2755 59.8761 81.1781 59.7118C81.0396 59.4654 81.1217 59.1523 81.3678 59.0085L83.5935 57.7302C83.8396 57.5916 84.1524 57.6738 84.296 57.9202C84.4345 58.1666 84.3524 58.4797 84.1063 58.6235L81.8806 59.9018C81.7986 59.948 81.7114 59.9685 81.6242 59.9685Z" fill="#E5340C"/>
</g>
</g>
<g id="Group_8">
<path id="Vector_11" d="M51.091 48.058L49.973 48.6997L49.6551 47.673L48.6294 48.2582L46.7423 42.1594L47.573 41.682L47.2653 40.6912L48.5782 39.9366L48.1064 38.417L39.5371 40.7579L32.4141 47.4009L32.891 48.9462L34.2038 48.1915L34.4141 48.8743L34.5423 49.1618L35.3371 48.7049L37.2243 54.8037L36.1987 55.3889L36.5166 56.4157L35.3987 57.0574L36.05 59.157L51.7371 50.1577L51.0859 48.0529L51.091 48.058ZM46.5987 49.4287L43.8961 50.9791L42.0089 44.8803L44.7115 43.3299L46.5987 49.4287ZM37.373 47.5395L39.973 46.0456L41.8602 52.1444L39.2602 53.6383L37.373 47.5395Z" fill="#F9A390"/>
<path id="Vector_12" d="M36.0551 59.6705C35.9936 59.6705 35.9269 59.6603 35.8654 59.6346C35.7218 59.5781 35.609 59.46 35.5628 59.3112L34.9115 57.2115C34.8398 56.9805 34.9372 56.7341 35.1474 56.616L35.9115 56.1796L35.7167 55.5482C35.6449 55.3172 35.7423 55.0707 35.9526 54.9527L36.6192 54.5676L35.0449 49.475L34.8039 49.6136C34.6808 49.6855 34.5269 49.7009 34.3885 49.6547C34.25 49.6085 34.1372 49.511 34.0808 49.3775L33.9526 49.09C33.9526 49.09 33.9372 49.0489 33.9321 49.0284L33.9115 48.9565L33.1526 49.3929C33.0192 49.4699 32.8551 49.4853 32.7115 49.4237C32.568 49.3672 32.4551 49.2492 32.409 49.1003L31.9321 47.555C31.8757 47.3651 31.9321 47.1598 32.0705 47.0263L39.1936 40.3833C39.2551 40.3268 39.3269 40.2858 39.409 40.2652L47.9782 37.9243C48.2449 37.8524 48.5218 38.0013 48.6039 38.2682L49.0757 39.7878C49.1474 40.0188 49.05 40.2652 48.8398 40.3833L47.8808 40.9326L48.0654 41.5281C48.1372 41.7591 48.0398 42.0055 47.8295 42.1236L47.3577 42.3957L48.9372 47.4883L49.4039 47.2214C49.5372 47.1444 49.7013 47.1341 49.8449 47.1906C49.9885 47.247 50.1013 47.3651 50.1474 47.514L50.2757 47.9298L50.8398 47.6064C50.9731 47.5294 51.1372 47.5191 51.2808 47.5756C51.4244 47.6321 51.5372 47.7501 51.5833 47.899L52.2346 50.0038C52.3064 50.2348 52.209 50.4812 51.9987 50.5993L36.3115 59.5986C36.2346 59.6449 36.1474 59.6654 36.0551 59.6654V59.6705ZM36.0141 57.2988L36.3526 58.3974L51.1321 49.9217L50.7936 48.8231L50.2295 49.1465C50.0962 49.2235 49.9321 49.2338 49.7885 49.1773C49.6449 49.1208 49.5321 49.0027 49.4859 48.8539L49.3577 48.438L48.891 48.705C48.7577 48.782 48.5936 48.7923 48.45 48.7358C48.3064 48.6793 48.1936 48.5612 48.1474 48.4124L46.2603 42.3136C46.1885 42.0825 46.2859 41.8361 46.4962 41.7181L46.968 41.446L46.7833 40.8453C46.7115 40.6143 46.809 40.3679 47.0192 40.2498L47.9782 39.7005L47.7782 39.0485L39.809 41.2252L33.0141 47.5602L33.209 48.1814L33.968 47.745C34.1013 47.668 34.2654 47.6577 34.409 47.7142C34.5526 47.7707 34.6654 47.8887 34.7115 48.0376L34.8295 48.4175L35.1064 48.2584C35.2398 48.1814 35.4039 48.1711 35.5474 48.2276C35.691 48.284 35.8039 48.4021 35.85 48.551L37.7372 54.6498C37.809 54.8808 37.7115 55.1272 37.5013 55.2453L36.8346 55.6303L37.0295 56.2618C37.1013 56.4928 37.0039 56.7392 36.7936 56.8573L36.0295 57.2936L36.0141 57.2988ZM39.2603 54.1518C39.1987 54.1518 39.1321 54.1416 39.0705 54.1159C38.9269 54.0594 38.8141 53.9413 38.768 53.7925L36.8808 47.6937C36.809 47.4626 36.9064 47.2162 37.1167 47.0981L39.7167 45.6042C39.85 45.5272 40.0141 45.517 40.1577 45.5734C40.3013 45.6299 40.4141 45.748 40.4603 45.8969L42.3474 51.9957C42.4192 52.2267 42.3218 52.4731 42.1115 52.5912L39.5115 54.0851C39.4346 54.1313 39.3474 54.1518 39.2551 54.1518H39.2603ZM37.9885 47.7809L39.568 52.8735L41.2551 51.9033L39.6757 46.8107L37.9885 47.7809ZM43.8962 51.4926C43.8346 51.4926 43.768 51.4823 43.7064 51.4566C43.5628 51.4002 43.45 51.2821 43.4039 51.1332L41.5167 45.0344C41.4449 44.8034 41.5423 44.557 41.7526 44.4389L44.4551 42.8885C44.5885 42.8115 44.7526 42.8013 44.8962 42.8577C45.0398 42.9142 45.1526 43.0323 45.1987 43.1812L47.0859 49.28C47.1577 49.511 47.0603 49.7574 46.85 49.8755L44.1474 51.4258C44.0705 51.472 43.9833 51.4926 43.891 51.4926H43.8962ZM42.6192 45.1217L44.1987 50.2143L45.9936 49.1876L44.4141 44.0949L42.6192 45.1217Z" fill="#E5340C"/>
</g>
</g>
</g>
</g>
</g>
</g>
</g>
<defs>
<linearGradient id="paint0_linear_304_11872" x1="54.25" y1="0.25" x2="54.25" y2="37.25" gradientUnits="userSpaceOnUse">
<stop stop-color="white"/>
<stop offset="1" stop-color="white" stop-opacity="0.2"/>
</linearGradient>
<linearGradient id="paint1_linear_304_11872" x1="160.75" y1="0.25" x2="160.75" y2="37.25" gradientUnits="userSpaceOnUse">
<stop stop-color="white"/>
<stop offset="1" stop-color="white" stop-opacity="0.2"/>
</linearGradient>
<linearGradient id="paint2_linear_304_11872" x1="53.5" y1="0" x2="53.5" y2="37" gradientUnits="userSpaceOnUse">
<stop stop-color="white"/>
<stop offset="1" stop-color="white" stop-opacity="0.2"/>
</linearGradient>
<linearGradient id="paint3_linear_304_11872" x1="162.25" y1="108.25" x2="162.25" y2="145.25" gradientUnits="userSpaceOnUse">
<stop stop-color="white"/>
<stop offset="1" stop-color="white" stop-opacity="0.2"/>
</linearGradient>
<clipPath id="clip0_304_11872">
<rect x="0.25" y="0.25" width="108" height="108" fill="white"/>
</clipPath>
<clipPath id="clip1_304_11872">
<rect width="86" height="77" fill="white" transform="translate(11.25 16.25)"/>
</clipPath>
</defs>
</svg>
