<svg width="109" height="109" viewBox="0 0 109 109" fill="none" xmlns="http://www.w3.org/2000/svg">
<rect width="109" height="109" fill="#F5F5F5"/>
<g id="Home">
<rect width="1440" height="8722" transform="translate(-1047.75 -3851.75)" fill="white"/>
<g id="Frame 89">
<g id="Group 8">
<g id="Frame 85">
<g id="Group 7">
<g id="Frame 77">
<g clip-path="url(#clip0_304_11872)">
<rect x="0.25" y="0.25" width="108" height="108" fill="white"/>
<g id="Group 2">
<path id="Vector 1" d="M20.196 19.3164L108.512 71.1944" stroke="#F8DFDA" stroke-width="0.617595" stroke-dasharray="3.09 3.09"/>
<path id="Vector 4" d="M7.84424 29.1978L96.1604 81.0758" stroke="#F8DFDA" stroke-width="0.617595" stroke-dasharray="3.09 3.09"/>
<path id="Vector 5" d="M-4.50781 37.844L83.8083 89.722" stroke="#F8DFDA" stroke-width="0.617595" stroke-dasharray="3.09 3.09"/>
<path id="Vector 6" d="M-18.095 45.2554L70.2212 97.1334" stroke="#F8DFDA" stroke-width="0.617595" stroke-dasharray="3.09 3.09"/>
<path id="Vector 7" d="M-29.8293 55.137L58.4868 107.015" stroke="#F8DFDA" stroke-width="0.617595" stroke-dasharray="3.09 3.09"/>
<path id="Vector 2" d="M30.0776 9.43457L118.394 61.3126" stroke="#F8DFDA" stroke-width="0.617595" stroke-dasharray="3.09 3.09"/>
<path id="Vector 3" d="M46.7527 1.40601L135.069 53.284" stroke="#F8DFDA" stroke-width="0.617595" stroke-dasharray="3.09 3.09"/>
<line id="Line 8" x1="-26.9015" y1="66.6068" x2="71.9137" y2="6.70004" stroke="#F8DFDA" stroke-width="0.617595" stroke-dasharray="3.09 3.09"/>
<line id="Line 9" x1="-9.60882" y1="73.4005" x2="89.2064" y2="13.4937" stroke="#F8DFDA" stroke-width="0.617595" stroke-dasharray="3.09 3.09"/>
<line id="Line 10" x1="-0.344901" y1="83.2821" x2="98.4703" y2="23.3753" stroke="#F8DFDA" stroke-width="0.617595" stroke-dasharray="3.09 3.09"/>
<line id="Line 11" x1="14.4776" y1="93.7813" x2="113.293" y2="33.8746" stroke="#F8DFDA" stroke-width="0.617595" stroke-dasharray="3.09 3.09"/>
<line id="Line 12" x1="26.2117" y1="101.192" x2="125.027" y2="41.2855" stroke="#F8DFDA" stroke-width="0.617595" stroke-dasharray="3.09 3.09"/>
<line id="Line 13" x1="39.7991" y1="107.986" x2="138.614" y2="48.0792" stroke="#F8DFDA" stroke-width="0.617595" stroke-dasharray="3.09 3.09"/>
</g>
<rect id="Rectangle 12" x="0.25" y="0.25" width="108" height="37" fill="url(#paint0_linear_304_11872)"/>
<rect id="Rectangle 14" x="107.25" y="0.25" width="107" height="37" transform="rotate(90 107.25 0.25)" fill="url(#paint1_linear_304_11872)"/>
<rect id="Rectangle 15" width="107" height="37" transform="matrix(4.37114e-08 1 1 -4.37114e-08 0.25 0.25)" fill="url(#paint2_linear_304_11872)"/>
<rect id="Rectangle 13" x="108.25" y="108.25" width="108" height="37" transform="rotate(-180 108.25 108.25)" fill="url(#paint3_linear_304_11872)"/>
</g>
<rect x="0.375" y="0.375" width="107.75" height="107.75" stroke="#FF7817" stroke-width="0.25"/>
</g>
<path id="Vector 8" d="M3.25 0.25H0.25V3.25" stroke="#E5340C" stroke-width="0.5"/>
<path id="Vector 9" d="M105.25 0.25H108.25V3.25" stroke="#E5340C" stroke-width="0.5"/>
<path id="Vector 10" d="M108.25 105.25L108.25 108.25L105.25 108.25" stroke="#E5340C" stroke-width="0.5"/>
<path id="Vector 11" d="M0.25 105.25L0.25 108.25L3.25 108.25" stroke="#E5340C" stroke-width="0.5"/>
<g id="object" clip-path="url(#clip1_304_11872)">
<g id="Group">
<path id="Vector" d="M24.5907 67.5443C24.3323 67.5443 24.1208 67.3313 24.1208 67.0709V48.9943C24.1208 48.734 24.3323 48.521 24.5907 48.521C24.8491 48.521 25.0605 48.734 25.0605 48.9943V67.0709C25.0605 67.3313 24.8491 67.5443 24.5907 67.5443Z" fill="#E5340C"/>
<g id="Group_2">
<path id="Vector_2" d="M27.4659 54.7406L21.7197 58.1155V50.0073L27.4659 46.6277V54.7406Z" fill="#F9A390"/>
<path id="Vector_3" d="M21.7198 58.5888C21.64 58.5888 21.5601 58.5699 21.4849 58.5273C21.3393 58.4421 21.25 58.2859 21.25 58.1155V50.0073C21.25 49.8369 21.3393 49.6854 21.4849 49.6002L27.2311 46.2206C27.3768 46.1354 27.5553 46.1354 27.701 46.2206C27.8466 46.3058 27.9359 46.462 27.9359 46.6324V54.7406C27.9359 54.911 27.8466 55.0625 27.701 55.1477L21.9548 58.5273C21.8796 58.5699 21.7997 58.5936 21.7198 58.5936V58.5888ZM22.1897 50.2771V57.2919L26.9962 54.4661V47.4513L22.1897 50.2771Z" fill="#E5340C"/>
</g>
</g>
<g id="Group_3">
<path id="Vector_4" d="M35.8905 83.0316C35.6321 83.0316 35.4207 82.8186 35.4207 82.5583V56.2031C35.4207 55.9427 35.6321 55.7297 35.8905 55.7297C36.1489 55.7297 36.3603 55.9427 36.3603 56.2031V82.5583C36.3603 82.8186 36.1489 83.0316 35.8905 83.0316Z" fill="#E5340C"/>
<g id="Group_4">
<path id="Vector_5" d="M38.7611 71.804L33.0149 75.1836V61.0073L38.7611 57.6277V71.804Z" fill="#F9A390"/>
<path id="Vector_6" d="M33.015 75.657C32.9351 75.657 32.8553 75.638 32.7801 75.5954C32.6344 75.5102 32.5452 75.354 32.5452 75.1836V61.0073C32.5452 60.8369 32.6344 60.6854 32.7801 60.6002L38.5263 57.2206C38.672 57.1354 38.8505 57.1354 38.9961 57.2206C39.1418 57.3058 39.2311 57.462 39.2311 57.6324V71.8088C39.2311 71.9792 39.1418 72.1306 38.9961 72.2158L33.2499 75.5954C33.1748 75.638 33.0949 75.6617 33.015 75.6617V75.657ZM33.4849 61.2771V74.3553L38.2914 71.5295V58.4513L33.4849 61.2771Z" fill="#E5340C"/>
</g>
</g>
<g id="Group_5">
<path id="Vector_7" d="M84.9095 60.9034C84.6511 60.9034 84.4397 60.6904 84.4397 60.4301V34.0749C84.4397 33.8146 84.6511 33.6016 84.9095 33.6016C85.168 33.6016 85.3794 33.8146 85.3794 34.0749V60.4301C85.3794 60.6904 85.168 60.9034 84.9095 60.9034Z" fill="#E5340C"/>
<g id="Group_6">
<path id="Vector_8" d="M87.7802 42.9688L82.0339 46.3484V32.1721L87.7802 28.7925V42.9688Z" fill="#F9A390"/>
<path id="Vector_9" d="M82.0341 46.8218C81.9542 46.8218 81.8743 46.8028 81.7991 46.7602C81.6535 46.675 81.5642 46.5188 81.5642 46.3484V32.1721C81.5642 32.0017 81.6535 31.8502 81.7991 31.765L87.5453 28.3854C87.691 28.3002 87.8695 28.3002 88.0152 28.3854C88.1608 28.4706 88.2501 28.6268 88.2501 28.7972V42.9736C88.2501 43.144 88.1608 43.2954 88.0152 43.3806L82.269 46.7602C82.1938 46.8028 82.1139 46.8265 82.0341 46.8265V46.8218ZM82.5039 32.4419V45.5201L87.3104 42.6943V29.6161L82.5039 32.4419Z" fill="#E5340C"/>
</g>
</g>
<g id="Group_7">
<path id="Vector_10" d="M47.1761 90.2501C46.9177 90.2501 46.7063 90.0371 46.7063 89.7768V63.4216C46.7063 63.1612 46.9177 62.9482 47.1761 62.9482C47.4346 62.9482 47.646 63.1612 47.646 63.4216V89.7768C47.646 90.0371 47.4346 90.2501 47.1761 90.2501Z" fill="#E5340C"/>
<g id="Group_8">
<path id="Vector_11" d="M50.0468 83.2541L44.3005 86.6337V64.6853L50.0468 61.3057V83.2541Z" fill="#F9A390"/>
<path id="Vector_12" d="M44.3007 87.1071C44.2208 87.1071 44.1409 87.0881 44.0657 87.0455C43.9201 86.9603 43.8308 86.8041 43.8308 86.6338V64.6853C43.8308 64.5149 43.9201 64.3634 44.0657 64.2782L49.8119 60.8986C49.9576 60.8134 50.1361 60.8134 50.2818 60.8986C50.4274 60.9838 50.5167 61.14 50.5167 61.3104V83.2589C50.5167 83.4293 50.4274 83.5807 50.2818 83.6659L44.5356 87.0455C44.4604 87.0881 44.3805 87.1118 44.3007 87.1118V87.1071ZM44.7705 64.9551V85.8054L49.577 82.9796V62.1293L44.7705 64.9551Z" fill="#E5340C"/>
</g>
</g>
<g id="Group_9">
<path id="Vector_13" d="M67.2902 84.3475C67.0317 84.3475 66.8203 84.1345 66.8203 83.8742V57.519C66.8203 57.2587 67.0317 57.0457 67.2902 57.0457C67.5486 57.0457 67.76 57.2587 67.76 57.519V83.8742C67.76 84.1345 67.5486 84.3475 67.2902 84.3475Z" fill="#E5340C"/>
<g id="Group_10">
<path id="Vector_14" d="M70.1654 79.9787L64.4192 83.3583V61.4099L70.1654 58.0303V79.9787Z" fill="#F9A390"/>
<path id="Vector_15" d="M64.4193 83.8317C64.3394 83.8317 64.2596 83.8128 64.1844 83.7702C64.0387 83.685 63.9495 83.5288 63.9495 83.3584V61.4099C63.9495 61.2395 64.0387 61.088 64.1844 61.0028L69.9306 57.6232C70.0763 57.538 70.2548 57.538 70.4004 57.6232C70.5461 57.7084 70.6354 57.8646 70.6354 58.035V79.9835C70.6354 80.1539 70.5461 80.3054 70.4004 80.3906L64.6542 83.7702C64.5791 83.8128 64.4992 83.8364 64.4193 83.8364V83.8317ZM64.8892 61.6797V82.53L69.6957 79.7042V58.8539L64.8892 61.6797Z" fill="#E5340C"/>
</g>
</g>
<g id="Group_11">
<path id="Vector_16" d="M58.0861 74.0857C57.8276 74.0857 57.6162 73.8727 57.6162 73.6123V51.5739C57.6162 51.3136 57.8276 51.1006 58.0861 51.1006C58.3445 51.1006 58.5559 51.3136 58.5559 51.5739V73.6123C58.5559 73.8727 58.3445 74.0857 58.0861 74.0857Z" fill="#E5340C"/>
<g id="Group_12">
<path id="Vector_17" d="M60.9613 74.0099L55.2151 77.3895V58.4135L60.9613 55.0339V74.0099Z" fill="white"/>
<path id="Vector_18" d="M55.2152 77.8628C55.1353 77.8628 55.0555 77.8439 54.9803 77.8013C54.8346 77.7161 54.7454 77.5599 54.7454 77.3895V58.4136C54.7454 58.2432 54.8346 58.0917 54.9803 58.0065L60.7265 54.6269C60.8721 54.5417 61.0507 54.5417 61.1963 54.6269C61.342 54.7121 61.4313 54.8683 61.4313 55.0387V74.0146C61.4313 74.185 61.342 74.3365 61.1963 74.4217L55.4501 77.8013C55.375 77.8439 55.2951 77.8676 55.2152 77.8676V77.8628ZM55.6851 58.6881V76.5659L60.4916 73.7401V55.8623L55.6851 58.6881Z" fill="#E5340C"/>
</g>
</g>
<g id="Group_13">
<path id="Vector_19" d="M75.7147 56.6528C75.4563 56.6528 75.2449 56.4398 75.2449 56.1795V19.7233C75.2449 19.463 75.4563 19.25 75.7147 19.25C75.9731 19.25 76.1846 19.463 76.1846 19.7233V56.1795C76.1846 56.4398 75.9731 56.6528 75.7147 56.6528Z" fill="#E5340C"/>
<g id="Group_14">
<path id="Vector_20" d="M78.59 56.577L72.8438 59.9566V26.5629L78.59 23.1833V56.577Z" fill="white"/>
<path id="Vector_21" d="M72.8439 60.43C72.764 60.43 72.6841 60.411 72.6089 60.3684C72.4633 60.2832 72.374 60.127 72.374 59.9566V26.563C72.374 26.3926 72.4633 26.2411 72.6089 26.1559L78.3552 22.7763C78.5008 22.6911 78.6794 22.6911 78.825 22.7763C78.9707 22.8615 79.0599 23.0177 79.0599 23.1881V56.5818C79.0599 56.7522 78.9707 56.9036 78.825 56.9888L73.0788 60.3684C73.0036 60.411 72.9237 60.4347 72.8439 60.4347V60.43ZM73.3137 26.8375V59.1378L78.1202 56.312V24.0117L73.3137 26.8375Z" fill="#E5340C"/>
</g>
</g>
</g>
</g>
</g>
</g>
</g>
</g>
<defs>
<linearGradient id="paint0_linear_304_11872" x1="54.25" y1="0.25" x2="54.25" y2="37.25" gradientUnits="userSpaceOnUse">
<stop stop-color="white"/>
<stop offset="1" stop-color="white" stop-opacity="0.2"/>
</linearGradient>
<linearGradient id="paint1_linear_304_11872" x1="160.75" y1="0.25" x2="160.75" y2="37.25" gradientUnits="userSpaceOnUse">
<stop stop-color="white"/>
<stop offset="1" stop-color="white" stop-opacity="0.2"/>
</linearGradient>
<linearGradient id="paint2_linear_304_11872" x1="53.5" y1="0" x2="53.5" y2="37" gradientUnits="userSpaceOnUse">
<stop stop-color="white"/>
<stop offset="1" stop-color="white" stop-opacity="0.2"/>
</linearGradient>
<linearGradient id="paint3_linear_304_11872" x1="162.25" y1="108.25" x2="162.25" y2="145.25" gradientUnits="userSpaceOnUse">
<stop stop-color="white"/>
<stop offset="1" stop-color="white" stop-opacity="0.2"/>
</linearGradient>
<clipPath id="clip0_304_11872">
<rect x="0.25" y="0.25" width="108" height="108" fill="white"/>
</clipPath>
<clipPath id="clip1_304_11872">
<rect width="67" height="71" fill="white" transform="translate(21.25 19.25)"/>
</clipPath>
</defs>
</svg>
